<?xml version="1.0" standalone="no"?>
<!DOCTYPE svg PUBLIC "-//W3C//DTD SVG 1.1//EN" "http://www.w3.org/Graphics/SVG/1.1/DTD/svg11.dtd" >
<svg>
<metadata>
Created by FontForge 20110222 at Fri Sep 12 03:57:10 2014
 By Orthosie Webhosting
Copyright (c) 2011 by Anna Giedrys (http://ancymonic.com), with Reserved Font Names "Signika".
</metadata>
<defs>
<font id="SignikaRegular" horiz-adv-x="530" >
  <font-face 
    font-family="SignikaRegular"
    font-weight="400"
    font-stretch="normal"
    units-per-em="1000"
    panose-1="2 1 0 3 2 6 0 0 0 4"
    ascent="800"
    descent="-200"
    x-height="494"
    cap-height="687"
    bbox="-126 -263 959 902"
    underline-thickness="50"
    underline-position="-100"
    unicode-range="U+000D-20AC"
  />
<missing-glyph horiz-adv-x="0" 
 />
    <glyph glyph-name=".notdef" horiz-adv-x="0" 
 />
    <glyph glyph-name=".null" horiz-adv-x="0" 
 />
    <glyph glyph-name="nonmarkingreturn" horiz-adv-x="333" 
 />
    <glyph glyph-name="CR.001" unicode="&#xd;" horiz-adv-x="186" 
 />
    <glyph glyph-name="space" unicode=" " horiz-adv-x="220" 
 />
    <glyph glyph-name="exclam" unicode="!" horiz-adv-x="288" 
d="M102 194l-12 466q40 30 110 30l7 -7l-25 -489q-8 -3 -19 -4t-22 -1t-21 1t-18 4zM86 97q20 13 56 13q16 0 28.5 -2.5t21 -6t12.5 -17t4 -34.5q0 -20 -4 -33t-12.5 -17t-21 -6.5t-28.5 -2.5q-15 0 -27 2t-21.5 6t-13 17t-3.5 34q0 33 9 47z" />
    <glyph glyph-name="quotedbl" unicode="&#x22;" horiz-adv-x="390" 
d="M234 751q23 13 51 13q29 0 52 -13q7 -27 7 -42q0 -13 -6 -41q-8 -39 -14 -78.5t-11 -81.5q-9 -5 -28 -5q-8 0 -15 1t-12 4q-11 83 -21 135.5t-10 66.5t7 41zM53 751q23 13 51 13q29 0 52 -13q7 -27 7 -42q0 -7 -1 -17t-4 -24q-8 -39 -14.5 -78.5t-11.5 -81.5
q-5 -3 -12 -4t-15 -1t-15.5 1t-12.5 4q-11 83 -21 135.5t-10 66.5t7 41z" />
    <glyph glyph-name="numbersign" unicode="#" horiz-adv-x="645" 
d="M428 498l32 141q17 7 46.5 7t46.5 -7l-32 -141h98q6 -18 6 -43.5t-6 -42.5h-117l-38 -172h107q7 -17 7 -42.5t-7 -42.5h-126l-32 -142q-17 -7 -47 -7t-47 7l32 142h-125l-32 -142q-16 -7 -47 -7t-47 7l32 142h-102q-7 17 -7 42.5t7 42.5h121l39 172h-113q-6 17 -6 42.5
t6 43.5h132l32 141q17 7 46.5 7t46.5 -7l-32 -141h126zM283 412l-38 -172h125l39 172h-126z" />
    <glyph glyph-name="dollar" unicode="$" horiz-adv-x="499" 
d="M33 98q1 21 13 45.5t28 34.5q101 -56 181 -56q42 0 69.5 17.5t27.5 49.5q0 52 -73 79l-100 36q-62 22 -92.5 59t-30.5 87q0 60 39.5 102.5t108.5 53.5v82q12 4 40 4q30 0 43 -4v-80q40 -4 79 -15t77 -28q0 -50 -38 -82q-86 39 -155 39q-40 0 -64 -17.5t-24 -44.5
q0 -26 16.5 -40t52.5 -26l97 -36q60 -23 96 -62.5t36 -102.5t-47.5 -106t-129.5 -50v-76q-18 -3 -43 -3t-40 3v78q-100 13 -167 59z" />
    <glyph glyph-name="percent" unicode="%" horiz-adv-x="907" 
d="M810 29q-41 -41 -108 -41q-79 0 -118.5 52t-39.5 154q0 104 41 154t116 50t116.5 -49.5t41.5 -155.5q0 -115 -49 -164zM771 192q0 137 -69 137t-69 -137q0 -136 69 -136t69 136zM314 654q49 -49 49 -164q0 -106 -41.5 -155.5t-116.5 -49.5t-116 49.5t-41 155.5
q0 105 41 155t116 50q68 0 109 -41zM205 627q-68 0 -68 -137q0 -136 68 -136q69 0 69 136q0 137 -69 137zM214 0l377 683q18 5 42 5q41 0 59 -5l-376 -683q-18 -5 -43 -5q-21 0 -35.5 1t-23.5 4z" />
    <glyph glyph-name="ampersand" unicode="&#x26;" horiz-adv-x="623" 
d="M499 317l1 -166q0 -9 1.5 -46.5t5.5 -104.5q-20 -6 -50 -6q-13 0 -25 1t-22 4l-8 41q-74 -53 -162 -53q-44 0 -79.5 14.5t-60 39.5t-37.5 58.5t-13 71.5t10.5 70t28.5 57t42 42t51 26q-46 15 -74.5 56.5t-28.5 95.5q0 39 15 71.5t42.5 56.5t66.5 37t87 13q98 0 182 -29
q0 -51 -28 -82q-84 26 -139 26q-57 0 -86.5 -27t-29.5 -75t30.5 -75t93.5 -27h184q60 0 95 15q14 -17 14 -50q0 -55 -75 -55h-32zM398 254v36t1 27h-96q-36 0 -62.5 -10.5t-44.5 -28t-27 -41.5t-9 -51q0 -54 28.5 -84.5t77.5 -30.5q74 0 132 47v136z" />
    <glyph glyph-name="quotesingle" unicode="'" horiz-adv-x="211" 
d="M50 751q23 13 51 13q29 0 52 -13q7 -27 7 -42q0 -13 -6 -41q-8 -39 -14 -78.5t-11 -81.5q-9 -5 -28 -5q-8 0 -15 1t-12 4q-11 83 -21 135.5t-10 66.5t7 41z" />
    <glyph glyph-name="parenleft" unicode="(" horiz-adv-x="332" 
d="M316 773q-142 -184 -142 -449q0 -264 142 -448q-18 -42 -62 -56q-45 44 -80.5 103t-60 126t-38 138t-13.5 138t13.5 137.5t38 137.5t60 126t80.5 103q44 -14 62 -56z" />
    <glyph glyph-name="parenright" unicode=")" horiz-adv-x="332" 
d="M16 -124q142 187 142 448q0 262 -142 449q18 42 62 56q44 -44 79.5 -103t60 -126t38 -138t13.5 -138t-13 -137.5t-38 -137.5t-60 -126t-80 -103q-44 14 -62 56z" />
    <glyph glyph-name="asterisk" unicode="*" horiz-adv-x="504" 
d="M45 547q-2 17 7 44.5t21 41.5l52 -18q34 -12 101 -53q-18 70 -18 113l-1 56q16 7 44.5 7t45.5 -7l-1 -56q0 -38 -19 -112q68 40 102 52l53 17q11 -12 20 -39t8 -46l-54 -17q-38 -12 -113 -16q57 -47 82 -81l32 -44q-8 -15 -30.5 -32t-41.5 -21l-32 45q-26 37 -51 102
q-25 -66 -51 -101l-32 -46q-18 5 -40.5 21.5t-32.5 31.5l33 44q23 31 81 81q-74 4 -112 17z" />
    <glyph glyph-name="plus" unicode="+" 
d="M219 337l-1 49v123q20 4 47.5 4t46.5 -4v-123l-1 -49l49 1h114q4 -20 4 -46t-4 -43h-114l-49 1l1 -48v-124q-19 -4 -46.5 -4t-47.5 4v124l1 48l-49 -1h-114q-4 17 -4 43.5t4 45.5h114z" />
    <glyph glyph-name="comma" unicode="," horiz-adv-x="269" 
d="M197 104q11 -30 11 -66q0 -66 -38 -120t-110 -79q-14 7 -20.5 21t-6.5 31q35 15 58 42t25 58q-19 5 -30 8.5t-13.5 12t-4 19t-1.5 25.5q0 23 3.5 36t13.5 16.5t23 6t30 2.5q41 0 60 -13z" />
    <glyph glyph-name="hyphen" unicode="-" horiz-adv-x="350" 
d="M299 222h-248q-5 17 -5 44.5t5 44.5h248q5 -18 5 -45t-5 -44z" />
    <glyph glyph-name="period" unicode="." horiz-adv-x="263" 
d="M70 104q25 14 62 14q17 0 30 -2.5t23 -7t13.5 -18t3.5 -35.5q0 -21 -2.5 -34.5t-11.5 -18.5t-22 -7.5t-33 -2.5q-19 0 -32.5 2.5t-23.5 6.5t-13 18t-3 36q0 32 9 49z" />
    <glyph glyph-name="slash" unicode="/" horiz-adv-x="422" 
d="M7 -77l316 838q50 -3 90 -33l-316 -839q-50 3 -90 34z" />
    <glyph glyph-name="zero" unicode="0" 
d="M119 603q58 58 146 58q109 0 164 -79.5t55 -257.5q0 -177 -53.5 -257t-165.5 -80q-113 0 -167.5 84t-51.5 253q0 51 3.5 92.5t11.5 75.5t22.5 61t35.5 50zM193 104q23 -35 72 -35q29 0 49.5 12.5t34 42t20 78.5t6.5 122t-6.5 122t-20 78.5t-34 42t-49.5 12.5t-49.5 -12.5
t-34 -42t-20 -78.5t-6.5 -122q0 -170 38 -220z" />
    <glyph glyph-name="one" unicode="1" 
d="M243 86l-1 67v228q0 16 5 121q-56 -69 -144 -108q-36 20 -44 62q140 87 187 192q21 5 48.5 5t49.5 -5v-495l-1 -67l59 1h69q4 -19 4 -43.5t-4 -43.5h-377q-4 20 -4 44t4 43h92z" />
    <glyph glyph-name="two" unicode="2" 
d="M475 91q0 -43 -13 -67t-56 -24h-311q-41 36 -41 65q0 80 125 190l98 86q38 33 56.5 67.5t18.5 67.5q0 45 -27 72t-69 27t-72.5 -26.5t-47.5 -68.5q-21 1 -43 10.5t-32 24.5q11 31 30 57.5t45.5 46t60.5 31t75 11.5q40 0 74.5 -14t59.5 -38.5t39 -57t14 -69.5
q0 -38 -8 -66.5t-24 -53.5t-39.5 -48t-53.5 -49l-77 -66q-88 -76 -98 -116q39 4 72 6t60 2h184z" />
    <glyph glyph-name="three" unicode="3" 
d="M430 536l-105 -112q-7 -7 -16 -15t-20 -16q40 -1 74.5 -14t59 -37.5t38.5 -60.5t14 -84t-18.5 -87t-50 -66t-72.5 -42t-86 -15q-122 0 -200 66q11 42 46 69q68 -50 133 -50q66 0 103 34.5t37 94.5q0 59 -30.5 90.5t-75.5 31.5q-43 0 -75 -17q-28 13 -42 56l125 136
q51 51 68 65l-3 5q-39 -10 -116 -10h-141q-6 16 -6 40q0 26 9 50h349q22 -41 22 -66q0 -22 -21 -46z" />
    <glyph glyph-name="four" unicode="4" 
d="M392 139l1 -54v-85q-23 -4 -51.5 -4t-49.5 4v85l1 54l-54 -2h-177q-24 39 -24 57.5t20 68.5l169 391q22 5 52.5 -0.5t44.5 -18.5l-115 -266q-44 -102 -70 -145l3 -4q63 5 114 5h37q-1 11 -1 32v78q0 37 18 58.5t50 21.5h28l5 -5v-132l-1 -53l46 1h53q3 -21 3 -43.5
t-7 -44.5h-49z" />
    <glyph glyph-name="five" unicode="5" 
d="M439 648q7 -20 7 -43q0 -46 -46 -46h-211v-50l-7 -96q43 18 88 18q93 0 148 -55.5t55 -161.5q0 -52 -18.5 -94t-49.5 -71.5t-73 -45.5t-88 -16q-115 0 -188 64q3 17 16 37.5t28 31.5q36 -25 70 -36.5t64 -11.5q58 0 94.5 38.5t36.5 105.5q0 35 -9.5 60t-28 41t-39.5 23.5
t-47 7.5q-27 0 -56 -10t-56 -33q-14 2 -28.5 12.5t-21.5 22.5l14 301l7 7h339z" />
    <glyph glyph-name="six" unicode="6" 
d="M120 51q-18 23 -31 49t-22 58t-13 73.5t-4 95.5q0 78 17 140t49.5 105t80.5 66t111 23q88 0 144 -32q-5 -51 -37 -73q-48 22 -101 22q-76 0 -114 -54.5t-41 -147.5q61 57 145 57q85 0 133 -54t48 -160q0 -51 -15.5 -94t-43.5 -73.5t-67.5 -47.5t-88.5 -17q-95 0 -150 64z
M277 346q-65 0 -118 -56v-16q0 -102 29.5 -154.5t87.5 -52.5q48 0 75.5 38t27.5 104q0 137 -102 137z" />
    <glyph glyph-name="seven" unicode="7" 
d="M69 648h396q19 -38 19 -62t-16 -46l-34 -49q-76 -112 -117 -216.5t-55 -238.5l-3 -36q-23 -5 -52 -5t-56 5l4 41q24 236 163 436l11 16q20 31 56 70l-4 4q-41 -9 -152 -9h-164q-5 18 -5 42t9 48z" />
    <glyph glyph-name="eight" unicode="8" 
d="M44 163q0 57 33 102t84 72q-100 54 -100 153q0 37 15.5 68.5t43.5 54t65 35.5t81 13t81 -12.5t63.5 -35t41.5 -53t15 -66.5q0 -48 -27 -85.5t-70 -60.5q115 -62 115 -177q0 -42 -17.5 -76t-48.5 -58t-72 -37t-89 -13t-87.5 12t-67.5 34.5t-43.5 55t-15.5 74.5zM237 305
h-2q-85 -48 -85 -134q0 -51 32 -80t81 -29q51 0 83 30.5t32 79.5q0 90 -124 127zM165 491q0 -76 116 -108l12 -5q71 41 71 112q0 43 -28.5 68.5t-71.5 25.5q-42 0 -70.5 -25.5t-28.5 -67.5z" />
    <glyph glyph-name="nine" unicode="9" 
d="M410 597q18 -23 31 -49t21.5 -58.5t13 -73.5t4.5 -95q0 -78 -17 -140t-49.5 -105t-80.5 -66t-111 -23q-88 0 -144 32q5 51 37 73q48 -22 101 -22q76 0 114 54t41 147q-64 -56 -146 -56q-84 0 -132 54t-48 160q0 53 16 96t44.5 73t67.5 46.5t86 16.5q96 0 151 -64z
M253 302q63 0 118 55v17q0 102 -29.5 154.5t-88.5 52.5q-48 0 -75 -38t-27 -104q0 -137 102 -137z" />
    <glyph glyph-name="colon" unicode=":" horiz-adv-x="269" 
d="M73 104q26 14 62 14q17 0 30 -2.5t23 -7t13.5 -18t3.5 -35.5q0 -21 -3.5 -35.5t-11.5 -18.5t-21 -6.5t-33 -2.5q-19 0 -32.5 2.5t-23 6t-13 18t-3.5 36.5q0 32 9 49zM73 433q26 14 62 14q17 0 30 -2.5t23 -7t13.5 -18t3.5 -35.5q0 -21 -3 -35t-11.5 -19t-21.5 -7t-33 -2
q-19 0 -32.5 2.5t-23 6t-13 18t-3.5 36.5q0 32 9 49z" />
    <glyph glyph-name="semicolon" unicode=";" horiz-adv-x="273" 
d="M196 104q11 -30 11 -66q0 -66 -38 -120t-110 -79q-14 7 -20.5 21t-6.5 31q35 15 58 42t25 58q-19 5 -29.5 8.5t-13 12t-4.5 19t-2 25.5q0 23 4 36t13.5 16.5t22.5 6t30 2.5q41 0 60 -13zM75 433q25 14 62 14q17 0 30 -1.5t22 -8t13.5 -19t4.5 -34.5q0 -21 -3.5 -33
t-11.5 -19t-21 -9t-33 -2q-19 0 -32.5 1.5t-22.5 8t-13 19t-4 34.5q0 32 9 49z" />
    <glyph glyph-name="less" unicode="&#x3c;" 
d="M54 334l369 202q43 -26 48 -81l-237 -125l-74 -34v-6l74 -34l237 -125q-2 -25 -16 -47.5t-32 -34.5l-369 202q-13 47 0 83z" />
    <glyph glyph-name="equal" unicode="=" 
d="M474 154h-418q-4 19 -4 44.5t4 44.5h418q4 -19 4 -44.5t-4 -44.5zM474 347h-418q-4 17 -4 43t4 46h418q4 -20 4 -46t-4 -43z" />
    <glyph glyph-name="greater" unicode="&#x3e;" 
d="M476 252l-369 -202q-43 26 -48 82l237 124q18 10 74 34v7q-56 24 -74 34l-237 125q2 25 16 47.5t32 34.5l369 -203q13 -46 0 -83z" />
    <glyph glyph-name="question" unicode="?" horiz-adv-x="396" 
d="M11 645q91 51 184 51t142.5 -46.5t49.5 -124.5q-1 -60 -32.5 -109.5t-97.5 -84.5l-63 -34l-8 -102q-18 -6 -40 -6q-21 0 -39 6l-6 149l9 11l48 25q60 31 89.5 64t29.5 71t-25.5 63.5t-74.5 25.5q-26 0 -58 -8.5t-70 -27.5q-14 12 -25.5 34t-12.5 43zM91 96q20 13 56 13
q15 0 27.5 -2.5t22.5 -7t13 -16.5t3 -34t-4 -34.5t-11.5 -15.5t-21.5 -6t-29 -3q-16 0 -28 3t-20.5 6t-12.5 16.5t-4 33.5q0 30 9 47z" />
    <glyph glyph-name="at" unicode="@" horiz-adv-x="949" 
d="M663 412l-1 -255q0 -69 43 -69t71.5 49.5t28.5 155.5q0 69 -22.5 125.5t-63.5 97t-100 62.5t-132 22q-74 0 -135 -28.5t-105 -78.5t-68.5 -118.5t-24.5 -148.5q0 -81 21.5 -143.5t60.5 -104.5t94 -64t123 -22q114 0 203 37q27 -29 27 -73q-115 -44 -237 -44
q-88 0 -161 27.5t-125 80t-81 129t-29 175.5q0 98 33 181t91.5 143.5t138.5 94.5t174 34q93 0 170.5 -27.5t133 -78t86 -122t30.5 -159.5q0 -65 -16.5 -117t-44 -88.5t-64.5 -56t-79 -19.5q-83 0 -121 62q-62 -66 -138 -66q-75 0 -117.5 60t-42.5 166q0 52 13.5 97.5
t40 79.5t65 53.5t88.5 19.5q98 0 172 -69zM465 86q25 0 52.5 17t46.5 42v231q-30 30 -79 30q-24 0 -43 -13t-31.5 -36.5t-19.5 -56t-7 -71.5q0 -143 81 -143z" />
    <glyph glyph-name="A" unicode="A" horiz-adv-x="611" 
d="M429 166l-60 -1h-137l-58 1l-53 -167q-17 -4 -45 -4t-53 7l-3 5l226 676q21 4 61 4t60 -4l224 -676q-21 -14 -54 -14t-47 12t-24 44zM201 252l51 1h100q41 -1 50 -1l-46 145q-35 112 -53 181h-5q-12 -55 -39 -145z" />
    <glyph glyph-name="B" unicode="B" horiz-adv-x="605" 
d="M318 -4l-221 2l-6 8v671l6 7l208 3q109 0 163.5 -47t54.5 -134q0 -48 -26 -85.5t-68 -54.5q25 -8 48.5 -25t40.5 -40t27.5 -51t10.5 -59q0 -88 -59 -141.5t-179 -53.5zM196 76l121 1q37 0 62 10t40 26.5t21.5 38t6.5 46.5q0 22 -7.5 43.5t-24 38.5t-42.5 27.5t-62 10.5
h-115v-242zM196 607v-207h105q32 0 54 8t35.5 22t19.5 33t6 40q0 103 -113 103h-64.5t-42.5 1z" />
    <glyph glyph-name="C" unicode="C" horiz-adv-x="604" 
d="M460 447q0 32 -7.5 61.5t-24.5 52t-44 36t-66 13.5q-77 0 -117 -69t-40 -198q0 -128 43 -195.5t127 -67.5t175 76q41 -27 53 -69q-22 -22 -50.5 -40t-60 -31.5t-65 -21t-65.5 -7.5q-77 0 -129 29.5t-81.5 78t-44 112t-14.5 131.5q0 90 21 157t57.5 111.5t85.5 67
t104 22.5q57 0 102.5 -16t78 -43t49.5 -62t17 -74q0 -60 -60 -60q-19 0 -44 6z" />
    <glyph glyph-name="D" unicode="D" horiz-adv-x="648" 
d="M491 46q-15 -12 -35.5 -21.5t-44.5 -16t-48.5 -10t-46.5 -3.5q-23 0 -77 1t-142 3l-6 7v671l6 7q87 3 220 3q81 0 135 -27t86.5 -74t45.5 -110.5t13 -135.5q0 -100 -21.5 -171.5t-84.5 -122.5zM317 601h-120v-520h120q170 0 170 260q0 136 -42.5 198t-127.5 62z" />
    <glyph glyph-name="E" unicode="E" horiz-adv-x="566" 
d="M195 138l-1 -51q30 3 66 3h259q0 -27 -3 -41q-9 -50 -68 -50h-297q-28 0 -44.5 17.5t-16.5 48.5v612l7 6h402q3 -16 3 -42.5t-8 -47.5h-300l1 -65v-140l62 1h188q5 -18 5 -44.5t-5 -43.5h-188q-39 0 -62 1v-164z" />
    <glyph glyph-name="F" unicode="F" horiz-adv-x="522" 
d="M196 593l1 -118v-88q15 1 42 1h201q5 -17 5 -44.5t-5 -44.5h-243v-299q-23 -4 -54 -4t-52 4v677l6 6h396q6 -18 6 -42q0 -49 -60 -49h-147q-68 0 -96 1z" />
    <glyph glyph-name="G" unicode="G" horiz-adv-x="643" 
d="M350 359l154 1q76 0 76 -70v-260q-112 -43 -247 -43q-75 0 -131.5 28t-89.5 77q-63 97 -63 245q0 92 25 163t68 112q87 84 203 84q136 0 233 -73q-8 -50 -51 -80q-82 62 -182 62q-83 0 -134 -65t-51 -204q0 -261 191 -261q71 0 127 17v112q0 44 2 64h-88q-50 0 -50 47
q0 23 8 44z" />
    <glyph glyph-name="H" unicode="H" horiz-adv-x="675" 
d="M478 397l-1 74v212q21 4 53.5 4t53.5 -4v-683q-23 -4 -53.5 -4t-53.5 4v234l1 74l-56 -1h-169l-57 1l1 -74v-234q-21 -4 -53.5 -4t-52.5 4v683q20 4 52.5 4t53.5 -4v-212l-1 -74l57 1h169z" />
    <glyph glyph-name="I" unicode="I" horiz-adv-x="294" 
d="M94 0v683q20 4 52.5 4t53.5 -4v-683q-21 -4 -53.5 -4t-52.5 4z" />
    <glyph glyph-name="J" unicode="J" horiz-adv-x="448" 
d="M50 112q55 -33 111 -33t79.5 36t23.5 119v449q21 4 53 4t53 -4v-434q0 -61 -8 -103.5t-29 -79.5q-42 -76 -167 -76q-88 0 -156 42q8 46 40 80z" />
    <glyph glyph-name="K" unicode="K" horiz-adv-x="596" 
d="M580 28q-22 -34 -72 -34q-29 0 -43.5 14.5t-26.5 49.5l-54 147q-21 56 -48 79t-67.5 23t-71.5 -2v-305q-21 -4 -53.5 -4t-52.5 4v683q20 4 52.5 4t53.5 -4v-287l56 2q14 0 21.5 6t16.5 22l128 217q14 24 26.5 33.5t39.5 9.5t59 -3l7 -9l-151 -256q-19 -32 -40 -50
q47 -9 73.5 -38t47.5 -85l54 -145q20 -52 45 -72z" />
    <glyph glyph-name="L" unicode="L" horiz-adv-x="512" 
d="M286 92h199q0 -22 -3 -42q-9 -51 -69 -51h-261q-28 0 -45 17.5t-17 48.5v616l7 6h40q33 0 46.5 -16t13.5 -52v-531q41 4 89 4z" />
    <glyph glyph-name="M" unicode="M" horiz-adv-x="808" 
d="M74 1l53 682q24 4 70 4t69 -4l95 -313q26 -81 40 -159h6q7 49 39 159l95 313q26 4 70 4t70 -4l53 -682q-22 -6 -51.5 -6t-50.5 4l-23 366q-6 80 -8 203h-6l-137 -464q-32 -4 -55 -4t-53 4l-137 464h-6q-5 -151 -8 -203l-24 -366q-20 -4 -50 -4t-51 6z" />
    <glyph glyph-name="N" unicode="N" horiz-adv-x="680" 
d="M583 687l6 -5v-681q-28 -5 -64 -5t-64 4l-213 419q-32 67 -63 139l-4 -1q9 -155 9 -245v-312q-24 -4 -50 -4t-49 4v682q28 5 63.5 5t63.5 -4l211 -419q14 -30 37 -81.5t29 -63.5l4 1q-8 128 -8 252v249q0 36 12.5 51t44.5 15h35z" />
    <glyph glyph-name="O" unicode="O" horiz-adv-x="658" 
d="M192 521q-17 -42 -24 -85t-7 -89q0 -51 7 -100.5t26 -88.5t52 -62.5t84 -23.5q55 0 87.5 27.5t50 68.5t23 88t5.5 86q0 40 -5.5 87t-22.5 87.5t-50.5 67.5t-88.5 27q-51 0 -85.5 -24t-51.5 -66zM156 47q-107 92 -107 294q0 82 18.5 147.5t54 111.5t87.5 71t120 25
q67 0 119.5 -24.5t87.5 -70.5t53.5 -112t18.5 -148t-18.5 -147.5t-53.5 -111.5t-87.5 -70.5t-119.5 -24.5q-106 0 -173 60z" />
    <glyph glyph-name="P" unicode="P" horiz-adv-x="568" 
d="M97 684l206 3q52 0 94.5 -14.5t72.5 -42.5t46 -69.5t16 -95.5t-16.5 -96t-46.5 -70.5t-72.5 -43t-93.5 -14.5h-106v-241q-11 -2 -25 -3t-29 -1q-14 0 -28 1t-24 3v677zM197 325l102 1q34 0 57.5 11.5t37.5 30.5t20.5 44t6.5 52q0 28 -6.5 53t-20.5 44t-37.5 30t-56.5 11
h-60.5t-42.5 1v-278z" />
    <glyph glyph-name="Q" unicode="Q" horiz-adv-x="658" 
d="M453 -101l-114 88h-10q-137 0 -208.5 93t-71.5 262q0 82 17.5 148t52 111.5t86.5 70t120 24.5q69 0 120.5 -24.5t86.5 -69.5t52.5 -109.5t17.5 -144.5q0 -63 -10 -117t-29 -96t-47 -71.5t-63 -42.5l22 -16q22 -17 39.5 -27.5t32.5 -16.5t28 -8.5t27 -2.5q-2 -35 -24 -57
t-54 -22q-34 0 -71 28zM325 611q-165 0 -165 -269q0 -268 165 -268q166 0 166 268q0 269 -166 269z" />
    <glyph glyph-name="R" unicode="R" horiz-adv-x="600" 
d="M97 684l215 3q106 0 166.5 -53.5t60.5 -151.5q0 -67 -35.5 -115.5t-92.5 -66.5q47 -17 71 -85l44 -117q19 -52 45 -72q-22 -33 -72 -33q-28 0 -42.5 15t-27.5 50l-50 135q-15 40 -36.5 61t-64.5 21h-82v-275q-21 -4 -53 -4t-52 4v677zM196 604v-244q78 2 111 2
q67 0 94.5 34t27.5 86q0 121 -122 121q-77 0 -111 1z" />
    <glyph glyph-name="S" unicode="S" horiz-adv-x="556" 
d="M30 62q4 49 45 82q104 -68 201 -68q59 0 93.5 26t34.5 68q0 69 -91 108l-118 51q-137 59 -137 173q0 41 17 76.5t47 62.5t72.5 41t93.5 14q105 0 208 -52q-1 -48 -39 -83q-96 47 -171 47q-54 0 -87 -26.5t-33 -62.5q0 -37 20.5 -57.5t62.5 -37.5l116 -50
q75 -32 112.5 -77.5t37.5 -108.5q0 -90 -62.5 -145.5t-189.5 -55.5t-233 75z" />
    <glyph glyph-name="T" unicode="T" horiz-adv-x="492" 
d="M358 593l-58 1v-594q-23 -4 -53.5 -4t-53.5 4v520l1 74h-1l-57 -1h-119q-4 21 -4 45t4 45h460q6 -24 6 -46q0 -44 -60 -44h-65z" />
    <glyph glyph-name="U" unicode="U" horiz-adv-x="669" 
d="M587 683v-443q0 -122 -68 -187.5t-185 -65.5q-116 0 -184 65t-68 188v441l6 6h41q32 0 45.5 -16t13.5 -52v-379q0 -82 37 -124.5t109 -42.5q146 0 146 167v443q11 2 25 3t28 1q15 0 29 -1t25 -3z" />
    <glyph glyph-name="V" unicode="V" horiz-adv-x="575" 
d="M300 95l159 588q19 4 47 4t47 -6l5 -8l-198 -674q-52 -4 -82 -4t-47.5 10.5t-26.5 41.5l-184 627q36 16 66 16q43 0 58 -52l103 -361q24 -85 44 -172q3 -10 9 -10z" />
    <glyph glyph-name="W" unicode="W" horiz-adv-x="850" 
d="M156 48l-126 629q29 13 57 13t41 -12.5t18 -44.5l63 -340q22 -126 32 -193q1 -12 9 -12l109 581q33 5 71 5t66 -5l100 -569q2 -12 9 -12q10 70 36 206l77 389q20 4 48 4t51 -6l5 -7l-143 -673q-39 -6 -81 -6t-58 10.5t-22 41.5l-48 268q-25 147 -40 247h-7
q-20 -126 -44 -247l-61 -315q-43 -5 -82 -5t-56.5 10.5t-23.5 42.5z" />
    <glyph glyph-name="X" unicode="X" horiz-adv-x="587" 
d="M445 683q17 5 47.5 5t52.5 -10l3 -7l-192 -310l213 -345q-34 -23 -72.5 -23t-65.5 43l-145 234l-163 -270q-17 -5 -48.5 -5t-53.5 10l-3 7l214 345l-190 310q34 23 72.5 23t64.5 -42l123 -200z" />
    <glyph glyph-name="Y" unicode="Y" horiz-adv-x="503" 
d="M303 454l91 229q19 5 46 5t51 -8l5 -7l-190 -454v-219q-23 -4 -55 -4t-52 4v221l-190 450q34 19 61 19t40 -10.5t23 -35.5l79 -192q20 -50 42 -125h5q11 40 44 127z" />
    <glyph glyph-name="Z" unicode="Z" horiz-adv-x="562" 
d="M62 113l252 379q10 15 79 106l-3 3q-44 -8 -156 -8h-161q-4 16 -4 38.5t8 51.5h412q15 -51 15 -70.5t-14 -40.5l-251 -376q-23 -35 -78 -107l3 -3q63 6 120 6h104q80 0 118 19q9 -27 9 -52q0 -59 -74 -59h-380q-13 50 -13 71t14 42z" />
    <glyph glyph-name="bracketleft" unicode="[" horiz-adv-x="344" 
d="M309 -142l-203 -7l-7 6v952l7 6l203 -7q4 -12 4 -30t-8 -45l-102 -3v-794l102 -3q8 -27 8 -45t-4 -30z" />
    <glyph glyph-name="backslash" unicode="\" horiz-adv-x="422" 
d="M326 -111l-316 839q39 30 89 33l316 -838q-38 -29 -89 -34z" />
    <glyph glyph-name="bracketright" unicode="]" horiz-adv-x="344" 
d="M237 -149l-202 7q-4 12 -4 30t8 45l102 3v794l-102 3q-8 27 -8 45t4 30l202 7l7 -6v-952z" />
    <glyph glyph-name="asciicircum" unicode="^" 
d="M321 648l165 -342q-18 -5 -49.5 -5t-52.5 5l-82 176q-11 26 -34 84h-6q-23 -58 -34 -84l-82 -176q-21 -5 -52.5 -5t-49.5 5l165 342q20 5 56 5t56 -5z" />
    <glyph glyph-name="underscore" unicode="_" 
d="M530 -155h-530q-5 15 -5 40t5 41h530q4 -17 4 -41t-4 -40z" />
    <glyph glyph-name="grave" unicode="`" horiz-adv-x="398" 
d="M136 739l144 -159q-14 -33 -45 -42l-171 133q8 22 28.5 41t43.5 27z" />
    <glyph glyph-name="a" unicode="a" horiz-adv-x="507" 
d="M461 46q-12 -36 -39 -53q-59 11 -80 62q-71 -68 -146 -68q-38 0 -66.5 12t-48 32.5t-29 47t-9.5 55.5q0 82 52.5 124t139.5 42q25 0 49 -1.5t47 -5.5v39q0 89 -82 89q-57 0 -157 -38q-29 25 -30 75q102 46 207 46q78 0 121 -41.5t43 -125.5v-205q0 -62 28 -86zM213 69
q64 0 118 60v95q-20 2 -42 3t-46 1q-46 0 -71.5 -22.5t-25.5 -59.5q0 -36 18 -56.5t49 -20.5z" />
    <glyph glyph-name="b" unicode="b" horiz-adv-x="528" 
d="M78 25v704l6 6h39q31 0 43.5 -15.5t12.5 -50.5v-218q60 51 138 51q80 0 123.5 -69t43.5 -192q0 -58 -17 -104t-47 -78.5t-70.5 -49.5t-87.5 -17q-96 0 -184 33zM288 416q-60 0 -109 -57v-278q37 -12 86 -12q50 0 82 47t32 133q0 87 -24.5 127t-66.5 40z" />
    <glyph glyph-name="c" unicode="c" horiz-adv-x="471" 
d="M339 303v11q0 113 -88 113q-48 0 -74 -46t-26 -137q0 -172 113 -172q56 0 121 50q14 -8 27 -26t17 -35q-74 -74 -179 -74q-53 0 -91.5 19.5t-64 54.5t-38 84t-12.5 108q0 61 17 108.5t45.5 79.5t66 49t79.5 17q43 0 76.5 -13t57 -34t36 -48.5t12.5 -55.5q0 -57 -52 -57
q-26 0 -43 4z" />
    <glyph glyph-name="d" unicode="d" 
d="M236 502q54 0 113 -33v260l7 6h39q31 0 43 -15t12 -51v-528q0 -70 28 -95q-4 -14 -15 -30t-23 -23q-57 11 -79 62q-59 -68 -144 -68t-129 68.5t-44 190.5q0 61 15.5 108.5t41.5 80.5t61 50t74 17zM240 73q65 0 109 63v248q-56 36 -97 36q-45 0 -74 -45t-29 -133
q0 -87 26 -128t65 -41z" />
    <glyph glyph-name="e" unicode="e" horiz-adv-x="500" 
d="M444 214h-294q3 -69 29.5 -106t89.5 -37q30 0 64.5 9t71.5 29q25 -23 33 -66q-80 -56 -188 -56q-57 0 -96 20t-63.5 55t-35.5 83.5t-11 104.5q0 55 14 102.5t40 81.5t64.5 53.5t86.5 19.5t85.5 -16t63.5 -44.5t39.5 -68t13.5 -85.5q0 -20 -1.5 -39.5t-5.5 -39.5zM252 430
q-95 0 -102 -141h202v13q0 57 -24.5 92.5t-75.5 35.5z" />
    <glyph glyph-name="f" unicode="f" horiz-adv-x="333" 
d="M101 0v420l-86 -2q-2 8 -3 18t-1 20q0 23 4 39l81 -1q-6 61 -6 89q0 34 10.5 62.5t30.5 49.5t48 32.5t63 11.5q70 0 130 -23q0 -45 -24 -70q-23 7 -43.5 11t-37.5 4q-42 0 -60.5 -22.5t-18.5 -67.5q0 -17 2 -36t5 -42l141 2q2 -9 3 -18.5t1 -20.5q0 -10 -1 -20t-3 -18
l-134 2v-420q-11 -2 -24 -3t-27 -1t-27 1t-23 3z" />
    <glyph glyph-name="g" unicode="g" horiz-adv-x="528" 
d="M372 455q22 35 69 46q12 -8 23.5 -24t14.5 -29q-28 -27 -28 -95v-296q0 -77 -12.5 -130t-38.5 -85.5t-66 -47t-96 -14.5q-89 0 -173 33q1 48 27 78q63 -31 136 -31q71 0 97 36.5t26 102.5v46q-59 -54 -139 -54q-79 0 -123.5 69t-44.5 190q0 61 15 108.5t42 80.5
t61.5 50.5t73.5 17.5q80 0 136 -52zM351 136v243q-50 45 -98 45t-76 -45t-28 -133q0 -87 25 -128t65 -41q62 0 112 59z" />
    <glyph glyph-name="h" unicode="h" horiz-adv-x="544" 
d="M470 338v-232q0 -60 16 -91q-28 -22 -61 -22t-45.5 16.5t-12.5 49.5v254q0 52 -13.5 74t-46.5 22t-67.5 -17t-60.5 -45v-347q-10 -2 -23 -3t-27 -1t-27.5 1t-23.5 3v729l6 6h40q31 0 43 -15t12 -51v-233q73 66 158 66q67 0 100 -44.5t33 -119.5z" />
    <glyph glyph-name="i" unicode="i" horiz-adv-x="271" 
d="M195 408v-408q-19 -4 -51.5 -4t-51.5 4v366q0 28 -10 40t-34 12h-11q-5 22 -5 37t5 38q33 4 63 4h14q38 0 59.5 -24t21.5 -65zM70 587q-9 18 -9 44q0 41 15 48.5t50 8.5q40 -1 51 -10t12 -47q-1 -36 -12 -46t-51 -11q-39 0 -56 13z" />
    <glyph glyph-name="j" unicode="j" horiz-adv-x="278" 
d="M201 408v-390q0 -70 -9 -112.5t-27 -67.5t-45 -36.5t-63 -20.5q-26 24 -30 63q21 10 35 21t22 25.5t11.5 33t3.5 44.5v398q0 28 -9.5 40t-33.5 12h-20q-3 11 -4 19.5t-1 17.5q0 8 1 17t4 21q18 2 36 3t37 1h13q37 0 58 -23.5t21 -65.5zM76 587q-9 18 -9 44
q0 36 10.5 45.5t54.5 11.5q34 -3 47 -7.5t16 -49.5q-3 -42 -13 -48t-50 -9q-39 0 -56 13z" />
    <glyph glyph-name="k" unicode="k" horiz-adv-x="502" 
d="M403 186l34 -83q23 -61 48 -78q-28 -32 -69 -32q-26 0 -40 13.5t-26 44.5l-40 98q-16 39 -33.5 52.5t-41.5 13.5t-56 -2v-213q-19 -4 -50 -4t-51 4v729l6 6h40q31 0 43 -15t12 -51v-370l34 2q16 0 24 14l88 138q25 44 64 44t58 -1l6 -8l-109 -173q-15 -24 -33 -39
q62 -16 92 -90z" />
    <glyph glyph-name="l" unicode="l" horiz-adv-x="294" 
d="M217 77h37q9 -25 9 -44t-3 -30q-40 -7 -85 -7q-99 0 -99 103v630l7 6h39q31 0 43.5 -15.5t12.5 -50.5v-547q0 -45 39 -45z" />
    <glyph glyph-name="m" unicode="m" horiz-adv-x="797" 
d="M349 313q0 51 -14.5 73.5t-45.5 22.5q-54 0 -108 -61v-348q-17 -4 -51 -4q-16 0 -29 1t-23 3v491l6 7h39q54 0 57 -63q71 68 147 68q77 0 109 -74q82 74 159 74q63 0 96 -44t33 -113v-240q0 -62 16 -91q-28 -22 -65 -22q-55 0 -55 66v255q0 51 -14.5 73t-45.5 22
q-54 0 -108 -61v-348q-10 -2 -23.5 -3t-28.5 -1q-14 0 -28 1t-23 3v313z" />
    <glyph glyph-name="n" unicode="n" horiz-adv-x="546" 
d="M472 339v-233q0 -59 17 -91q-26 -22 -61 -22q-34 0 -46.5 16.5t-12.5 49.5v254q0 52 -13.5 74t-46.5 22t-67.5 -16.5t-60.5 -45.5v-347q-17 -4 -51 -4q-16 0 -29 1t-23 3v492l6 6h39q54 0 57 -62q73 67 159 67q67 0 100 -44.5t33 -119.5z" />
    <glyph glyph-name="o" unicode="o" horiz-adv-x="520" 
d="M405 42q-55 -55 -145 -55q-52 0 -92 18.5t-67.5 53t-42 82t-14.5 106.5q0 58 14.5 106t42 82.5t67.5 53t92 18.5t92 -18.5t67.5 -53t42 -82.5t14.5 -106q0 -134 -71 -205zM260 428q-109 0 -109 -181t109 -181q110 0 110 181t-110 181z" />
    <glyph glyph-name="p" unicode="p" 
d="M294 -9q-56 0 -114 33v-173q0 -35 -12.5 -50.5t-43.5 -15.5h-40l-6 6v701l6 6h32q50 0 61 -51q58 60 139 60q40 0 72 -18t53.5 -52t33 -81.5t11.5 -107.5t-15 -108t-41.5 -81t-61.5 -50.5t-74 -17.5zM290 420q-65 0 -110 -65v-245q26 -17 50.5 -26.5t46.5 -9.5
q47 0 75.5 46t28.5 131q0 87 -26 128t-65 41z" />
    <glyph glyph-name="q" unicode="q" horiz-adv-x="529" 
d="M350 -149v192q-58 -52 -138 -52q-79 0 -123.5 69t-44.5 190q0 61 15.5 108.5t42 80.5t61 50.5t73.5 17.5q77 0 136 -51q24 34 68 45q12 -7 23.5 -23t15.5 -30q-28 -25 -28 -95v-562l-6 -6h-39q-32 0 -44 15t-12 51zM239 77q62 0 111 58v245q-52 44 -97 44
q-46 0 -75 -44.5t-29 -132.5q0 -87 25.5 -128.5t64.5 -41.5z" />
    <glyph glyph-name="r" unicode="r" horiz-adv-x="368" 
d="M50 446q10 37 38 55q69 -15 91 -89q40 89 131 89q24 0 53 -6q0 -58 -25 -98q-9 3 -41 5q-68 0 -107 -76v-326q-19 -4 -51.5 -4t-51.5 4v343q0 68 -37 103z" />
    <glyph glyph-name="s" unicode="s" horiz-adv-x="438" 
d="M31 37q1 17 11 38.5t23 33.5q80 -44 130 -44q51 0 75.5 17t24.5 45q0 44 -63 68l-56 21q-127 48 -127 143q0 69 49.5 108.5t129.5 39.5q81 0 161 -36q0 -20 -8.5 -42t-22.5 -34q-71 33 -133 33q-33 0 -52.5 -16t-19.5 -40t14.5 -37t47.5 -26l60 -23q127 -49 127 -150
q0 -69 -53 -109t-144 -40t-174 50z" />
    <glyph glyph-name="t" unicode="t" horiz-adv-x="350" 
d="M321 495q5 -17 5 -39t-5 -38l-123 2v-299q0 -44 41 -44h69q8 -22 8 -44.5t-2 -29.5q-58 -7 -112 -7q-105 0 -105 103v320l-74 -1q-4 17 -4 37.5t4 39.5l74 -2v88q0 36 12 51t43 15h39l7 -7v-148z" />
    <glyph glyph-name="u" unicode="u" horiz-adv-x="547" 
d="M74 155v233q0 60 -17 90q25 22 65 22q55 0 55 -65v-255q0 -52 13 -74t46 -22t67 16.5t61 44.5v349q28 4 51 4t53 -4v-354q0 -70 28 -95q-11 -36 -39 -52q-63 11 -84 72q-78 -74 -167 -74q-66 0 -99 45t-33 119z" />
    <glyph glyph-name="v" unicode="v" horiz-adv-x="455" 
d="M236 84l118 410q19 4 44.5 4t46.5 -8l3 -4q-75 -252 -154 -486q-29 -5 -68 -5t-54.5 11t-27.5 46l-138 434q33 15 59 15q45 0 56 -44l67 -220q19 -60 39 -145q2 -8 9 -8z" />
    <glyph glyph-name="w" unicode="w" horiz-adv-x="723" 
d="M126 52l-104 435q31 14 61 14q40 0 48 -42l45 -208q13 -58 33 -166q2 -8 8 -8l84 414q20 5 62.5 5t60.5 -5l82 -406q1 -8 8 -8q14 76 36 174l54 243q16 4 47.5 4t48.5 -8l3 -5l-121 -486q-28 -4 -69.5 -4t-58 11t-22.5 45l-29 139l-38 208h-5q-16 -90 -41 -207l-40 -191
q-38 -5 -75 -5t-53.5 11.5t-24.5 45.5z" />
    <glyph glyph-name="x" unicode="x" horiz-adv-x="460" 
d="M331 494q18 4 44 4t49 -7l3 -8l-141 -221l161 -246q-37 -24 -70 -24t-55 31l-100 153l-108 -177q-12 -4 -43 -4t-53 8l-3 8l157 244l-144 223q32 24 66.5 24t56.5 -31l85 -132z" />
    <glyph glyph-name="y" unicode="y" horiz-adv-x="468" 
d="M456 485l-132 -469q-18 -63 -37.5 -107.5t-45 -72.5t-60 -41t-80.5 -13q-8 0 -24 1t-32 3.5t-28 6t-12 9.5q0 17 6 38t17 32q33 -13 78 -13q43 0 70 30.5t46 93.5l3 12q-32 1 -50 12.5t-27 41.5l-132 437q36 15 63 15q39 0 52 -46l68 -230q5 -16 14 -52.5t23 -94.5
q1 -7 9 -7l110 423q8 2 18.5 3t23.5 1q14 0 28.5 -1.5t27.5 -5.5z" />
    <glyph glyph-name="z" unicode="z" horiz-adv-x="446" 
d="M51 97l163 222q28 38 79 97l-3 4q-42 -6 -132 -6h-105q-4 13 -4 34.5t6 45.5h335q15 -45 15 -60.5t-13 -35.5l-163 -221q-20 -28 -77 -97l3 -4q43 4 92 4h48q76 0 107 14q10 -23 10 -45q0 -49 -65 -49h-298q-14 42 -14 59t16 38z" />
    <glyph glyph-name="braceleft" unicode="{" horiz-adv-x="346" 
d="M42 360q36 11 59 42.5t23 74.5v170q0 69 39 111t103 52l52 9q11 -12 16.5 -34t1.5 -37l-49 -16q-58 -18 -58 -86v-167q0 -48 -22.5 -90t-60.5 -60v-8q38 -17 60.5 -59t22.5 -90v-168q0 -67 58 -86l49 -15q4 -16 -1.5 -38t-16.5 -34l-52 9q-65 11 -103.5 52.5t-38.5 110.5
v171q0 43 -23 74.5t-59 42.5q-4 13 -4 34.5t4 34.5z" />
    <glyph glyph-name="bar" unicode="|" horiz-adv-x="255" 
d="M79 -141v915q19 5 48.5 5t48.5 -5v-915q-20 -4 -48.5 -4t-48.5 4z" />
    <glyph glyph-name="braceright" unicode="}" horiz-adv-x="346" 
d="M304 360q5 -13 5 -34.5t-5 -34.5q-36 -11 -59 -43t-23 -74v-171q0 -69 -38.5 -110.5t-103.5 -52.5l-51 -9q-11 12 -17 34.5t-2 37.5l50 15q57 19 57 86v168q0 48 23 90t60 59v8q-37 18 -60 60t-23 90v167q0 69 -57 86l-50 16q-4 15 2 37t17 34l51 -9q64 -10 103 -52
t39 -111v-170q0 -43 23 -74.5t59 -42.5z" />
    <glyph glyph-name="asciitilde" unicode="~" horiz-adv-x="586" 
d="M276 356l78 -36q31 -12 52 -12q17 -1 31.5 7.5t28.5 24.5l19 22q18 -1 36.5 -12.5t24.5 -27.5l-13 -23q-49 -88 -138 -88q-19 1 -40.5 5t-44.5 15l-79 36q-12 5 -24 8.5t-25 3.5q-33 1 -62 -32l-19 -22q-18 2 -36.5 13t-24.5 27l13 23q49 88 138 88q36 0 85 -20z" />
    <glyph glyph-name="Zcaron" horiz-adv-x="562" 
d="M62 113l252 379q10 15 79 106l-3 3q-44 -8 -156 -8h-161q-4 16 -4 38.5t8 51.5h412q15 -51 15 -70.5t-14 -40.5l-251 -376q-23 -35 -78 -107l3 -3q63 6 120 6h104q80 0 118 19q9 -27 9 -52q0 -59 -74 -59h-380q-13 50 -13 71t14 42zM170 892l112 -74l115 82q14 -5 28 -18
t18 -27l-115 -113q-48 -10 -92 -1l-112 106q12 34 46 45z" />
    <glyph glyph-name="Zcaron" unicode="&#x17d;" horiz-adv-x="562" 
d="M62 113l252 379q10 15 79 106l-3 3q-44 -8 -156 -8h-161q-4 16 -4 38.5t8 51.5h412q15 -51 15 -70.5t-14 -40.5l-251 -376q-23 -35 -78 -107l3 -3q63 6 120 6h104q80 0 118 19q9 -27 9 -52q0 -59 -74 -59h-380q-13 50 -13 71t14 42zM170 892l112 -74l115 82q14 -5 28 -18
t18 -27l-115 -113q-48 -10 -92 -1l-112 106q12 34 46 45z" />
    <glyph glyph-name="zcaron" horiz-adv-x="446" 
d="M51 97l163 222q28 38 79 97l-3 4q-42 -6 -132 -6h-105q-4 13 -4 34.5t6 45.5h335q15 -45 15 -60.5t-13 -35.5l-163 -221q-20 -28 -77 -97l3 -4q43 4 92 4h48q76 0 107 14q10 -23 10 -45q0 -49 -65 -49h-298q-14 42 -14 59t16 38zM130 727l93 -91l101 97q30 -10 48 -43
l-107 -134q-35 -14 -87 -1l-98 126q17 34 50 46z" />
    <glyph glyph-name="zcaron" unicode="&#x17e;" horiz-adv-x="446" 
d="M51 97l163 222q28 38 79 97l-3 4q-42 -6 -132 -6h-105q-4 13 -4 34.5t6 45.5h335q15 -45 15 -60.5t-13 -35.5l-163 -221q-20 -28 -77 -97l3 -4q43 4 92 4h48q76 0 107 14q10 -23 10 -45q0 -49 -65 -49h-298q-14 42 -14 59t16 38zM130 727l93 -91l101 97q30 -10 48 -43
l-107 -134q-35 -14 -87 -1l-98 126q17 34 50 46z" />
    <glyph glyph-name="exclamdown" unicode="&#xa1;" horiz-adv-x="288" 
d="M186 299l12 -466q-41 -30 -110 -30l-7 8l25 488q17 5 40 5q22 0 40 -5zM202 396q-20 -12 -57 -12q-18 0 -30.5 2t-20.5 8t-11 17.5t-3 30.5q0 13 2 26t7 22q11 6 25.5 9t30.5 3q15 0 26.5 -1t21.5 -6.5t14 -18t4 -34.5q0 -33 -9 -46z" />
    <glyph glyph-name="cent" unicode="&#xa2;" horiz-adv-x="468" 
d="M205 -31v99q-43 7 -74 30t-50.5 58t-29 79.5t-9.5 95.5q0 106 46.5 170t119.5 80v100q15 3 40 3t43 -3v-98q33 -5 59 -20t43.5 -35t27 -43.5t9.5 -45.5q0 -61 -55 -61q-9 0 -19 1.5t-21 3.5v14q0 46 -20.5 77.5t-67.5 31.5q-97 0 -97 -178q0 -177 112 -177q59 0 119 51
q34 -21 46 -58q-54 -61 -139 -76v-99q-17 -3 -42 -3q-26 0 -41 3z" />
    <glyph glyph-name="sterling" unicode="&#xa3;" horiz-adv-x="529" 
d="M215 345l184 1q12 -39 0 -79q-113 0 -169 1q0 -91 -65 -182l3 -3q92 5 140 5h184q0 -24 -2 -38q-9 -51 -69 -51h-353q-13 51 -13 72t14 40l16 25q49 71 49 131h-76q-12 38 0 79q9 0 28.5 -0.5t29.5 -0.5q-28 65 -34 92.5t-6 45.5q0 69 52 123.5t147 54.5q118 0 199 -74
q-2 -21 -18 -41t-36 -27q-66 55 -137 55q-45 0 -74 -26t-29 -71q0 -36 16 -80t19 -52z" />
    <glyph glyph-name="currency" unicode="&#xa4;" horiz-adv-x="575" 
d="M103 213q-35 53 -35 120q0 70 34 122l-70 77q18 33 56 57l78 -72q52 33 120 33t121 -33l79 73q35 -20 57 -56l-72 -78q35 -55 35 -122q0 -32 -9 -63t-26 -58l71 -77q-18 -33 -56 -57l-80 73q-50 -32 -119 -32q-67 0 -120 32l-79 -72q-36 21 -56 56zM287 471
q-54 0 -84 -39.5t-30 -97.5q0 -29 8 -53.5t22.5 -43t35.5 -29t48 -10.5t48 10.5t36 29t23 43t8 53.5q0 58 -30.5 97.5t-84.5 39.5z" />
    <glyph glyph-name="yen" unicode="&#xa5;" horiz-adv-x="516" 
d="M459 171h-151v-171q-23 -4 -52.5 -4t-49.5 4v171h-151q-5 22 -5 35t5 36h146l-35 79h-111q-5 22 -5 35t5 36h79l-110 246q36 20 69 20t50 -40l74 -179q16 -36 41 -116h6q24 76 43 117l88 210q23 6 45 6t49 -7l4 -6l-113 -251h79q4 -19 4 -36.5t-4 -34.5h-111l-35 -79h146
q4 -19 4 -36.5t-4 -34.5z" />
    <glyph glyph-name="brokenbar" unicode="&#xa6;" horiz-adv-x="249" 
d="M77 -141v387q17 5 46.5 5t49.5 -5v-387q-21 -4 -49 -4t-47 4zM77 387v387q17 5 46.5 5t49.5 -5v-387q-21 -4 -49 -4t-47 4z" />
    <glyph glyph-name="section" unicode="&#xa7;" horiz-adv-x="485" 
d="M455 304q0 -90 -106 -148q69 -48 69 -115q0 -68 -52.5 -108.5t-141.5 -40.5q-91 0 -158 42q0 19 9.5 40.5t23.5 32.5q73 -36 135 -36q37 0 58.5 16t21.5 43q0 39 -63 65l-58 23q-76 30 -118.5 67.5t-42.5 98.5q0 45 29 83.5t77 64.5q-69 45 -69 113q0 35 14 63t38 47.5
t57 30t71 10.5q77 0 155 -35q0 -21 -8 -42.5t-22 -32.5q-38 17 -69 24t-54 7q-41 0 -59.5 -17.5t-18.5 -41.5q0 -39 63 -64l58 -23q76 -30 118.5 -68.5t42.5 -98.5zM249 382l-39 15q-76 -39 -76 -97q-1 -33 26 -53t78 -40l38 -15q76 39 76 96q0 32 -26 53t-77 41z" />
    <glyph glyph-name="dieresis" unicode="&#xa8;" horiz-adv-x="398" 
d="M244 573q-5 9 -6.5 19t-1.5 20q0 32 12 42t44 10q29 0 42.5 -8t13.5 -44q0 -33 -11.5 -42t-43.5 -9q-30 0 -49 12zM58 573q-5 8 -6.5 18t-1.5 21q0 33 15 42.5t41 9.5q31 0 43.5 -10t12.5 -42t-12.5 -41.5t-44.5 -9.5q-31 0 -47 12z" />
    <glyph glyph-name="copyright" unicode="&#xa9;" horiz-adv-x="802" 
d="M144 84q-104 104 -104 257q0 76 28 142t76.5 114.5t114.5 76.5t141 28q76 0 142 -28t115 -77t77 -114.5t28 -141.5q0 -77 -28 -142.5t-76.5 -114t-114.5 -76t-142 -27.5q-154 0 -257 103zM205 545q-78 -84 -78 -204q0 -59 20.5 -111t57 -91t86.5 -62t110 -23t110 23
t87 62t57.5 91t20.5 111t-21 111.5t-57.5 91.5t-87 62t-109.5 23q-118 0 -196 -84zM472 380v10q0 33 -17 58.5t-55 25.5q-39 0 -61 -34t-22 -98q0 -63 24.5 -96.5t69.5 -33.5q23 0 48.5 10t51.5 31q26 -13 37 -50q-26 -26 -67 -43t-81 -17q-43 0 -75 14.5t-53.5 41.5
t-32.5 64.5t-11 82.5q0 46 14 82.5t38 61.5t55.5 38t66.5 13t62.5 -10.5t47 -28t30 -38.5t10.5 -42q0 -47 -46 -47q-17 0 -34 5z" />
    <glyph glyph-name="ordfeminine" unicode="&#xaa;" horiz-adv-x="424" 
d="M379 342q-2 -12 -13 -25.5t-24 -20.5q-46 7 -65 47q-56 -51 -115 -51q-30 0 -52.5 9.5t-38 25t-23.5 36.5t-8 45q0 66 41.5 97.5t110.5 31.5q11 0 29.5 -1t44.5 -3v28q0 64 -59 64q-55 0 -126 -28q-25 26 -25 63q85 36 156 36q142 0 142 -132v-154q0 -50 25 -68zM179 360
q44 0 87 43v69q-20 2 -35.5 3t-29.5 1q-34 0 -54 -15.5t-20 -44.5q0 -21 13 -38.5t33 -17.5h6z" />
    <glyph glyph-name="guillemotleft" unicode="&#xab;" horiz-adv-x="558" 
d="M517 418l-139 -161l144 -166q-6 -17 -23.5 -33t-35.5 -21l-197 185q-6 13 -6 32.5t6 33.5l193 184q18 -5 35 -21t23 -33zM290 418l-139 -161l144 -166q-6 -17 -23.5 -33t-35.5 -21l-197 185q-6 14 -6 33t6 33l193 184q18 -5 35 -21t23 -33z" />
    <glyph glyph-name="logicalnot" unicode="&#xac;" 
d="M379 256l-48 -1h-280q-4 17 -4 43t4 46h416l6 -7v-222q-19 -4 -45.5 -4t-49.5 4v94z" />
    <glyph glyph-name="uni00AD" unicode="&#xad;" horiz-adv-x="350" 
d="M299 222h-248q-5 17 -5 44.5t5 44.5h248q5 -18 5 -45t-5 -44z" />
    <glyph glyph-name="registered" unicode="&#xae;" horiz-adv-x="593" 
d="M110 295q-76 76 -76 186q0 54 19.5 102t56 83.5t84 56t102.5 20.5q54 0 103 -20.5t84.5 -56t55 -83.5t19.5 -102q0 -55 -20.5 -102.5t-56 -83t-83.5 -56t-102 -20.5q-110 0 -186 76zM158 622q-55 -58 -55 -141q0 -41 14.5 -77t40.5 -63t61 -43t77 -16q41 0 76.5 16
t61.5 43t41 63t15 77q0 40 -15 76.5t-39.5 64t-61.5 43.5t-78 16q-82 0 -138 -59zM398 536q0 -49 -50 -66q16 -6 33 -39l13 -26q10 -19 22 -28q-14 -23 -38 -23q-24 -1 -41 31l-25 46q-11 20 -30 20h-22v-92q-17 -5 -30 -5q-14 0 -31 5v247l3 3q32 1 58.5 1.5t47.5 0.5
q42 0 66 -20.5t24 -54.5zM260 564v-66q16 2 30 2t24 2.5t15.5 8.5t5.5 20q0 33 -37 33h-38z" />
    <glyph glyph-name="macron" unicode="&#xaf;" horiz-adv-x="398" 
d="M340 575h-281q-5 17 -5 41t5 42h281q4 -19 4 -41.5t-4 -41.5z" />
    <glyph glyph-name="degree" unicode="&#xb0;" horiz-adv-x="327" 
d="M163 378q-31 0 -57.5 11t-46 30.5t-30.5 46t-11 58.5t11.5 59.5t31 47t46 30.5t56.5 11q31 0 58 -11.5t46.5 -31t30.5 -47t11 -58.5t-11 -57.5t-30.5 -46t-46 -31t-58.5 -11.5zM115 580q-9 -11 -13.5 -25.5t-4.5 -29.5q0 -33 17.5 -55t48.5 -22q32 0 49.5 22t17.5 54
q0 33 -18.5 55t-48.5 22q-14 0 -26.5 -5t-21.5 -16z" />
    <glyph glyph-name="plusminus" unicode="&#xb1;" 
d="M219 386l-1 50v102q20 4 47.5 4t46.5 -4v-102l-1 -50l47 1h105q4 -20 4 -42.5t-4 -41.5h-105l-47 1l1 -49v-103q-19 -4 -46.5 -4t-47.5 4v103l1 49l-47 -1h-105q-4 19 -4 41.5t4 42.5h105zM463 0h-396q-4 20 -4 42.5t4 43.5h396q4 -21 4 -43.5t-4 -42.5z" />
    <glyph glyph-name="twosuperior" unicode="&#xb2;" horiz-adv-x="420" 
d="M353 418q0 -43 -10 -61.5t-41 -18.5h-218q-29 38 -29 54q0 53 76 116l73 60q22 18 33 35.5t11 37.5q0 23 -15 38t-38 15q-44 0 -67 -56q-18 2 -38.5 11t-28.5 20q14 45 51.5 74.5t94.5 29.5q29 0 54 -10.5t43 -27.5t28 -39t10 -46q0 -49 -20 -80.5t-62 -63.5l-56 -44
q-21 -17 -35.5 -29t-19.5 -23q25 4 46.5 6t38.5 2h119z" />
    <glyph glyph-name="threesuperior" unicode="&#xb3;" horiz-adv-x="420" 
d="M316 680l-58 -57q-11 -11 -29 -22q51 0 86 -34.5t35 -97.5q0 -31 -12.5 -56t-35 -42.5t-53.5 -27t-68 -9.5q-74 0 -130 44q6 35 35 61q26 -18 50 -26t44 -8q36 0 57.5 20.5t21.5 48.5q0 35 -20.5 53t-47.5 18q-12 0 -22.5 -2.5t-18.5 -6.5q-11 5 -21.5 18.5t-13.5 28.5
l79 79q19 19 39 32l-2 3q-11 -2 -30.5 -3.5t-48.5 -1.5h-80q-3 7 -4 16t-1 19q0 22 6 39h244q8 -17 12 -29t4 -22q0 -20 -17 -35z" />
    <glyph glyph-name="acute" unicode="&#xb4;" horiz-adv-x="398" 
d="M123 580l144 159q23 -8 44 -27t29 -41l-171 -133q-14 4 -27 16t-19 26z" />
    <glyph glyph-name="paragraph" unicode="&#xb6;" horiz-adv-x="671" 
d="M287 60v191h-19q-51 0 -92.5 14.5t-71 42.5t-46 69t-16.5 95t16.5 94.5t46.5 67.5t72.5 40.5t94.5 13.5q13 0 41 -1t73 -3l6 -6v-600q0 -134 -47.5 -184t-144.5 -50q-69 0 -130 24q0 48 25 79q29 -10 55 -15.5t48 -5.5q44 0 66.5 29t22.5 105zM457 -133v810l6 6h180
q5 -18 5 -46t-5 -45h-39h-24t-17 1v-726q-12 -2 -26 -3t-28 -1q-15 0 -28 1t-24 3z" />
    <glyph glyph-name="periodcentered" unicode="&#xb7;" horiz-adv-x="305" 
d="M95 333q23 14 58 14q33 0 49.5 -8.5t16.5 -54.5q0 -41 -13 -52t-52 -11q-18 0 -31 2t-22 8t-12 19t-3 34q0 32 9 49z" />
    <glyph glyph-name="cedilla" unicode="&#xb8;" horiz-adv-x="398" 
d="M145 -74q7 22 13 40.5t13 33.5h65q-7 -14 -11 -23t-6 -14q42 -2 67.5 -26t25.5 -64q0 -21 -9.5 -38.5t-25.5 -30t-37.5 -20t-45.5 -7.5q-49 0 -81 20q1 26 21 52q12 -8 24.5 -11t23.5 -3q20 0 33.5 9.5t13.5 24.5q0 24 -12.5 33.5t-30.5 9.5q-14 0 -23 -4q-12 4 -18 18z
" />
    <glyph glyph-name="onesuperior" unicode="&#xb9;" horiz-adv-x="420" 
d="M59 628q51 29 81.5 61t50.5 76q19 5 40.5 5t42.5 -5v-349h83q4 -15 4 -37t-4 -39h-271q-4 19 -4 40t4 36h102v159q0 9 1.5 33.5t1.5 31.5q-29 -40 -93 -68q-32 16 -39 56z" />
    <glyph glyph-name="ordmasculine" unicode="&#xba;" horiz-adv-x="413" 
d="M321 655q56 -61 56 -162q0 -43 -10.5 -79.5t-32 -63.5t-53.5 -42.5t-75 -15.5t-75 15.5t-53 42.5t-31.5 63.5t-10.5 79.5t10 80t31 64.5t53 43t76 15.5q71 0 115 -41zM125 495q0 -133 82 -133q80 0 80 132q0 133 -80 133q-43 0 -62.5 -37t-19.5 -95z" />
    <glyph glyph-name="guillemotright" unicode="&#xbb;" horiz-adv-x="558" 
d="M42 92l138 161l-144 165q6 16 24 32.5t35 21.5l198 -185q13 -33 0 -65l-194 -185q-17 5 -34 21.5t-23 33.5zM269 92l138 161l-144 165q6 16 24 32.5t35 21.5l198 -185q13 -33 0 -65l-194 -185q-17 5 -34 21.5t-23 33.5z" />
    <glyph glyph-name="onequarter" unicode="&#xbc;" horiz-adv-x="946" 
d="M36 547q51 29 81.5 61t50.5 76q19 5 40.5 5t42.5 -5v-349h83q4 -15 4 -37t-4 -39h-271q-4 19 -4 40t4 36h102v159q0 9 1.5 33.5t1.5 31.5q-29 -40 -93 -68q-32 16 -39 56zM270 0l376 683q20 6 53.5 5.5t48.5 -5.5l-377 -683q-20 -6 -53.5 -5.5t-47.5 5.5zM843 207l-1 -51
h61q3 -14 3 -35.5t-7 -38.5h-57v-78q-16 -4 -41 -4t-44 4v42l1 36l-41 -1h-119q-20 32 -20 50.5t15 48.5l117 253q21 2 46 -3.5t38 -16.5l-76 -164q-32 -68 -51 -93l2 -2q25 2 71 2h18q-1 8 -1 24v33q0 29 16 46t42 17h25l3 -3v-66z" />
    <glyph glyph-name="onehalf" unicode="&#xbd;" horiz-adv-x="946" 
d="M36 547q51 29 81.5 61t50.5 76q19 5 40.5 5t42.5 -5v-349h83q4 -15 4 -37t-4 -39h-271q-4 19 -4 40t4 36h102v159q0 9 1.5 33.5t1.5 31.5q-29 -40 -93 -68q-32 16 -39 56zM255 0l376 683q20 6 53.5 5.5t48.5 -5.5l-377 -683q-20 -6 -53.5 -5.5t-47.5 5.5zM897 81
q0 -43 -10 -61.5t-41 -18.5h-218q-29 38 -29 54q0 53 76 116l73 60q22 18 33 35.5t11 37.5q0 23 -15 38t-38 15q-44 0 -67 -56q-18 2 -38.5 11t-28.5 20q14 45 51.5 74.5t94.5 29.5q29 0 54 -10.5t43 -27.5t28 -39t10 -46q0 -49 -20 -80.5t-62 -63.5l-56 -44
q-21 -17 -35.5 -29t-19.5 -23q25 4 46.5 6t38.5 2h119z" />
    <glyph glyph-name="threequarters" unicode="&#xbe;" horiz-adv-x="946" 
d="M316 600l-58 -57q-11 -11 -29 -22q51 0 86 -34.5t35 -97.5q0 -31 -12.5 -56t-35 -42.5t-53.5 -27t-68 -9.5q-74 0 -130 44q6 35 35 61q26 -18 50 -26t44 -8q36 0 57.5 20.5t21.5 48.5q0 35 -20.5 53t-47.5 18q-12 0 -22.5 -2.5t-18.5 -6.5q-11 5 -21.5 18.5t-13.5 28.5
l79 79q19 19 39 32l-2 3q-11 -2 -30.5 -3.5t-48.5 -1.5h-80q-3 7 -4 16t-1 19q0 22 6 39h244q8 -17 12 -29t4 -22q0 -20 -17 -35zM255 0l376 683q20 6 53.5 5.5t48.5 -5.5l-377 -683q-20 -6 -53.5 -5.5t-47.5 5.5zM838 207l-1 -51h61q3 -14 3 -35.5t-7 -38.5h-57v-78
q-16 -4 -41 -4t-44 4v42l1 36l-41 -1h-119q-20 32 -20 50.5t15 48.5l117 253q21 2 46 -3.5t38 -16.5l-76 -164q-32 -68 -51 -93l2 -2q25 2 71 2h18q-1 8 -1 24v33q0 29 16 46t42 17h25l3 -3v-66z" />
    <glyph glyph-name="questiondown" unicode="&#xbf;" horiz-adv-x="396" 
d="M388 -153q-95 -51 -186 -51t-141 46.5t-50 124.5q0 120 131 194l62 35l8 101q7 3 18 4.5t22 1.5q25 0 40 -6l6 -149l-9 -11l-49 -24q-63 -31 -90.5 -67t-27.5 -73q0 -36 26.5 -60.5t74.5 -24.5q26 0 58 8.5t69 28.5q14 -12 25.5 -35t12.5 -43zM308 396q-21 -12 -58 -12
q-16 0 -28 1.5t-20.5 7t-12 17t-3.5 32.5q0 22 4 34.5t13 17t21 6.5t26 2t26 -1t22.5 -6.5t14 -17.5t3.5 -35q0 -32 -8 -46z" />
    <glyph glyph-name="Agrave" unicode="&#xc0;" horiz-adv-x="611" 
d="M429 166l-60 -1h-137l-58 1l-53 -167q-17 -4 -45 -4t-53 7l-3 5l226 676q21 4 61 4t60 -4l224 -676q-21 -14 -54 -14t-47 12t-24 44zM201 252l51 1h100q41 -1 50 -1l-46 145q-35 112 -53 181h-5q-12 -55 -39 -145zM218 902l203 -120q-8 -39 -31 -54l-218 90q3 24 17 48.5
t29 35.5z" />
    <glyph glyph-name="Aacute" unicode="&#xc1;" horiz-adv-x="611" 
d="M429 166l-60 -1h-137l-58 1l-53 -167q-17 -4 -45 -4t-53 7l-3 5l226 676q21 4 61 4t60 -4l224 -676q-21 -14 -54 -14t-47 12t-24 44zM201 252l51 1h100q41 -1 50 -1l-46 145q-35 112 -53 181h-5q-12 -55 -39 -145zM207 782l203 120q15 -11 29 -35.5t17 -48.5l-218 -90
q-11 7 -20 23t-11 31z" />
    <glyph glyph-name="Acircumflex" unicode="&#xc2;" horiz-adv-x="611" 
d="M429 166l-60 -1h-137l-58 1l-53 -167q-17 -4 -45 -4t-53 7l-3 5l226 676q21 4 61 4t60 -4l224 -676q-21 -14 -54 -14t-47 12t-24 44zM201 252l51 1h100q41 -1 50 -1l-46 145q-35 112 -53 181h-5q-12 -55 -39 -145zM419 737l-113 75l-115 -83q-13 5 -27 18.5t-18 27.5
l114 113q47 9 92 0l112 -106q-5 -16 -18.5 -28.5t-26.5 -16.5z" />
    <glyph glyph-name="Atilde" unicode="&#xc3;" horiz-adv-x="611" 
d="M429 166l-60 -1h-137l-58 1l-53 -167q-17 -4 -45 -4t-53 7l-3 5l226 676q21 4 61 4t60 -4l224 -676q-21 -14 -54 -14t-47 12t-24 44zM201 252l51 1h100q41 -1 50 -1l-46 145q-35 112 -53 181h-5q-12 -55 -39 -145zM318 756l-56 27q-9 4 -17 6.5t-16 2.5q-11 1 -19.5 -5.5
t-19.5 -19.5l-12 -14q-15 0 -30.5 9t-21.5 22l9 20q16 35 44 54t60 19q29 0 57 -16l56 -26q7 -4 14.5 -6.5t15.5 -2.5q20 -1 42 25l12 14q37 -1 52 -32l-9 -19q-34 -73 -102 -73q-25 0 -59 15z" />
    <glyph glyph-name="Adieresis" unicode="&#xc4;" horiz-adv-x="611" 
d="M429 166l-60 -1h-137l-58 1l-53 -167q-17 -4 -45 -4t-53 7l-3 5l226 676q21 4 61 4t60 -4l224 -676q-21 -14 -54 -14t-47 12t-24 44zM201 252l51 1h100q41 -1 50 -1l-46 145q-35 112 -53 181h-5q-12 -55 -39 -145zM364 830q18 12 47 12q28 0 43.5 -8t15.5 -45
q0 -33 -11 -43t-48 -10q-35 0 -46 11.5t-11 41.5q0 11 2.5 22t7.5 19zM153 830q9 6 21.5 9t26.5 3q27 0 43 -8.5t16 -44.5q0 -33 -12 -43t-47 -10q-38 0 -47.5 13.5t-9.5 39.5q0 23 9 41z" />
    <glyph glyph-name="Aring" unicode="&#xc5;" horiz-adv-x="611" 
d="M429 166l-197 -1l-58 1l-53 -167q-8 -2 -19 -3t-23 -1q-14 0 -28 1.5t-28 5.5l-3 5l225 674q-59 32 -59 100q0 23 9 43.5t25 36t38 24.5t48 9q54 0 88 -32.5t34 -80.5q0 -69 -61 -100l224 -674q-22 -14 -54 -14q-33 0 -47 12t-24 44zM201 252l151 1l50 -1l-46 145
q-18 57 -31 101.5t-22 79.5h-5q-12 -54 -39 -145zM307 835q-22 0 -36.5 -15.5t-14.5 -39.5q0 -26 16 -40t39 -14t34 17t11 37q0 21 -11 38t-38 17z" />
    <glyph glyph-name="AE" unicode="&#xc6;" horiz-adv-x="876" 
d="M401 166l-55 -1h-89l-53 1l-81 -167q-20 -4 -49.5 -4t-54.5 7l-4 6l328 665q21 10 64 10h402q4 -21 4 -43.5t-9 -46.5h-301l1 -65v-140l62 1h189q5 -18 5 -44.5t-5 -43.5h-189q-39 0 -62 1v-163q0 -9 -0.5 -25.5t-0.5 -26.5q29 3 66 3h260q0 -27 -3 -41q-7 -50 -68 -50
h-297q-28 0 -44 17.5t-16 48.5v101zM347 253l54 -1v326h-5q-34 -84 -63 -145l-88 -181l41 1h61z" />
    <glyph glyph-name="Ccedilla" unicode="&#xc7;" horiz-adv-x="604" 
d="M262 -74q10 34 21 63q-63 5 -107.5 36t-72.5 79t-41 108.5t-13 125.5q0 90 21 157t57.5 111.5t85.5 67t104 22.5q57 0 102.5 -16t78 -43t49.5 -62t17 -74q0 -60 -60 -60h-10t-14.5 1.5t-13.5 3.5t-6 7q0 31 -8 59.5t-24 50.5t-44 34.5t-66 12.5q-77 0 -117 -69t-40 -198
q0 -128 43 -195.5t127 -67.5t175 76q41 -27 53 -69q-83 -83 -212 -98q-10 -19 -11 -26q42 -2 67.5 -26t25.5 -64q0 -21 -9.5 -38.5t-25.5 -30t-37.5 -20t-45.5 -7.5q-49 0 -81 20q1 26 21 52q22 -14 46 -14q26 0 37.5 11t11.5 28q0 20 -14 29.5t-30 9.5q-12 0 -22 -5
q-12 4 -18 18z" />
    <glyph glyph-name="Egrave" unicode="&#xc8;" horiz-adv-x="566" 
d="M195 138l-1 -51q30 3 66 3h259q0 -27 -3 -41q-9 -50 -68 -50h-297q-28 0 -44.5 17.5t-16.5 48.5v612l7 6h402q3 -16 3 -42.5t-8 -47.5h-300l1 -65v-140l62 1h188q5 -18 5 -44.5t-5 -43.5h-188q-39 0 -62 1v-164zM210 902l203 -120q-8 -39 -31 -54l-218 90q3 24 17 48.5
t29 35.5z" />
    <glyph glyph-name="Eacute" unicode="&#xc9;" horiz-adv-x="566" 
d="M195 138l-1 -51q30 3 66 3h259q0 -27 -3 -41q-9 -50 -68 -50h-297q-28 0 -44.5 17.5t-16.5 48.5v612l7 6h402q3 -16 3 -42.5t-8 -47.5h-300l1 -65v-140l62 1h188q5 -18 5 -44.5t-5 -43.5h-188q-39 0 -62 1v-164zM198 782l203 120q15 -11 29 -35.5t17 -48.5l-218 -90
q-11 7 -20 23t-11 31z" />
    <glyph glyph-name="Ecircumflex" unicode="&#xca;" horiz-adv-x="566" 
d="M195 138l-1 -51q30 3 66 3h259q0 -27 -3 -41q-9 -50 -68 -50h-297q-28 0 -44.5 17.5t-16.5 48.5v612l7 6h402q3 -16 3 -42.5t-8 -47.5h-300l1 -65v-140l62 1h188q5 -18 5 -44.5t-5 -43.5h-188q-39 0 -62 1v-164zM411 737l-113 75l-115 -83q-13 5 -27 18.5t-18 27.5
l114 113q47 9 92 0l112 -106q-5 -16 -18.5 -28.5t-26.5 -16.5z" />
    <glyph glyph-name="Edieresis" unicode="&#xcb;" horiz-adv-x="566" 
d="M195 138l-1 -51q30 3 66 3h259q0 -27 -3 -41q-9 -50 -68 -50h-297q-28 0 -44.5 17.5t-16.5 48.5v612l7 6h402q3 -16 3 -42.5t-8 -47.5h-300l1 -65v-140l62 1h188q5 -18 5 -44.5t-5 -43.5h-188q-39 0 -62 1v-164zM356 830q18 12 47 12q28 0 43.5 -8t15.5 -45
q0 -33 -11 -43t-48 -10q-35 0 -46 11.5t-11 41.5q0 11 2.5 22t7.5 19zM145 830q9 6 21.5 9t26.5 3q27 0 43 -8.5t16 -44.5q0 -33 -12 -43t-47 -10q-38 0 -47.5 13.5t-9.5 39.5q0 23 9 41z" />
    <glyph glyph-name="Igrave" unicode="&#xcc;" horiz-adv-x="294" 
d="M94 0v683q20 4 52.5 4t53.5 -4v-683q-21 -4 -53.5 -4t-52.5 4zM60 902l203 -120q-8 -39 -31 -54l-218 90q3 24 17 48.5t29 35.5z" />
    <glyph glyph-name="Iacute" unicode="&#xcd;" horiz-adv-x="294" 
d="M94 0v683q20 4 52.5 4t53.5 -4v-683q-21 -4 -53.5 -4t-52.5 4zM47 782l203 120q15 -11 29 -35.5t17 -48.5l-218 -90q-11 7 -20 23t-11 31z" />
    <glyph glyph-name="Icircumflex" unicode="&#xce;" horiz-adv-x="294" 
d="M94 0v683q20 4 52.5 4t53.5 -4v-683q-21 -4 -53.5 -4t-52.5 4zM260 737l-113 75l-115 -83q-13 5 -27 18.5t-18 27.5l114 113q47 9 92 0l112 -106q-5 -16 -18.5 -28.5t-26.5 -16.5z" />
    <glyph glyph-name="Idieresis" unicode="&#xcf;" horiz-adv-x="294" 
d="M94 0v683q20 4 52.5 4t53.5 -4v-683q-21 -4 -53.5 -4t-52.5 4zM205 830q18 12 47 12q28 0 43.5 -8t15.5 -45q0 -33 -11 -43t-48 -10q-35 0 -46 11.5t-11 41.5q0 11 2.5 22t7.5 19zM-6 830q9 6 21.5 9t26.5 3q27 0 43 -8.5t16 -44.5q0 -33 -12 -43t-47 -10
q-38 0 -47.5 13.5t-9.5 39.5q0 23 9 41z" />
    <glyph glyph-name="Eth" unicode="&#xd0;" horiz-adv-x="664" 
d="M507 46q-15 -12 -36 -21.5t-44.5 -16t-48 -10t-46.5 -3.5q-23 0 -77 1t-142 3l-7 7v296h-77q-2 8 -3 19.5t-1 23.5t1 23.5t3 21.5h77v287l7 7q87 3 220 3q81 0 135 -27t86 -74t45.5 -110t13.5 -135q0 -100 -22 -172t-84 -123zM333 601h-122v-211h154q2 -12 3.5 -23
t1.5 -22q0 -20 -5 -43h-154v-221h122q49 0 81.5 19t52 53.5t27.5 82.5t8 106q0 125 -38 192t-131 67z" />
    <glyph glyph-name="Ntilde" unicode="&#xd1;" horiz-adv-x="680" 
d="M583 687l6 -5v-681q-28 -5 -64 -5t-64 4l-213 419q-32 67 -63 139l-4 -1q9 -155 9 -245v-312q-24 -4 -50 -4t-49 4v682q28 5 63.5 5t63.5 -4l211 -419q14 -30 37 -81.5t29 -63.5l4 1q-8 128 -8 252v249q0 36 12.5 51t44.5 15h35zM354 756l-56 27q-9 4 -17 6.5t-16 2.5
q-11 1 -19.5 -5.5t-19.5 -19.5l-12 -14q-15 0 -30.5 9t-21.5 22l9 20q16 35 44 54t60 19q29 0 57 -16l56 -26q7 -4 14.5 -6.5t15.5 -2.5q20 -1 42 25l12 14q37 -1 52 -32l-9 -19q-34 -73 -102 -73q-25 0 -59 15z" />
    <glyph glyph-name="Ograve" unicode="&#xd2;" horiz-adv-x="658" 
d="M192 521q-17 -42 -24 -85t-7 -89q0 -51 7 -100.5t26 -88.5t52 -62.5t84 -23.5q55 0 87.5 27.5t50 68.5t23 88t5.5 86q0 40 -5.5 87t-22.5 87.5t-50.5 67.5t-88.5 27q-51 0 -85.5 -24t-51.5 -66zM156 47q-107 92 -107 294q0 82 18.5 147.5t54 111.5t87.5 71t120 25
q67 0 119.5 -24.5t87.5 -70.5t53.5 -112t18.5 -148t-18.5 -147.5t-53.5 -111.5t-87.5 -70.5t-119.5 -24.5q-106 0 -173 60zM240 902l203 -120q-8 -39 -31 -54l-218 90q3 24 17 48.5t29 35.5z" />
    <glyph glyph-name="Oacute" unicode="&#xd3;" horiz-adv-x="658" 
d="M192 521q-17 -42 -24 -85t-7 -89q0 -51 7 -100.5t26 -88.5t52 -62.5t84 -23.5q55 0 87.5 27.5t50 68.5t23 88t5.5 86q0 40 -5.5 87t-22.5 87.5t-50.5 67.5t-88.5 27q-51 0 -85.5 -24t-51.5 -66zM156 47q-107 92 -107 294q0 82 18.5 147.5t54 111.5t87.5 71t120 25
q67 0 119.5 -24.5t87.5 -70.5t53.5 -112t18.5 -148t-18.5 -147.5t-53.5 -111.5t-87.5 -70.5t-119.5 -24.5q-106 0 -173 60zM227 782l203 120q15 -11 29 -35.5t17 -48.5l-218 -90q-11 7 -20 23t-11 31z" />
    <glyph glyph-name="Ocircumflex" unicode="&#xd4;" horiz-adv-x="658" 
d="M192 521q-17 -42 -24 -85t-7 -89q0 -51 7 -100.5t26 -88.5t52 -62.5t84 -23.5q55 0 87.5 27.5t50 68.5t23 88t5.5 86q0 40 -5.5 87t-22.5 87.5t-50.5 67.5t-88.5 27q-51 0 -85.5 -24t-51.5 -66zM156 47q-107 92 -107 294q0 82 18.5 147.5t54 111.5t87.5 71t120 25
q67 0 119.5 -24.5t87.5 -70.5t53.5 -112t18.5 -148t-18.5 -147.5t-53.5 -111.5t-87.5 -70.5t-119.5 -24.5q-106 0 -173 60zM441 737l-113 75l-115 -83q-13 5 -27 18.5t-18 27.5l114 113q47 9 92 0l112 -106q-5 -16 -18.5 -28.5t-26.5 -16.5z" />
    <glyph glyph-name="Otilde" unicode="&#xd5;" horiz-adv-x="658" 
d="M192 521q-17 -42 -24 -85t-7 -89q0 -51 7 -100.5t26 -88.5t52 -62.5t84 -23.5q55 0 87.5 27.5t50 68.5t23 88t5.5 86q0 40 -5.5 87t-22.5 87.5t-50.5 67.5t-88.5 27q-51 0 -85.5 -24t-51.5 -66zM156 47q-107 92 -107 294q0 82 18.5 147.5t54 111.5t87.5 71t120 25
q67 0 119.5 -24.5t87.5 -70.5t53.5 -112t18.5 -148t-18.5 -147.5t-53.5 -111.5t-87.5 -70.5t-119.5 -24.5q-106 0 -173 60zM337 756l-56 27q-9 4 -17 6.5t-16 2.5q-11 1 -19.5 -5.5t-19.5 -19.5l-12 -14q-15 0 -30.5 9t-21.5 22l9 20q16 35 44 54t60 19q29 0 57 -16l56 -26
q7 -4 14.5 -6.5t15.5 -2.5q20 -1 42 25l12 14q37 -1 52 -32l-9 -19q-34 -73 -102 -73q-25 0 -59 15z" />
    <glyph glyph-name="Odieresis" unicode="&#xd6;" horiz-adv-x="658" 
d="M192 521q-17 -42 -24 -85t-7 -89q0 -51 7 -100.5t26 -88.5t52 -62.5t84 -23.5q55 0 87.5 27.5t50 68.5t23 88t5.5 86q0 40 -5.5 87t-22.5 87.5t-50.5 67.5t-88.5 27q-51 0 -85.5 -24t-51.5 -66zM156 47q-107 92 -107 294q0 82 18.5 147.5t54 111.5t87.5 71t120 25
q67 0 119.5 -24.5t87.5 -70.5t53.5 -112t18.5 -148t-18.5 -147.5t-53.5 -111.5t-87.5 -70.5t-119.5 -24.5q-106 0 -173 60zM386 830q18 12 47 12q28 0 43.5 -8t15.5 -45q0 -33 -11 -43t-48 -10q-35 0 -46 11.5t-11 41.5q0 11 2.5 22t7.5 19zM175 830q9 6 21.5 9t26.5 3
q27 0 43 -8.5t16 -44.5q0 -33 -12 -43t-47 -10q-38 0 -47.5 13.5t-9.5 39.5q0 23 9 41z" />
    <glyph glyph-name="multiply" unicode="&#xd7;" 
d="M264 230l-128 -130q-17 8 -36.5 26.5t-27.5 38.5q99 98 106 105l23 23l-30 31l-99 98q20 46 64 65l99 -99q27 -30 29 -32q8 7 18 17.5t13 13.5l98 100q43 -19 65 -65l-99 -98q-5 -6 -17 -17t-15 -14q30 -27 32 -29l99 -99q-21 -49 -65 -64l-98 99z" />
    <glyph glyph-name="Oslash" unicode="&#xd8;" horiz-adv-x="659" 
d="M49 342q0 73 17 137.5t52 112.5t87.5 76t124.5 28q76 0 126 -28l40 69q18 -2 38.5 -13t31.5 -25l-46 -80q90 -98 90 -277q0 -72 -16.5 -136.5t-51 -113t-87.5 -77t-125 -28.5q-73 0 -128 28l-38 -68q-18 2 -38.5 13t-31.5 25l44 79q-89 98 -89 278zM190 161l223 428
q-35 24 -84 24t-82 -22.5t-52.5 -60.5t-28 -88.5t-8.5 -105.5q0 -106 32 -175zM468 522l-223 -428q37 -24 86 -24q48 0 80.5 22.5t52 60.5t28 87.5t8.5 104.5q0 105 -32 177z" />
    <glyph glyph-name="Ugrave" unicode="&#xd9;" horiz-adv-x="669" 
d="M587 683v-443q0 -122 -68 -187.5t-185 -65.5q-116 0 -184 65t-68 188v441l6 6h41q32 0 45.5 -16t13.5 -52v-379q0 -82 37 -124.5t109 -42.5q146 0 146 167v443q11 2 25 3t28 1q15 0 29 -1t25 -3zM243 902l203 -120q-8 -39 -31 -54l-218 90q3 24 17 48.5t29 35.5z" />
    <glyph glyph-name="Uacute" unicode="&#xda;" horiz-adv-x="669" 
d="M587 683v-443q0 -122 -68 -187.5t-185 -65.5q-116 0 -184 65t-68 188v441l6 6h41q32 0 45.5 -16t13.5 -52v-379q0 -82 37 -124.5t109 -42.5q146 0 146 167v443q11 2 25 3t28 1q15 0 29 -1t25 -3zM232 782l203 120q15 -11 29 -35.5t17 -48.5l-218 -90q-11 7 -20 23t-11 31
z" />
    <glyph glyph-name="Ucircumflex" unicode="&#xdb;" horiz-adv-x="669" 
d="M587 683v-443q0 -122 -68 -187.5t-185 -65.5q-116 0 -184 65t-68 188v441l6 6h41q32 0 45.5 -16t13.5 -52v-379q0 -82 37 -124.5t109 -42.5q146 0 146 167v443q11 2 25 3t28 1q15 0 29 -1t25 -3zM444 737l-113 75l-115 -83q-13 5 -27 18.5t-18 27.5l114 113q47 9 92 0
l112 -106q-5 -16 -18.5 -28.5t-26.5 -16.5z" />
    <glyph glyph-name="Udieresis" unicode="&#xdc;" horiz-adv-x="669" 
d="M587 683v-443q0 -122 -68 -187.5t-185 -65.5q-116 0 -184 65t-68 188v441l6 6h41q32 0 45.5 -16t13.5 -52v-379q0 -82 37 -124.5t109 -42.5q146 0 146 167v443q11 2 25 3t28 1q15 0 29 -1t25 -3zM391 830q18 12 47 12q28 0 43.5 -8t15.5 -45q0 -33 -11 -43t-48 -10
q-35 0 -46 11.5t-11 41.5q0 11 2.5 22t7.5 19zM180 830q9 6 21.5 9t26.5 3q27 0 43 -8.5t16 -44.5q0 -33 -12 -43t-47 -10q-38 0 -47.5 13.5t-9.5 39.5q0 23 9 41z" />
    <glyph glyph-name="Yacute" unicode="&#xdd;" horiz-adv-x="503" 
d="M303 454l91 229q19 5 46 5t51 -8l5 -7l-190 -454v-219q-23 -4 -55 -4t-52 4v221l-190 450q34 19 61 19t40 -10.5t23 -35.5l79 -192q20 -50 42 -125h5q11 40 44 127zM156 782l203 120q15 -11 29 -35.5t17 -48.5l-218 -90q-11 7 -20 23t-11 31z" />
    <glyph glyph-name="Thorn" unicode="&#xde;" horiz-adv-x="571" 
d="M91 0v683q10 2 24 3t28 1q15 0 29 -1t25 -3v-102q34 1 60 1.5t44 0.5q52 0 94.5 -14t72.5 -41.5t46.5 -68t16.5 -94.5t-16.5 -95t-46.5 -68.5t-72.5 -42t-94.5 -14.5h-104v-145q-11 -2 -25 -3t-29 -1q-14 0 -28 1t-24 3zM197 229l100 1q34 0 57.5 11t38 29t21 42t6.5 52
q0 27 -6.5 51.5t-20.5 42.5t-37 29t-56 11h-58t-45 1v-270z" />
    <glyph glyph-name="germandbls" unicode="&#xdf;" horiz-adv-x="627" 
d="M105 0v391l-86 -1q-2 8 -3 18.5t-1 22.5q0 11 1 22t3 20l86 -2v35q0 93 59.5 143t159.5 50q50 0 90.5 -14t69 -40t44 -63t15.5 -82q0 -38 -15 -78h-2l2 -1q-38 -10 -60 -29.5t-22 -41.5q0 -13 8.5 -27.5t28.5 -31.5l37 -33q74 -66 74 -130q0 -31 -13.5 -57t-37 -44.5
t-56 -29t-70.5 -10.5q-73 0 -133 29q1 18 10.5 40t23.5 34q21 -12 42 -17.5t41 -5.5q35 0 59 16.5t24 42.5q-1 14 -9.5 32t-30.5 37l-41 35q-34 29 -50 57t-16 54q0 36 26.5 68.5t71.5 50.5q4 20 4 35q0 54 -29.5 89t-86.5 35q-113 0 -113 -124v-495q-11 -2 -25 -3t-28 -1
q-15 0 -28.5 1t-23.5 3z" />
    <glyph glyph-name="agrave" unicode="&#xe0;" horiz-adv-x="507" 
d="M461 46q-12 -36 -39 -53q-59 11 -80 62q-71 -68 -146 -68q-38 0 -66.5 12t-48 32.5t-29 47t-9.5 55.5q0 82 52.5 124t139.5 42q25 0 49 -1.5t47 -5.5v39q0 89 -82 89q-57 0 -157 -38q-29 25 -30 75q102 46 207 46q78 0 121 -41.5t43 -125.5v-205q0 -62 28 -86zM213 69
q64 0 118 60v95q-20 2 -42 3t-46 1q-46 0 -71.5 -22.5t-25.5 -59.5q0 -36 18 -56.5t49 -20.5zM184 739l144 -159q-14 -33 -45 -42l-171 133q8 22 28.5 41t43.5 27z" />
    <glyph glyph-name="aacute" unicode="&#xe1;" horiz-adv-x="507" 
d="M461 46q-12 -36 -39 -53q-59 11 -80 62q-71 -68 -146 -68q-38 0 -66.5 12t-48 32.5t-29 47t-9.5 55.5q0 82 52.5 124t139.5 42q25 0 49 -1.5t47 -5.5v39q0 89 -82 89q-57 0 -157 -38q-29 25 -30 75q102 46 207 46q78 0 121 -41.5t43 -125.5v-205q0 -62 28 -86zM213 69
q64 0 118 60v95q-20 2 -42 3t-46 1q-46 0 -71.5 -22.5t-25.5 -59.5q0 -36 18 -56.5t49 -20.5zM169 580l144 159q23 -8 44 -27t29 -41l-171 -133q-14 4 -27 16t-19 26z" />
    <glyph glyph-name="acircumflex" unicode="&#xe2;" horiz-adv-x="507" 
d="M461 46q-12 -36 -39 -53q-59 11 -80 62q-71 -68 -146 -68q-38 0 -66.5 12t-48 32.5t-29 47t-9.5 55.5q0 82 52.5 124t139.5 42q25 0 49 -1.5t47 -5.5v39q0 89 -82 89q-57 0 -157 -38q-29 25 -30 75q102 46 207 46q78 0 121 -41.5t43 -125.5v-205q0 -62 28 -86zM213 69
q64 0 118 60v95q-20 2 -42 3t-46 1q-46 0 -71.5 -22.5t-25.5 -59.5q0 -36 18 -56.5t49 -20.5zM340 546l-93 91l-100 -96q-31 12 -48 43l106 133q38 13 87 1l98 -126q-15 -33 -50 -46z" />
    <glyph glyph-name="atilde" unicode="&#xe3;" horiz-adv-x="507" 
d="M461 46q-12 -36 -39 -53q-59 11 -80 62q-71 -68 -146 -68q-38 0 -66.5 12t-48 32.5t-29 47t-9.5 55.5q0 82 52.5 124t139.5 42q25 0 49 -1.5t47 -5.5v39q0 89 -82 89q-57 0 -157 -38q-29 25 -30 75q102 46 207 46q78 0 121 -41.5t43 -125.5v-205q0 -62 28 -86zM213 69
q64 0 118 60v95q-20 2 -42 3t-46 1q-46 0 -71.5 -22.5t-25.5 -59.5q0 -36 18 -56.5t49 -20.5zM256 571l-55 27q-7 4 -14.5 6.5t-15.5 2.5q-23 1 -41 -25l-11 -14q-15 0 -30 9t-21 23l9 20q33 73 100 73q27 0 57 -15l55 -28q7 -4 14 -6.5t15 -2.5q10 0 20.5 5.5t21.5 20.5
l11 14q15 0 30 -9.5t21 -22.5l-9 -20q-33 -73 -100 -73q-26 0 -57 15z" />
    <glyph glyph-name="adieresis" unicode="&#xe4;" horiz-adv-x="507" 
d="M461 46q-12 -36 -39 -53q-59 11 -80 62q-71 -68 -146 -68q-38 0 -66.5 12t-48 32.5t-29 47t-9.5 55.5q0 82 52.5 124t139.5 42q25 0 49 -1.5t47 -5.5v39q0 89 -82 89q-57 0 -157 -38q-29 25 -30 75q102 46 207 46q78 0 121 -41.5t43 -125.5v-205q0 -62 28 -86zM213 69
q64 0 118 60v95q-20 2 -42 3t-46 1q-46 0 -71.5 -22.5t-25.5 -59.5q0 -36 18 -56.5t49 -20.5zM290 573q-5 9 -6.5 19t-1.5 20q0 32 12 42t44 10q29 0 42.5 -8t13.5 -44q0 -33 -11.5 -42t-43.5 -9q-30 0 -49 12zM104 573q-5 8 -6.5 18t-1.5 21q0 33 15 42.5t41 9.5
q31 0 43.5 -10t12.5 -42t-12.5 -41.5t-44.5 -9.5q-31 0 -47 12z" />
    <glyph glyph-name="aring" unicode="&#xe5;" horiz-adv-x="507" 
d="M461 46q-12 -36 -39 -53q-59 11 -80 62q-71 -68 -146 -68q-38 0 -66.5 12t-48 32.5t-29 47t-9.5 55.5q0 82 52.5 124t139.5 42q25 0 49 -1.5t47 -5.5v39q0 89 -82 89q-57 0 -157 -38q-29 25 -30 75q102 46 207 46q78 0 121 -41.5t43 -125.5v-205q0 -62 28 -86zM213 69
q64 0 118 60v95q-20 2 -42 3t-46 1q-46 0 -71.5 -22.5t-25.5 -59.5q0 -36 18 -56.5t49 -20.5zM245 539q-26 0 -48.5 9t-38.5 24.5t-25 36t-9 43.5q0 24 9 45t25 36t38 24t49 9t49 -9t38 -24t25 -36t9 -45q0 -23 -9 -43.5t-25.5 -36t-38.5 -24.5t-48 -9zM209 691
q-8 -8 -11 -18t-3 -21q0 -23 13.5 -38.5t36.5 -15.5q22 0 36 15.5t14 38.5t-14 39t-36 16t-36 -16z" />
    <glyph glyph-name="ae" unicode="&#xe6;" horiz-adv-x="781" 
d="M726 214h-291q3 -68 28.5 -105.5t87.5 -37.5t137 39q26 -25 32 -67q-77 -56 -189 -56q-111 0 -161 83q-80 -83 -179 -83q-35 0 -62.5 11.5t-46.5 32t-29 47.5t-10 57q0 82 52.5 123.5t139.5 41.5q26 0 49.5 -1.5t46.5 -5.5v40q0 88 -81 88q-62 0 -158 -38q-29 25 -30 75
q102 46 198 46t136 -61q54 64 144 64q45 0 80.5 -16t61 -44.5t39 -68t13.5 -85.5q0 -21 -2 -40.5t-6 -38.5zM213 69q75 0 129 69q-9 37 -12 85q-18 2 -39 3.5t-46 1.5q-49 0 -74 -22.5t-25 -59.5q0 -36 18 -56.5t49 -20.5zM536 430q-94 0 -101 -141h199v12q0 57 -23.5 93
t-74.5 36z" />
    <glyph glyph-name="ccedilla" unicode="&#xe7;" horiz-adv-x="471" 
d="M195 -74q6 28 21 63q-42 5 -74 26t-54 54t-33 76.5t-11 93.5q0 68 17 118.5t45.5 83.5t66 49.5t79.5 16.5q43 0 76.5 -13t57 -34t36 -48.5t12.5 -55.5q0 -57 -52 -57q-26 0 -43 4v11q0 113 -88 113q-48 0 -74 -46t-26 -137q0 -172 113 -172q56 0 121 50q14 -8 27 -26
t17 -35q-61 -61 -149 -72q-10 -19 -11 -26q42 -2 67.5 -26t25.5 -64q0 -21 -9.5 -38.5t-25.5 -30t-37.5 -20t-45.5 -7.5q-49 0 -81 20q2 30 21 52q22 -14 46 -14q26 0 37 11t11 28q0 20 -13.5 29.5t-29.5 9.5q-11 0 -23 -5q-14 6 -17 18z" />
    <glyph glyph-name="egrave" unicode="&#xe8;" horiz-adv-x="500" 
d="M444 214h-294q3 -69 29.5 -106t89.5 -37q30 0 64.5 9t71.5 29q25 -23 33 -66q-80 -56 -188 -56q-57 0 -96 20t-63.5 55t-35.5 83.5t-11 104.5q0 55 14 102.5t40 81.5t64.5 53.5t86.5 19.5t85.5 -16t63.5 -44.5t39.5 -68t13.5 -85.5q0 -20 -1.5 -39.5t-5.5 -39.5zM252 430
q-95 0 -102 -141h202v13q0 57 -24.5 92.5t-75.5 35.5zM195 739l144 -159q-14 -33 -45 -42l-171 133q8 22 28.5 41t43.5 27z" />
    <glyph glyph-name="eacute" unicode="&#xe9;" horiz-adv-x="500" 
d="M444 214h-294q3 -69 29.5 -106t89.5 -37q30 0 64.5 9t71.5 29q25 -23 33 -66q-80 -56 -188 -56q-57 0 -96 20t-63.5 55t-35.5 83.5t-11 104.5q0 55 14 102.5t40 81.5t64.5 53.5t86.5 19.5t85.5 -16t63.5 -44.5t39.5 -68t13.5 -85.5q0 -20 -1.5 -39.5t-5.5 -39.5zM252 430
q-95 0 -102 -141h202v13q0 57 -24.5 92.5t-75.5 35.5zM180 580l144 159q23 -8 44 -27t29 -41l-171 -133q-14 4 -27 16t-19 26z" />
    <glyph glyph-name="ecircumflex" unicode="&#xea;" horiz-adv-x="500" 
d="M444 214h-294q3 -69 29.5 -106t89.5 -37q30 0 64.5 9t71.5 29q25 -23 33 -66q-80 -56 -188 -56q-57 0 -96 20t-63.5 55t-35.5 83.5t-11 104.5q0 55 14 102.5t40 81.5t64.5 53.5t86.5 19.5t85.5 -16t63.5 -44.5t39.5 -68t13.5 -85.5q0 -20 -1.5 -39.5t-5.5 -39.5zM252 430
q-95 0 -102 -141h202v13q0 57 -24.5 92.5t-75.5 35.5zM350 546l-93 91l-100 -96q-31 12 -48 43l106 133q38 13 87 1l98 -126q-15 -33 -50 -46z" />
    <glyph glyph-name="edieresis" unicode="&#xeb;" horiz-adv-x="500" 
d="M444 214h-294q3 -69 29.5 -106t89.5 -37q30 0 64.5 9t71.5 29q25 -23 33 -66q-80 -56 -188 -56q-57 0 -96 20t-63.5 55t-35.5 83.5t-11 104.5q0 55 14 102.5t40 81.5t64.5 53.5t86.5 19.5t85.5 -16t63.5 -44.5t39.5 -68t13.5 -85.5q0 -20 -1.5 -39.5t-5.5 -39.5zM252 430
q-95 0 -102 -141h202v13q0 57 -24.5 92.5t-75.5 35.5zM300 573q-5 9 -6.5 19t-1.5 20q0 32 12 42t44 10q29 0 42.5 -8t13.5 -44q0 -33 -11.5 -42t-43.5 -9q-30 0 -49 12zM114 573q-5 8 -6.5 18t-1.5 21q0 33 15 42.5t41 9.5q31 0 43.5 -10t12.5 -42t-12.5 -41.5t-44.5 -9.5
q-31 0 -47 12z" />
    <glyph glyph-name="igrave" unicode="&#xec;" horiz-adv-x="271" 
d="M195 408v-408q-19 -4 -51.5 -4t-51.5 4v366q0 28 -10 40t-34 12h-11q-5 22 -5 37t5 38q33 4 63 4h14q38 0 59.5 -24t21.5 -65zM65 739l144 -159q-14 -33 -45 -42l-171 133q8 22 28.5 41t43.5 27z" />
    <glyph glyph-name="iacute" unicode="&#xed;" horiz-adv-x="271" 
d="M195 408v-408q-19 -4 -51.5 -4t-51.5 4v366q0 28 -10 40t-34 12h-11q-5 22 -5 37t5 38q33 4 63 4h14q38 0 59.5 -24t21.5 -65zM51 580l144 159q23 -8 44 -27t29 -41l-171 -133q-14 4 -27 16t-19 26z" />
    <glyph glyph-name="icircumflex" unicode="&#xee;" horiz-adv-x="271" 
d="M195 408v-408q-19 -4 -51.5 -4t-51.5 4v366q0 28 -10 40t-34 12h-11q-5 22 -5 37t5 38q33 4 63 4h14q38 0 59.5 -24t21.5 -65zM221 546l-93 91l-100 -96q-31 12 -48 43l106 133q38 13 87 1l98 -126q-15 -33 -50 -46z" />
    <glyph glyph-name="idieresis" unicode="&#xef;" horiz-adv-x="271" 
d="M195 408v-408q-19 -4 -51.5 -4t-51.5 4v366q0 28 -10 40t-34 12h-11q-5 22 -5 37t5 38q33 4 63 4h14q38 0 59.5 -24t21.5 -65zM171 573q-5 9 -6.5 19t-1.5 20q0 32 12 42t44 10q29 0 42.5 -8t13.5 -44q0 -33 -11.5 -42t-43.5 -9q-30 0 -49 12zM-15 573q-5 8 -6.5 18
t-1.5 21q0 33 15 42.5t41 9.5q31 0 43.5 -10t12.5 -42t-12.5 -41.5t-44.5 -9.5q-31 0 -47 12z" />
    <glyph glyph-name="eth" unicode="&#xf0;" horiz-adv-x="517" 
d="M111 572l86 59q-17 14 -37 26.5t-43 24.5q3 19 15 38.5t26 27.5q63 -27 114 -66l87 60q33 -25 37 -54l-73 -50q151 -151 151 -393q0 -58 -14.5 -105.5t-42 -81.5t-68 -52.5t-91.5 -18.5q-52 0 -92 19t-67.5 52.5t-42 79.5t-14.5 100t14.5 99.5t41.5 79t66 52t89 18.5
q33 0 72 -17q-23 61 -77 116l-99 -69q-30 22 -38 55zM368 245q0 81 -16 135q-44 30 -93 30q-110 0 -110 -173q0 -172 109 -172q110 0 110 180z" />
    <glyph glyph-name="ntilde" unicode="&#xf1;" horiz-adv-x="546" 
d="M472 339v-233q0 -59 17 -91q-26 -22 -61 -22q-34 0 -46.5 16.5t-12.5 49.5v254q0 52 -13.5 74t-46.5 22t-67.5 -16.5t-60.5 -45.5v-347q-17 -4 -51 -4q-16 0 -29 1t-23 3v492l6 6h39q54 0 57 -62q73 67 159 67q67 0 100 -44.5t33 -119.5zM289 571l-55 27q-7 4 -14.5 6.5
t-15.5 2.5q-23 1 -41 -25l-11 -14q-15 0 -30 9t-21 23l9 20q33 73 100 73q27 0 57 -15l55 -28q7 -4 14 -6.5t15 -2.5q10 0 20.5 5.5t21.5 20.5l11 14q15 0 30 -9.5t21 -22.5l-9 -20q-33 -73 -100 -73q-26 0 -57 15z" />
    <glyph glyph-name="ograve" unicode="&#xf2;" horiz-adv-x="520" 
d="M405 42q-55 -55 -145 -55q-52 0 -92 18.5t-67.5 53t-42 82t-14.5 106.5q0 58 14.5 106t42 82.5t67.5 53t92 18.5t92 -18.5t67.5 -53t42 -82.5t14.5 -106q0 -134 -71 -205zM260 428q-109 0 -109 -181t109 -181q110 0 110 181t-110 181zM199 739l144 -159q-14 -33 -45 -42
l-171 133q8 22 28.5 41t43.5 27z" />
    <glyph glyph-name="oacute" unicode="&#xf3;" horiz-adv-x="520" 
d="M405 42q-55 -55 -145 -55q-52 0 -92 18.5t-67.5 53t-42 82t-14.5 106.5q0 58 14.5 106t42 82.5t67.5 53t92 18.5t92 -18.5t67.5 -53t42 -82.5t14.5 -106q0 -134 -71 -205zM260 428q-109 0 -109 -181t109 -181q110 0 110 181t-110 181zM184 580l144 159q23 -8 44 -27
t29 -41l-171 -133q-14 4 -27 16t-19 26z" />
    <glyph glyph-name="ocircumflex" unicode="&#xf4;" horiz-adv-x="520" 
d="M405 42q-55 -55 -145 -55q-52 0 -92 18.5t-67.5 53t-42 82t-14.5 106.5q0 58 14.5 106t42 82.5t67.5 53t92 18.5t92 -18.5t67.5 -53t42 -82.5t14.5 -106q0 -134 -71 -205zM260 428q-109 0 -109 -181t109 -181q110 0 110 181t-110 181zM355 546l-93 91l-100 -96
q-31 12 -48 43l106 133q38 13 87 1l98 -126q-15 -33 -50 -46z" />
    <glyph glyph-name="otilde" unicode="&#xf5;" horiz-adv-x="520" 
d="M405 42q-55 -55 -145 -55q-52 0 -92 18.5t-67.5 53t-42 82t-14.5 106.5q0 58 14.5 106t42 82.5t67.5 53t92 18.5t92 -18.5t67.5 -53t42 -82.5t14.5 -106q0 -134 -71 -205zM260 428q-109 0 -109 -181t109 -181q110 0 110 181t-110 181zM271 571l-55 27q-7 4 -14.5 6.5
t-15.5 2.5q-23 1 -41 -25l-11 -14q-15 0 -30 9t-21 23l9 20q33 73 100 73q27 0 57 -15l55 -28q7 -4 14 -6.5t15 -2.5q10 0 20.5 5.5t21.5 20.5l11 14q15 0 30 -9.5t21 -22.5l-9 -20q-33 -73 -100 -73q-26 0 -57 15z" />
    <glyph glyph-name="odieresis" unicode="&#xf6;" horiz-adv-x="520" 
d="M405 42q-55 -55 -145 -55q-52 0 -92 18.5t-67.5 53t-42 82t-14.5 106.5q0 58 14.5 106t42 82.5t67.5 53t92 18.5t92 -18.5t67.5 -53t42 -82.5t14.5 -106q0 -134 -71 -205zM260 428q-109 0 -109 -181t109 -181q110 0 110 181t-110 181zM305 573q-5 9 -6.5 19t-1.5 20
q0 32 12 42t44 10q29 0 42.5 -8t13.5 -44q0 -33 -11.5 -42t-43.5 -9q-30 0 -49 12zM119 573q-5 8 -6.5 18t-1.5 21q0 33 15 42.5t41 9.5q31 0 43.5 -10t12.5 -42t-12.5 -41.5t-44.5 -9.5q-31 0 -47 12z" />
    <glyph glyph-name="divide" unicode="&#xf7;" 
d="M213 429q-9 18 -9 41t9 44q21 12 53 12q18 0 30 -3t18.5 -8t9 -16t2.5 -29q-3 -38 -13 -44.5t-48 -8.5q-36 0 -52 12zM213 72q-9 19 -9 43q0 18 4.5 30t12 16t19 6t26.5 2q32 -2 45 -7.5t15 -46.5q0 -12 -2 -22.5t-4.5 -17.5t-17.5 -11t-36 -4q-34 0 -53 12zM474 250
h-418q-2 8 -3 19.5t-1 23.5q0 26 4 46h418q4 -20 4 -46q0 -12 -1 -23.5t-3 -19.5z" />
    <glyph glyph-name="oslash" unicode="&#xf8;" horiz-adv-x="522" 
d="M407 451q70 -70 70 -205q0 -59 -14.5 -106.5t-42 -81.5t-68 -52.5t-92.5 -18.5q-51 0 -91 18l-36 -61q-38 5 -59 33l38 67q-67 67 -67 203q0 59 14.5 107t42 82t67.5 52.5t91 18.5q50 0 91 -18l35 61q38 -6 59 -33zM359 363l-151 -287q22 -13 53 -13q32 0 54.5 14.5
t36.5 39t20 57.5t6 69q0 76 -19 120zM161 134l150 285q-24 12 -50 12q-32 0 -54.5 -14t-36.5 -38.5t-20.5 -57t-6.5 -69.5q0 -75 18 -118z" />
    <glyph glyph-name="ugrave" unicode="&#xf9;" horiz-adv-x="547" 
d="M74 155v233q0 60 -17 90q25 22 65 22q55 0 55 -65v-255q0 -52 13 -74t46 -22t67 16.5t61 44.5v349q28 4 51 4t53 -4v-354q0 -70 28 -95q-11 -36 -39 -52q-63 11 -84 72q-78 -74 -167 -74q-66 0 -99 45t-33 119zM207 739l144 -159q-14 -33 -45 -42l-171 133q8 22 28.5 41
t43.5 27z" />
    <glyph glyph-name="uacute" unicode="&#xfa;" horiz-adv-x="547" 
d="M74 155v233q0 60 -17 90q25 22 65 22q55 0 55 -65v-255q0 -52 13 -74t46 -22t67 16.5t61 44.5v349q28 4 51 4t53 -4v-354q0 -70 28 -95q-11 -36 -39 -52q-63 11 -84 72q-78 -74 -167 -74q-66 0 -99 45t-33 119zM193 580l144 159q23 -8 44 -27t29 -41l-171 -133
q-14 4 -27 16t-19 26z" />
    <glyph glyph-name="ucircumflex" unicode="&#xfb;" horiz-adv-x="547" 
d="M74 155v233q0 60 -17 90q25 22 65 22q55 0 55 -65v-255q0 -52 13 -74t46 -22t67 16.5t61 44.5v349q28 4 51 4t53 -4v-354q0 -70 28 -95q-11 -36 -39 -52q-63 11 -84 72q-78 -74 -167 -74q-66 0 -99 45t-33 119zM363 546l-93 91l-100 -96q-31 12 -48 43l106 133
q38 13 87 1l98 -126q-15 -33 -50 -46z" />
    <glyph glyph-name="udieresis" unicode="&#xfc;" horiz-adv-x="547" 
d="M74 155v233q0 60 -17 90q25 22 65 22q55 0 55 -65v-255q0 -52 13 -74t46 -22t67 16.5t61 44.5v349q28 4 51 4t53 -4v-354q0 -70 28 -95q-11 -36 -39 -52q-63 11 -84 72q-78 -74 -167 -74q-66 0 -99 45t-33 119zM313 573q-5 9 -6.5 19t-1.5 20q0 32 12 42t44 10
q29 0 42.5 -8t13.5 -44q0 -33 -11.5 -42t-43.5 -9q-30 0 -49 12zM127 573q-5 8 -6.5 18t-1.5 21q0 33 15 42.5t41 9.5q31 0 43.5 -10t12.5 -42t-12.5 -41.5t-44.5 -9.5q-31 0 -47 12z" />
    <glyph glyph-name="yacute" unicode="&#xfd;" horiz-adv-x="468" 
d="M456 485l-132 -469q-18 -63 -37.5 -107.5t-45 -72.5t-60 -41t-80.5 -13q-8 0 -24 1t-32 3.5t-28 6t-12 9.5q0 17 6 38t17 32q33 -13 78 -13q43 0 70 30.5t46 93.5l3 12q-32 1 -50 12.5t-27 41.5l-132 437q36 15 63 15q39 0 52 -46l68 -230q5 -16 14 -52.5t23 -94.5
q1 -7 9 -7l110 423q8 2 18.5 3t23.5 1q14 0 28.5 -1.5t27.5 -5.5zM158 580l144 159q23 -8 44 -27t29 -41l-171 -133q-14 4 -27 16t-19 26z" />
    <glyph glyph-name="thorn" unicode="&#xfe;" horiz-adv-x="528" 
d="M294 -9q-58 0 -116 33v-173q0 -36 -12 -51t-44 -15h-38l-6 6v938l6 6h38q32 0 44 -15t12 -51v-223q59 56 136 56q80 0 125 -68.5t45 -187.5q0 -60 -15.5 -107.5t-41.5 -80t-60.5 -50t-72.5 -17.5zM288 416q-65 0 -110 -65v-241q56 -36 98 -36q47 0 75 45.5t28 130.5
t-26 125.5t-65 40.5z" />
    <glyph glyph-name="ydieresis" unicode="&#xff;" horiz-adv-x="468" 
d="M456 485l-132 -469q-18 -63 -37.5 -107.5t-45 -72.5t-60 -41t-80.5 -13q-8 0 -24 1t-32 3.5t-28 6t-12 9.5q0 17 6 38t17 32q33 -13 78 -13q43 0 70 30.5t46 93.5l3 12q-32 1 -50 12.5t-27 41.5l-132 437q36 15 63 15q39 0 52 -46l68 -230q5 -16 14 -52.5t23 -94.5
q1 -7 9 -7l110 423q8 2 18.5 3t23.5 1q14 0 28.5 -1.5t27.5 -5.5zM278 573q-5 9 -6.5 19t-1.5 20q0 32 12 42t44 10q29 0 42.5 -8t13.5 -44q0 -33 -11.5 -42t-43.5 -9q-30 0 -49 12zM92 573q-5 8 -6.5 18t-1.5 21q0 33 15 42.5t41 9.5q31 0 43.5 -10t12.5 -42t-12.5 -41.5
t-44.5 -9.5q-31 0 -47 12z" />
    <glyph glyph-name="Aogonek" unicode="&#x104;" horiz-adv-x="611" 
d="M232 165h-58l-53 -166q-8 -2 -19 -3t-23 -1q-14 0 -28 1.5t-28 5.5l-3 5l226 676q19 4 61 4q43 0 60 -4l224 -676q-88 -55 -88 -110q0 -21 13.5 -33.5t36.5 -12.5q26 0 57 17q22 -16 24 -50q-41 -35 -97 -35q-57 0 -87 25t-30 68q0 65 72 127q-15 11 -26 46l-37 117
l-60 -1h-137zM201 252l151 1q20 -1 50 -1l-46 145q-18 57 -31 101.5t-22 79.5h-5l-16 -64t-23 -81z" />
    <glyph glyph-name="aogonek" unicode="&#x105;" horiz-adv-x="537" 
d="M466 -132q22 -16 24 -50q-41 -35 -97 -35q-57 0 -86.5 25t-29.5 68q0 79 92 144q-17 17 -26 36q-71 -69 -147 -69q-38 0 -66.5 12t-48 32.5t-29 47t-9.5 55.5q0 82 52.5 124t139.5 42q25 0 49 -1.5t47 -5.5v39q0 89 -82 89q-57 0 -157 -38q-29 25 -30 75q102 46 207 46
q78 0 121 -41.5t43 -125.5v-205q0 -58 32 -84q-9 -29 -45 -59q-61 -51 -61 -92q0 -21 13.5 -33.5t36.5 -12.5q26 0 57 17zM213 69q64 0 118 60v95q-20 2 -42 3t-46 1q-46 0 -71.5 -22.5t-25.5 -59.5q0 -36 18 -56.5t49 -20.5z" />
    <glyph glyph-name="Cacute" unicode="&#x106;" horiz-adv-x="604" 
d="M460 447q0 32 -7.5 61.5t-24.5 52t-44 36t-66 13.5q-77 0 -117 -69t-40 -198q0 -128 43 -195.5t127 -67.5t175 76q41 -27 53 -69q-22 -22 -50.5 -40t-60 -31.5t-65 -21t-65.5 -7.5q-77 0 -129 29.5t-81.5 78t-44 112t-14.5 131.5q0 90 21 157t57.5 111.5t85.5 67
t104 22.5q57 0 102.5 -16t78 -43t49.5 -62t17 -74q0 -60 -60 -60q-19 0 -44 6zM221 782l203 120q15 -11 29 -35.5t17 -48.5l-218 -90q-11 7 -20 23t-11 31z" />
    <glyph glyph-name="cacute" unicode="&#x107;" horiz-adv-x="471" 
d="M339 303v11q0 113 -88 113q-48 0 -74 -46t-26 -137q0 -172 113 -172q56 0 121 50q14 -8 27 -26t17 -35q-74 -74 -179 -74q-53 0 -91.5 19.5t-64 54.5t-38 84t-12.5 108q0 61 17 108.5t45.5 79.5t66 49t79.5 17q43 0 76.5 -13t57 -34t36 -48.5t12.5 -55.5q0 -57 -52 -57
q-26 0 -43 4zM176 580l144 159q23 -8 44 -27t29 -41l-171 -133q-14 4 -27 16t-19 26z" />
    <glyph glyph-name="Ccaron" unicode="&#x10c;" horiz-adv-x="604" 
d="M460 447q0 32 -7.5 61.5t-24.5 52t-44 36t-66 13.5q-77 0 -117 -69t-40 -198q0 -128 43 -195.5t127 -67.5t175 76q41 -27 53 -69q-22 -22 -50.5 -40t-60 -31.5t-65 -21t-65.5 -7.5q-77 0 -129 29.5t-81.5 78t-44 112t-14.5 131.5q0 90 21 157t57.5 111.5t85.5 67
t104 22.5q57 0 102.5 -16t78 -43t49.5 -62t17 -74q0 -60 -60 -60q-19 0 -44 6zM208 892l112 -74l115 82q14 -5 28 -18t18 -27l-115 -113q-48 -10 -92 -1l-112 106q12 34 46 45z" />
    <glyph glyph-name="ccaron" unicode="&#x10d;" horiz-adv-x="471" 
d="M339 303v11q0 113 -88 113q-48 0 -74 -46t-26 -137q0 -172 113 -172q56 0 121 50q14 -8 27 -26t17 -35q-74 -74 -179 -74q-53 0 -91.5 19.5t-64 54.5t-38 84t-12.5 108q0 61 17 108.5t45.5 79.5t66 49t79.5 17q43 0 76.5 -13t57 -34t36 -48.5t12.5 -55.5q0 -57 -52 -57
q-26 0 -43 4zM156 727l93 -91l101 97q30 -10 48 -43l-107 -134q-35 -14 -87 -1l-98 126q17 34 50 46z" />
    <glyph glyph-name="Dcaron" unicode="&#x10e;" horiz-adv-x="648" 
d="M491 46q-15 -12 -35.5 -21.5t-44.5 -16t-48.5 -10t-46.5 -3.5q-23 0 -77 1t-142 3l-6 7v671l6 7q87 3 220 3q81 0 135 -27t86.5 -74t45.5 -110.5t13 -135.5q0 -100 -21.5 -171.5t-84.5 -122.5zM317 601h-120v-520h120q170 0 170 260q0 136 -42.5 198t-127.5 62zM195 892
l112 -74l115 82q14 -5 28 -18t18 -27l-115 -113q-48 -10 -92 -1l-112 106q12 34 46 45z" />
    <glyph glyph-name="dcaron" unicode="&#x10f;" horiz-adv-x="597" 
d="M236 502q54 0 113 -33v260l7 6h39q31 0 43 -15t12 -51v-528q0 -70 28 -95q-4 -14 -15 -30t-23 -23q-57 11 -79 62q-59 -68 -144 -68t-129 68.5t-44 190.5q0 61 15.5 108.5t41.5 80.5t61 50t74 17zM240 73q65 0 109 63v248q-56 36 -97 36q-45 0 -74 -45t-29 -133
q0 -87 26 -128t65 -41zM512 566l12 214q20 5 49 1t46 -16l-47 -204q-14 -5 -32 -3.5t-28 8.5z" />
    <glyph glyph-name="Eogonek" unicode="&#x118;" horiz-adv-x="570" 
d="M195 138l-1 -51q30 3 66 3h259q0 -38 -8 -57.5t-32 -29.5q-42 -17 -67 -46.5t-25 -55.5q0 -49 48 -49q28 0 59 16q23 -20 23 -50q-41 -35 -97 -35q-57 0 -86.5 24.5t-29.5 69.5q0 69 71 122h-224q-28 0 -44.5 17.5t-16.5 48.5v612l7 6h402q3 -15 3 -37q0 -14 -1.5 -28
t-6.5 -25h-300v-205l55 1h196q5 -20 5 -45t-5 -43h-188h-35.5t-26.5 1v-164z" />
    <glyph glyph-name="eogonek" unicode="&#x119;" horiz-adv-x="500" 
d="M274 -12l-24 -1q-57 0 -96 20t-63.5 55t-35.5 83.5t-11 104.5q0 55 14 102.5t40 81.5t64.5 53.5t86.5 19.5t85.5 -16t63.5 -44.5t39.5 -68t13.5 -85.5q0 -20 -1.5 -39.5t-5.5 -39.5h-294q3 -69 29.5 -106t89.5 -37q30 0 64.5 9t71.5 29q25 -23 33 -66q-31 -22 -69 -35
q-70 -52 -70 -111q0 -20 13.5 -33t36.5 -13q26 0 57 17q23 -20 23 -50q-41 -35 -97 -35q-57 0 -86.5 24t-29.5 77q0 52 58 104zM252 430q-95 0 -102 -141h202v13q0 57 -24.5 92.5t-75.5 35.5z" />
    <glyph glyph-name="Ecaron" unicode="&#x11a;" horiz-adv-x="566" 
d="M195 138l-1 -51q30 3 66 3h259q0 -27 -3 -41q-9 -50 -68 -50h-297q-28 0 -44.5 17.5t-16.5 48.5v612l7 6h402q3 -16 3 -42.5t-8 -47.5h-300l1 -65v-140l62 1h188q5 -18 5 -44.5t-5 -43.5h-188q-39 0 -62 1v-164zM185 892l112 -74l115 82q14 -5 28 -18t18 -27l-115 -113
q-48 -10 -92 -1l-112 106q12 34 46 45z" />
    <glyph glyph-name="ecaron" unicode="&#x11b;" horiz-adv-x="500" 
d="M444 214h-294q3 -69 29.5 -106t89.5 -37q30 0 64.5 9t71.5 29q25 -23 33 -66q-80 -56 -188 -56q-57 0 -96 20t-63.5 55t-35.5 83.5t-11 104.5q0 55 14 102.5t40 81.5t64.5 53.5t86.5 19.5t85.5 -16t63.5 -44.5t39.5 -68t13.5 -85.5q0 -20 -1.5 -39.5t-5.5 -39.5zM252 430
q-95 0 -102 -141h202v13q0 57 -24.5 92.5t-75.5 35.5zM161 727l93 -91l101 97q30 -10 48 -43l-107 -134q-35 -14 -87 -1l-98 126q17 34 50 46z" />
    <glyph glyph-name="Hbar" unicode="&#x126;" horiz-adv-x="684" 
d="M201 307l1 -74v-233q-23 -4 -54.5 -4t-52.5 4v494h-71q-5 22 -5 41t5 42h71v106q21 4 52.5 4t54.5 -4v-106h280v106q21 4 52.5 4t54.5 -4v-106h71q4 -19 4 -42.5t-4 -40.5h-71v-494q-23 -4 -54.5 -4t-52.5 4v233l1 74l-57 -1h-168zM201 396l57 1h168l57 -1l-1 74v24h-280
v-24z" />
    <glyph glyph-name="hbar" unicode="&#x127;" horiz-adv-x="547" 
d="M182 669v-32l160 2q2 -9 3 -18t1 -18t-1 -18t-3 -17l-160 2v-134q73 66 158 66q67 0 100 -44.5t33 -119.5v-232q0 -60 16 -91q-26 -22 -61 -22q-33 0 -45.5 16.5t-12.5 49.5v254q0 52 -13.5 74t-46.5 22t-67.5 -17t-60.5 -45v-347q-10 -2 -23 -3t-27 -1t-27.5 1t-23.5 3
v569l-70 -1q-3 11 -4 19t-1 16t1 16.5t4 19.5l70 -1v91l6 6h40q31 0 43 -15t12 -51z" />
    <glyph glyph-name="Itilde" unicode="&#x128;" horiz-adv-x="294" 
d="M94 0v683q20 4 52.5 4t53.5 -4v-683q-21 -4 -53.5 -4t-52.5 4zM159 756l-56 27q-9 4 -17 6.5t-16 2.5q-11 1 -19.5 -5.5t-19.5 -19.5l-12 -14q-15 0 -30.5 9t-21.5 22l9 20q16 35 44 54t60 19q29 0 57 -16l56 -26q7 -4 14.5 -6.5t15.5 -2.5q20 -1 42 25l12 14
q37 -1 52 -32l-9 -19q-34 -73 -102 -73q-25 0 -59 15z" />
    <glyph glyph-name="itilde" unicode="&#x129;" horiz-adv-x="271" 
d="M195 408v-408q-19 -4 -51.5 -4t-51.5 4v366q0 28 -10 40t-34 12h-11q-5 22 -5 37t5 38q33 4 63 4h14q38 0 59.5 -24t21.5 -65zM138 571l-55 27q-7 4 -14.5 6.5t-15.5 2.5q-23 1 -41 -25l-11 -14q-15 0 -30 9t-21 23l9 20q33 73 100 73q27 0 57 -15l55 -28q7 -4 14 -6.5
t15 -2.5q10 0 20.5 5.5t21.5 20.5l11 14q15 0 30 -9.5t21 -22.5l-9 -20q-33 -73 -100 -73q-26 0 -57 15z" />
    <glyph glyph-name="dotlessi" unicode="&#x131;" horiz-adv-x="271" 
d="M195 408v-408q-19 -4 -51.5 -4t-51.5 4v366q0 28 -10 40t-34 12h-11q-5 22 -5 37t5 38q33 4 63 4h14q38 0 59.5 -24t21.5 -65z" />
    <glyph glyph-name="IJ" unicode="&#x132;" horiz-adv-x="740" 
d="M94 0v683q20 4 52.5 4t53.5 -4v-683q-21 -4 -53.5 -4t-52.5 4zM342 112q55 -33 111 -33t79.5 36t23.5 119v449q21 4 53 4t53 -4v-434q0 -61 -8 -103.5t-29 -79.5q-42 -76 -167 -76q-88 0 -156 42q8 46 40 80z" />
    <glyph glyph-name="ij" unicode="&#x133;" horiz-adv-x="546" 
d="M195 408v-408q-19 -4 -51.5 -4t-51.5 4v366q0 28 -10 40t-34 12h-11q-5 22 -5 37t5 38q33 4 63 4h14q38 0 59.5 -24t21.5 -65zM70 587q-9 18 -9 44q0 41 15 48.5t50 8.5q40 -1 51 -10t12 -47q-1 -36 -12 -46t-51 -11q-39 0 -56 13zM469 408v-390q0 -70 -9 -112.5
t-27 -67.5t-45 -36.5t-63 -20.5q-26 24 -30 63q21 10 35 21t22 25.5t11.5 33t3.5 44.5v398q0 28 -9.5 40t-33.5 12h-20q-3 11 -4 19.5t-1 17.5q0 8 1 17t4 21q18 2 36 3t37 1h13q37 0 58 -23.5t21 -65.5zM344 587q-9 18 -9 44q0 36 10.5 45.5t54.5 11.5q34 -3 47 -7.5
t16 -49.5q-3 -42 -13 -48t-50 -9q-39 0 -56 13z" />
    <glyph glyph-name="Jcircumflex" unicode="&#x134;" horiz-adv-x="448" 
d="M50 112q55 -33 111 -33t79.5 36t23.5 119v449q21 4 53 4t53 -4v-434q0 -61 -8 -103.5t-29 -79.5q-42 -76 -167 -76q-88 0 -156 42q8 46 40 80zM430 737l-113 75l-115 -83q-13 5 -27 18.5t-18 27.5l114 113q47 9 92 0l112 -106q-5 -16 -18.5 -28.5t-26.5 -16.5z" />
    <glyph glyph-name="jcircumflex" unicode="&#x135;" horiz-adv-x="278" 
d="M201 408v-390q0 -137 -35 -177q-35 -42 -109 -60q-25 24 -30 63q42 21 57 46.5t15 77.5v398q0 28 -9.5 40t-33.5 12h-20q-5 22 -5 37t5 38q36 4 73 4h13q37 0 58 -24t21 -65zM227 546l-93 91l-100 -96q-31 12 -48 43l106 133q38 13 87 1l98 -126q-15 -33 -50 -46z" />
    <glyph glyph-name="Kcommaaccent" unicode="&#x136;" horiz-adv-x="596" 
d="M580 28q-22 -34 -72 -34q-29 0 -43.5 14.5t-26.5 49.5l-54 147q-21 56 -48 79t-67.5 23t-71.5 -2v-305q-21 -4 -53.5 -4t-52.5 4v683q20 4 52.5 4t53.5 -4v-287l56 2q14 0 21.5 6t16.5 22l128 217q14 24 26.5 33.5t39.5 9.5t59 -3l7 -9l-151 -256q-19 -32 -40 -50
q47 -9 73.5 -38t47.5 -85l54 -145q20 -52 45 -72zM368 -58q10 -24 10 -52q0 -50 -33 -90.5t-91 -62.5q-27 8 -34 44q60 39 60 96q0 28 -13 52q20 13 49 17t52 -4z" />
    <glyph glyph-name="kcommaaccent" unicode="&#x137;" horiz-adv-x="502" 
d="M403 186l34 -83q23 -61 48 -78q-28 -32 -69 -32q-26 0 -40 13.5t-26 44.5l-40 98q-16 39 -33.5 52.5t-41.5 13.5t-56 -2v-213q-19 -4 -50 -4t-51 4v729l6 6h40q31 0 43 -15t12 -51v-370l34 2q16 0 24 14l88 138q25 44 64 44t58 -1l6 -8l-109 -173q-15 -24 -33 -39
q62 -16 92 -90zM323 -58q10 -24 10 -52q0 -50 -33 -90.5t-91 -62.5q-27 8 -34 44q60 39 60 96q0 28 -13 52q20 13 49 17t52 -4z" />
    <glyph glyph-name="kgreenlandic" unicode="&#x138;" horiz-adv-x="502" 
d="M403 186l34 -83q23 -61 48 -78q-28 -32 -69 -32q-26 0 -40 13.5t-26 44.5l-40 98q-16 39 -33.5 52.5t-41.5 13.5t-56 -2v-213q-19 -4 -50 -4t-51 4v492l6 6h40q31 0 43 -15t12 -51v-133l34 2q16 0 24 14l88 138q25 44 64 44t58 -1l6 -8l-109 -173q-15 -24 -33 -39
q62 -16 92 -90z" />
    <glyph glyph-name="Ldot" unicode="&#x13f;" horiz-adv-x="512" 
d="M286 92h199q0 -22 -3 -42q-9 -51 -69 -51h-261q-28 0 -45 17.5t-17 48.5v616l7 6h40q33 0 46.5 -16t13.5 -52v-531q41 4 89 4zM344 400q19 13 53 13q15 0 26 -2t19.5 -6.5t11 -17t2.5 -33.5t-2.5 -34t-9.5 -16.5t-19 -6.5t-28 -3q-18 0 -31.5 4t-18.5 7t-7.5 16t-2.5 33
q0 33 7 46z" />
    <glyph glyph-name="ldot" unicode="&#x140;" horiz-adv-x="350" 
d="M217 77h37q9 -25 9 -44t-3 -30q-40 -7 -85 -7q-99 0 -99 103v630l7 6h39q31 0 43.5 -15.5t12.5 -50.5v-547q0 -45 39 -45zM248 400q19 13 53 13q15 0 26 -2t19.5 -6.5t11 -17t2.5 -33.5t-2.5 -34t-9.5 -16.5t-19 -6.5t-28 -3q-18 0 -31.5 4t-18.5 7t-7.5 16t-2.5 33
q0 33 7 46z" />
    <glyph glyph-name="Lslash" unicode="&#x141;" horiz-adv-x="518" 
d="M203 619v-216l176 60l8 -4q11 -33 2 -81l-186 -61v-229q41 4 89 4h199q0 -29 -3 -42q-8 -51 -69 -51h-260q-28 0 -45 17t-17 49v220l-69 -24l-7 4q-12 38 -2 81l78 27v308l6 6h41q32 0 45.5 -16t13.5 -52z" />
    <glyph glyph-name="lslash" unicode="&#x142;" horiz-adv-x="331" 
d="M246 77h37q8 -22 8 -44.5t-2 -29.5q-40 -7 -85 -7q-98 0 -98 103v206l-70 -36l-8 4q-10 38 -1 78l79 41v337l6 6h38q32 0 44 -15t12 -51v-225l79 42l8 -4q10 -38 1 -78l-88 -46v-236q0 -45 40 -45z" />
    <glyph glyph-name="Nacute" unicode="&#x143;" horiz-adv-x="680" 
d="M583 687l6 -5v-681q-28 -5 -64 -5t-64 4l-213 419q-32 67 -63 139l-4 -1q9 -155 9 -245v-312q-24 -4 -50 -4t-49 4v682q28 5 63.5 5t63.5 -4l211 -419q14 -30 37 -81.5t29 -63.5l4 1q-8 128 -8 252v249q0 36 12.5 51t44.5 15h35zM242 782l203 120q15 -11 29 -35.5
t17 -48.5l-218 -90q-11 7 -20 23t-11 31z" />
    <glyph glyph-name="nacute" unicode="&#x144;" horiz-adv-x="546" 
d="M472 339v-233q0 -59 17 -91q-26 -22 -61 -22q-34 0 -46.5 16.5t-12.5 49.5v254q0 52 -13.5 74t-46.5 22t-67.5 -16.5t-60.5 -45.5v-347q-17 -4 -51 -4q-16 0 -29 1t-23 3v492l6 6h39q54 0 57 -62q73 67 159 67q67 0 100 -44.5t33 -119.5zM203 580l144 159q23 -8 44 -27
t29 -41l-171 -133q-14 4 -27 16t-19 26z" />
    <glyph glyph-name="Ncaron" unicode="&#x147;" horiz-adv-x="680" 
d="M583 687l6 -5v-681q-28 -5 -64 -5t-64 4l-213 419q-32 67 -63 139l-4 -1q9 -155 9 -245v-312q-24 -4 -50 -4t-49 4v682q28 5 63.5 5t63.5 -4l211 -419q14 -30 37 -81.5t29 -63.5l4 1q-8 128 -8 252v249q0 36 12.5 51t44.5 15h35zM229 892l112 -74l115 82q14 -5 28 -18
t18 -27l-115 -113q-48 -10 -92 -1l-112 106q12 34 46 45z" />
    <glyph glyph-name="ncaron" unicode="&#x148;" horiz-adv-x="546" 
d="M472 339v-233q0 -59 17 -91q-26 -22 -61 -22q-34 0 -46.5 16.5t-12.5 49.5v254q0 52 -13.5 74t-46.5 22t-67.5 -16.5t-60.5 -45.5v-347q-17 -4 -51 -4q-16 0 -29 1t-23 3v492l6 6h39q54 0 57 -62q73 67 159 67q67 0 100 -44.5t33 -119.5zM184 727l93 -91l101 97
q30 -10 48 -43l-107 -134q-35 -14 -87 -1l-98 126q17 34 50 46z" />
    <glyph glyph-name="OE" unicode="&#x152;" horiz-adv-x="896" 
d="M528 138l-1 -50q20 1 36.5 1.5t30.5 0.5h259q0 -48 -15 -69.5t-56 -21.5h-324q-92 -12 -128 -12q-71 0 -124 28t-88 76t-52.5 112.5t-17.5 137.5t17.5 138t52.5 113t88 76t124 28q15 0 46.5 -3t79.5 -10h377q3 -15 3 -37q0 -14 -1.5 -28t-6.5 -25h-301l1 -206l63 2h188
q5 -20 5 -45t-5 -43h-188h-36t-27 1v-164zM425 85v513q-27 6 -50.5 9.5t-44.5 3.5q-48 0 -81 -23t-52.5 -60.5t-28 -86t-8.5 -99.5q0 -53 8 -102t28.5 -86.5t55.5 -60t89 -22.5q39 0 84 14z" />
    <glyph glyph-name="oe" unicode="&#x153;" horiz-adv-x="829" 
d="M774 214h-292q3 -67 28 -105t89 -38q62 0 136 38q25 -22 33 -65q-78 -57 -188 -57t-158 81q-51 -81 -162 -81q-51 0 -91.5 18.5t-68 52.5t-42 81.5t-14.5 106.5t14.5 107.5t42 82.5t67.5 52.5t92 18.5q111 0 164 -86q53 86 152 86q50 0 88 -16t64 -44.5t39.5 -68
t13.5 -85.5q0 -20 -1.5 -39.5t-5.5 -39.5zM260 428q-109 0 -109 -181t109 -181q110 0 110 181t-110 181zM583 430q-94 0 -101 -141h199v12q0 58 -23.5 93.5t-74.5 35.5z" />
    <glyph glyph-name="Racute" unicode="&#x154;" horiz-adv-x="600" 
d="M97 684l215 3q106 0 166.5 -53.5t60.5 -151.5q0 -67 -35.5 -115.5t-92.5 -66.5q47 -17 71 -85l44 -117q19 -52 45 -72q-22 -33 -72 -33q-28 0 -42.5 15t-27.5 50l-50 135q-15 40 -36.5 61t-64.5 21h-82v-275q-21 -4 -53 -4t-52 4v677zM196 604v-244q78 2 111 2
q67 0 94.5 34t27.5 86q0 121 -122 121q-77 0 -111 1zM197 782l203 120q15 -11 29 -35.5t17 -48.5l-218 -90q-11 7 -20 23t-11 31z" />
    <glyph glyph-name="racute" unicode="&#x155;" horiz-adv-x="368" 
d="M50 446q10 37 38 55q69 -15 91 -89q40 89 131 89q24 0 53 -6q0 -58 -25 -98q-9 3 -41 5q-68 0 -107 -76v-326q-19 -4 -51.5 -4t-51.5 4v343q0 68 -37 103zM126 580l144 159q23 -8 44 -27t29 -41l-171 -133q-14 4 -27 16t-19 26z" />
    <glyph glyph-name="Rcommaaccent" unicode="&#x156;" horiz-adv-x="600" 
d="M97 684l215 3q106 0 166.5 -53.5t60.5 -151.5q0 -67 -35.5 -115.5t-92.5 -66.5q47 -17 71 -85l44 -117q19 -52 45 -72q-22 -33 -72 -33q-28 0 -42.5 15t-27.5 50l-50 135q-15 40 -36.5 61t-64.5 21h-82v-275q-21 -4 -53 -4t-52 4v677zM196 604v-244q78 2 111 2
q67 0 94.5 34t27.5 86q0 121 -122 121q-77 0 -111 1zM367 -58q10 -24 10 -52q0 -50 -33 -90.5t-91 -62.5q-27 8 -34 44q60 39 60 96q0 28 -13 52q20 13 49 17t52 -4z" />
    <glyph glyph-name="rcommaaccent" unicode="&#x157;" horiz-adv-x="368" 
d="M50 446q10 37 38 55q69 -15 91 -89q40 89 131 89q24 0 53 -6q0 -58 -25 -98q-9 3 -41 5q-68 0 -107 -76v-326q-19 -4 -51.5 -4t-51.5 4v343q0 68 -37 103zM196 -58q10 -24 10 -52q0 -50 -33 -90.5t-91 -62.5q-27 8 -34 44q60 39 60 96q0 28 -13 52q20 13 49 17t52 -4z
" />
    <glyph glyph-name="Rcaron" unicode="&#x158;" horiz-adv-x="600" 
d="M97 684l215 3q106 0 166.5 -53.5t60.5 -151.5q0 -67 -35.5 -115.5t-92.5 -66.5q47 -17 71 -85l44 -117q19 -52 45 -72q-22 -33 -72 -33q-28 0 -42.5 15t-27.5 50l-50 135q-15 40 -36.5 61t-64.5 21h-82v-275q-21 -4 -53 -4t-52 4v677zM196 604v-244q78 2 111 2
q67 0 94.5 34t27.5 86q0 121 -122 121q-77 0 -111 1zM185 892l112 -74l115 82q14 -5 28 -18t18 -27l-115 -113q-48 -10 -92 -1l-112 106q12 34 46 45z" />
    <glyph glyph-name="rcaron" unicode="&#x159;" horiz-adv-x="368" 
d="M50 446q10 37 38 55q69 -15 91 -89q40 89 131 89q24 0 53 -6q0 -58 -25 -98q-9 3 -41 5q-68 0 -107 -76v-326q-19 -4 -51.5 -4t-51.5 4v343q0 68 -37 103zM108 727l93 -91l101 97q30 -10 48 -43l-107 -134q-35 -14 -87 -1l-98 126q17 34 50 46z" />
    <glyph glyph-name="Sacute" unicode="&#x15a;" horiz-adv-x="556" 
d="M30 62q4 49 45 82q104 -68 201 -68q59 0 93.5 26t34.5 68q0 69 -91 108l-118 51q-137 59 -137 173q0 41 17 76.5t47 62.5t72.5 41t93.5 14q105 0 208 -52q-1 -48 -39 -83q-96 47 -171 47q-54 0 -87 -26.5t-33 -62.5q0 -37 20.5 -57.5t62.5 -37.5l116 -50
q75 -32 112.5 -77.5t37.5 -108.5q0 -90 -62.5 -145.5t-189.5 -55.5t-233 75zM187 782l203 120q15 -11 29 -35.5t17 -48.5l-218 -90q-11 7 -20 23t-11 31z" />
    <glyph glyph-name="sacute" unicode="&#x15b;" horiz-adv-x="438" 
d="M31 37q1 17 11 38.5t23 33.5q80 -44 130 -44q51 0 75.5 17t24.5 45q0 44 -63 68l-56 21q-127 48 -127 143q0 69 49.5 108.5t129.5 39.5q81 0 161 -36q0 -20 -8.5 -42t-22.5 -34q-71 33 -133 33q-33 0 -52.5 -16t-19.5 -40t14.5 -37t47.5 -26l60 -23q127 -49 127 -150
q0 -69 -53 -109t-144 -40t-174 50zM145 580l144 159q23 -8 44 -27t29 -41l-171 -133q-14 4 -27 16t-19 26z" />
    <glyph glyph-name="Scaron" unicode="&#x160;" horiz-adv-x="556" 
d="M30 62q4 49 45 82q104 -68 201 -68q59 0 93.5 26t34.5 68q0 69 -91 108l-118 51q-137 59 -137 173q0 41 17 76.5t47 62.5t72.5 41t93.5 14q105 0 208 -52q-1 -48 -39 -83q-96 47 -171 47q-54 0 -87 -26.5t-33 -62.5q0 -37 20.5 -57.5t62.5 -37.5l116 -50
q75 -32 112.5 -77.5t37.5 -108.5q0 -90 -62.5 -145.5t-189.5 -55.5t-233 75zM173 892l112 -74l115 82q14 -5 28 -18t18 -27l-115 -113q-48 -10 -92 -1l-112 106q12 34 46 45z" />
    <glyph glyph-name="scaron" unicode="&#x161;" horiz-adv-x="438" 
d="M31 37q1 17 11 38.5t23 33.5q80 -44 130 -44q51 0 75.5 17t24.5 45q0 44 -63 68l-56 21q-127 48 -127 143q0 69 49.5 108.5t129.5 39.5q81 0 161 -36q0 -20 -8.5 -42t-22.5 -34q-71 33 -133 33q-33 0 -52.5 -16t-19.5 -40t14.5 -37t47.5 -26l60 -23q127 -49 127 -150
q0 -69 -53 -109t-144 -40t-174 50zM127 727l93 -91l101 97q30 -10 48 -43l-107 -134q-35 -14 -87 -1l-98 126q17 34 50 46z" />
    <glyph glyph-name="Tcaron" unicode="&#x164;" horiz-adv-x="492" 
d="M358 593l-58 1v-594q-23 -4 -53.5 -4t-53.5 4v520l1 74h-1l-57 -1h-119q-4 21 -4 45t4 45h460q6 -24 6 -46q0 -44 -60 -44h-65zM132 892l112 -74l115 82q14 -5 28 -18t18 -27l-115 -113q-48 -10 -92 -1l-112 106q12 34 46 45z" />
    <glyph glyph-name="tcaron" unicode="&#x165;" horiz-adv-x="365" 
d="M321 495q5 -17 5 -39t-5 -38l-123 2v-299q0 -44 41 -44h69q8 -22 8 -44.5t-2 -29.5q-58 -7 -112 -7q-105 0 -105 103v320l-74 -1q-4 17 -4 37.5t4 39.5l74 -2v88q0 36 12 51t43 15h39l7 -7v-148zM259 566l12 214q20 5 49 1t46 -16l-47 -204q-14 -5 -32 -3.5t-28 8.5z" />
    <glyph glyph-name="Uring" unicode="&#x16e;" horiz-adv-x="669" 
d="M587 683v-443q0 -122 -68 -187.5t-185 -65.5q-116 0 -184 65t-68 188v441l6 6h41q32 0 45.5 -16t13.5 -52v-379q0 -82 37 -124.5t109 -42.5q146 0 146 167v443q11 2 25 3t28 1q15 0 29 -1t25 -3zM333 667q-54 0 -87.5 32.5t-33.5 80.5q0 24 9 45t25.5 36t38.5 24t48 9
t48.5 -9t38.5 -24t25 -36t9 -45q0 -48 -33.5 -80.5t-87.5 -32.5zM333 835q-25 0 -38 -17t-13 -38q0 -20 13 -37t38 -17t37 17t12 37q0 21 -11.5 38t-37.5 17z" />
    <glyph glyph-name="uring" unicode="&#x16f;" horiz-adv-x="547" 
d="M74 155v233q0 60 -17 90q25 22 65 22q55 0 55 -65v-255q0 -52 13 -74t46 -22t67 16.5t61 44.5v349q28 4 51 4t53 -4v-354q0 -70 28 -95q-11 -36 -39 -52q-63 11 -84 72q-78 -74 -167 -74q-66 0 -99 45t-33 119zM268 539q-26 0 -48.5 9t-38.5 24.5t-25 36t-9 43.5
q0 24 9 45t25 36t38 24t49 9t49 -9t38 -24t25 -36t9 -45q0 -23 -9 -43.5t-25.5 -36t-38.5 -24.5t-48 -9zM232 691q-8 -8 -11 -18t-3 -21q0 -23 13.5 -38.5t36.5 -15.5q22 0 36 15.5t14 38.5t-14 39t-36 16t-36 -16z" />
    <glyph glyph-name="Ydieresis" unicode="&#x178;" horiz-adv-x="503" 
d="M303 454l91 229q19 5 46 5t51 -8l5 -7l-190 -454v-219q-23 -4 -55 -4t-52 4v221l-190 450q34 19 61 19t40 -10.5t23 -35.5l79 -192q20 -50 42 -125h5q11 40 44 127zM313 830q18 12 47 12q28 0 43.5 -8t15.5 -45q0 -33 -11 -43t-48 -10q-35 0 -46 11.5t-11 41.5
q0 11 2.5 22t7.5 19zM102 830q9 6 21.5 9t26.5 3q27 0 43 -8.5t16 -44.5q0 -33 -12 -43t-47 -10q-38 0 -47.5 13.5t-9.5 39.5q0 23 9 41z" />
    <glyph glyph-name="Zacute" unicode="&#x179;" horiz-adv-x="562" 
d="M62 113l252 379q10 15 79 106l-3 3q-44 -8 -156 -8h-161q-4 16 -4 38.5t8 51.5h412q15 -51 15 -70.5t-14 -40.5l-251 -376q-23 -35 -78 -107l3 -3q63 6 120 6h104q80 0 118 19q9 -27 9 -52q0 -59 -74 -59h-380q-13 50 -13 71t14 42zM184 782l203 120q15 -11 29 -35.5
t17 -48.5l-218 -90q-11 7 -20 23t-11 31z" />
    <glyph glyph-name="zacute" unicode="&#x17a;" horiz-adv-x="446" 
d="M51 97l163 222q28 38 79 97l-3 4q-42 -6 -132 -6h-105q-4 13 -4 34.5t6 45.5h335q15 -45 15 -60.5t-13 -35.5l-163 -221q-20 -28 -77 -97l3 -4q43 4 92 4h48q76 0 107 14q10 -23 10 -45q0 -49 -65 -49h-298q-14 42 -14 59t16 38zM149 580l144 159q23 -8 44 -27t29 -41
l-171 -133q-14 4 -27 16t-19 26z" />
    <glyph glyph-name="Zdotaccent" unicode="&#x17b;" horiz-adv-x="562" 
d="M62 113l252 379q10 15 79 106l-3 3q-44 -8 -156 -8h-161q-4 16 -4 38.5t8 51.5h412q15 -51 15 -70.5t-14 -40.5l-251 -376q-23 -35 -78 -107l3 -3q63 6 120 6h104q80 0 118 19q9 -27 9 -52q0 -59 -74 -59h-380q-13 50 -13 71t14 42zM229 845q21 12 56 12q38 0 50.5 -9.5
t12.5 -47.5q0 -33 -9 -45t-54 -12q-39 0 -52 9.5t-13 47.5q0 12 2 24t7 21z" />
    <glyph glyph-name="zdotaccent" unicode="&#x17c;" horiz-adv-x="446" 
d="M51 97l163 222q28 38 79 97l-3 4q-42 -6 -132 -6h-105q-4 13 -4 34.5t6 45.5h335q15 -45 15 -60.5t-13 -35.5l-163 -221q-20 -28 -77 -97l3 -4q43 4 92 4h48q76 0 107 14q10 -23 10 -45q0 -49 -65 -49h-298q-14 42 -14 59t16 38zM169 587q-9 18 -9 44q0 41 15 48.5
t50 8.5q40 -1 51 -10t12 -47q-1 -36 -12 -46t-51 -11q-39 0 -56 13z" />
    <glyph glyph-name="uni0237" unicode="&#x237;" horiz-adv-x="278" 
d="M201 408v-390q0 -137 -35 -177q-35 -42 -109 -60q-25 24 -30 63q42 21 57 46.5t15 77.5v398q0 28 -9.5 40t-33.5 12h-20q-5 22 -5 37t5 38q36 4 73 4h13q37 0 58 -24t21 -65z" />
    <glyph glyph-name="circumflex" unicode="&#x2c6;" horiz-adv-x="398" 
d="M294 546l-93 91l-100 -96q-31 12 -48 43l106 133q38 13 87 1l98 -126q-15 -33 -50 -46z" />
    <glyph glyph-name="caron" unicode="&#x2c7;" horiz-adv-x="398" 
d="M105 727l93 -91l101 97q30 -10 48 -43l-107 -134q-35 -14 -87 -1l-98 126q17 34 50 46z" />
    <glyph glyph-name="dotaccent" unicode="&#x2d9;" horiz-adv-x="398" 
d="M144 587q-9 18 -9 44q0 41 15 48.5t50 8.5q40 -1 51 -10t12 -47q-1 -36 -12 -46t-51 -11q-39 0 -56 13z" />
    <glyph glyph-name="ring" unicode="&#x2da;" horiz-adv-x="398" 
d="M199 539q-26 0 -48.5 9t-38.5 24.5t-25 36t-9 43.5q0 24 9 45t25 36t38 24t49 9t49 -9t38 -24t25 -36t9 -45q0 -23 -9 -43.5t-25.5 -36t-38.5 -24.5t-48 -9zM163 691q-8 -8 -11 -18t-3 -21q0 -23 13.5 -38.5t36.5 -15.5q22 0 36 15.5t14 38.5t-14 39t-36 16t-36 -16z" />
    <glyph glyph-name="tilde" unicode="&#x2dc;" horiz-adv-x="398" 
d="M210 571l-55 27q-7 4 -14.5 6.5t-15.5 2.5q-23 1 -41 -25l-11 -14q-15 0 -30 9t-21 23l9 20q33 73 100 73q27 0 57 -15l55 -28q7 -4 14 -6.5t15 -2.5q10 0 20.5 5.5t21.5 20.5l11 14q15 0 30 -9.5t21 -22.5l-9 -20q-33 -73 -100 -73q-26 0 -57 15z" />
    <glyph glyph-name="mu" unicode="&#x3bc;" horiz-adv-x="554" 
d="M474 494v-354q0 -70 28 -95q-11 -36 -39 -52q-58 10 -80 65q-49 -68 -127 -68q-48 0 -82 28v-167q0 -35 -10 -52t-43.5 -17t-59.5 20q17 30 17 91v601q28 4 50 4t52 -4v-314q0 -47 24 -73.5t64 -26.5q59 0 103 60v354q28 4 50.5 4t52.5 -4z" />
    <glyph glyph-name="germandbls.cap" unicode="&#x1e9e;" horiz-adv-x="627" 
d="M105 0v391l-86 -1q-2 8 -3 18.5t-1 22.5q0 11 1 22t3 20l86 -2v35q0 93 59.5 143t159.5 50q50 0 90.5 -14t69 -40t44 -63t15.5 -82q0 -38 -15 -78h-2l2 -1q-38 -10 -60 -29.5t-22 -41.5q0 -13 8.5 -27.5t28.5 -31.5l37 -33q74 -66 74 -130q0 -31 -13.5 -57t-37 -44.5
t-56 -29t-70.5 -10.5q-73 0 -133 29q1 18 10.5 40t23.5 34q21 -12 42 -17.5t41 -5.5q35 0 59 16.5t24 42.5q-1 14 -9.5 32t-30.5 37l-41 35q-34 29 -50 57t-16 54q0 36 26.5 68.5t71.5 50.5q4 20 4 35q0 54 -29.5 89t-86.5 35q-113 0 -113 -124v-495q-11 -2 -25 -3t-28 -1
q-15 0 -28.5 1t-23.5 3z" />
    <glyph glyph-name="endash" unicode="&#x2013;" horiz-adv-x="531" 
d="M466 223h-401q-4 17 -4 41t4 43h401q4 -19 4 -43t-4 -41z" />
    <glyph glyph-name="emdash" unicode="&#x2014;" horiz-adv-x="799" 
d="M719 223h-640q-4 17 -4 41t4 43h640q5 -18 5 -43t-5 -41z" />
    <glyph glyph-name="quoteleft" unicode="&#x2018;" horiz-adv-x="228" 
d="M54 518q-12 27 -12 66q0 61 33.5 108.5t99.5 71.5q27 -14 27 -42v-9q-67 -31 -70 -85q35 -2 43.5 -15t8.5 -46q0 -23 -4.5 -35.5t-13.5 -18.5t-22.5 -7t-31.5 -1q-41 0 -58 13z" />
    <glyph glyph-name="quoteright" unicode="&#x2019;" horiz-adv-x="228" 
d="M174 750q11 -27 11 -77q0 -26 -8.5 -51t-25 -47.5t-41 -41t-57.5 -30.5q-13 6 -20.5 19t-6.5 32q67 33 70 85q-21 3 -32 7t-14.5 11t-4.5 17.5t-1 24.5q0 24 4.5 39t14.5 18t23 5t30 2q39 0 58 -13z" />
    <glyph glyph-name="quotesinglbase" unicode="&#x201a;" horiz-adv-x="229" 
d="M178 101q11 -24 11 -76q0 -26 -8.5 -51.5t-25 -48t-41 -40.5t-57.5 -30q-13 6 -20.5 19.5t-7.5 31.5q29 13 49.5 35.5t21.5 49.5q-21 3 -31.5 7t-14 11t-5 17.5t-1.5 25.5q0 22 4.5 36t14 18t22.5 6.5t30 2.5q39 0 59 -14z" />
    <glyph glyph-name="quotedblleft" unicode="&#x201c;" horiz-adv-x="422" 
d="M53 518q-12 27 -12 66q0 61 33.5 108.5t99.5 71.5q27 -14 27 -42v-9q-67 -31 -70 -85q35 -2 43.5 -15t8.5 -46q0 -23 -4.5 -35.5t-13.5 -18.5t-22.5 -7t-31.5 -1q-41 0 -58 13zM247 518q-12 27 -12 66q0 61 33.5 108.5t99.5 71.5q27 -14 27 -42v-9q-67 -31 -70 -85
q35 -2 43.5 -15t8.5 -46q0 -23 -4.5 -35.5t-13.5 -18.5t-22.5 -7t-31.5 -1q-41 0 -58 13z" />
    <glyph glyph-name="quotedblright" unicode="&#x201d;" horiz-adv-x="422" 
d="M176 750q11 -27 11 -77q0 -26 -8.5 -51t-25 -47.5t-41 -41t-57.5 -30.5q-13 6 -20.5 18t-6.5 33q67 33 70 85q-21 3 -32 7t-14.5 11t-4.5 17.5t-1 24.5q0 24 4.5 38.5t14.5 18t23 5.5t30 2q39 0 58 -13zM370 750q11 -27 11 -77q0 -26 -8.5 -51t-25 -47.5t-41 -41
t-57.5 -30.5q-13 6 -20.5 18t-6.5 33q67 33 70 85q-21 3 -32 7t-14.5 11t-4.5 17.5t-1 24.5q0 24 4.5 38.5t14.5 18t23 5.5t30 2q39 0 58 -13z" />
    <glyph glyph-name="quotedblbase" unicode="&#x201e;" horiz-adv-x="423" 
d="M178 101q11 -24 11 -76q0 -26 -8.5 -51.5t-25 -48t-41 -40.5t-57.5 -30q-13 6 -20.5 19.5t-7.5 31.5q29 13 49.5 35.5t21.5 49.5q-21 3 -31.5 7t-14 11t-5 17.5t-1.5 25.5q0 22 4.5 36t14 18t22.5 6.5t30 2.5q39 0 59 -14zM372 101q11 -24 11 -76q0 -26 -8.5 -51.5
t-25 -48t-41 -40.5t-57.5 -30q-13 6 -20.5 19t-7.5 32q29 13 49.5 35.5t21.5 49.5q-21 3 -31.5 7t-14 11t-5 17.5t-1.5 25.5q0 22 4.5 36t14 18t22.5 6.5t30 2.5q39 0 59 -14z" />
    <glyph glyph-name="bullet" unicode="&#x2022;" horiz-adv-x="447" 
d="M125 357q39 24 101 24q63 0 99 -24q15 -29 15 -85t-15 -86q-32 -23 -97 -23t-103 23q-15 30 -15 86t15 85z" />
    <glyph glyph-name="guilsinglleft" unicode="&#x2039;" horiz-adv-x="332" 
d="M290 418l-139 -161l144 -166q-6 -17 -23.5 -33t-35.5 -21l-197 185q-6 14 -6 33t6 33l193 184q18 -5 35 -21t23 -33z" />
    <glyph glyph-name="guilsinglright" unicode="&#x203a;" horiz-adv-x="332" 
d="M42 92l138 161l-144 165q6 16 24 32.5t35 21.5l198 -185q13 -33 0 -65l-194 -185q-17 5 -34 21.5t-23 33.5z" />
    <glyph glyph-name="fraction" unicode="&#x2044;" horiz-adv-x="225" 
d="M-126 0l376 683q20 6 53.5 5.5t48.5 -5.5l-377 -683q-20 -6 -53.5 -5.5t-47.5 5.5z" />
    <glyph glyph-name="uni2074" unicode="&#x2074;" horiz-adv-x="420" 
d="M309 543l-1 -51h61q3 -14 3 -35.5t-7 -38.5h-57v-78q-16 -4 -41 -4t-44 4v42l1 36l-41 -1h-119q-20 32 -20 50.5t15 48.5l117 253q21 2 46 -3.5t38 -16.5l-76 -164q-32 -68 -51 -93l2 -2q25 2 71 2h18q-1 8 -1 24v33q0 29 16 46t42 17h25l3 -3v-66z" />
    <glyph glyph-name="Euro" unicode="&#x20ac;" horiz-adv-x="566" 
d="M496 515q-76 58 -151 58q-110 0 -136 -140h206q4 -19 4 -36.5t-4 -34.5h-214v-39q0 -27 1 -40h213q4 -19 4 -36.5t-4 -34.5h-205q26 -137 135 -137q75 0 151 58q37 -23 48 -65q-97 -81 -213 -81q-190 0 -227 225h-79q-4 17 -4 34.5t4 36.5h72q-1 13 -1 39.5t1 39.5h-72
q-4 17 -4 34.5t4 36.5h79q36 228 227 228q115 0 213 -81q-5 -18 -18 -36.5t-30 -28.5z" />
    <glyph glyph-name=".notdef.001" horiz-adv-x="186" 
 />
    <glyph glyph-name="nonbreakingspace" horiz-adv-x="220" 
 />
    <glyph glyph-name="commaaccent" horiz-adv-x="398" 
d="M254 -58q10 -24 10 -52q0 -50 -33 -90.5t-91 -62.5q-27 8 -34 44q60 39 60 96q0 28 -13 52q20 13 49 17t52 -4z" />
    <glyph glyph-name="grave.cap" horiz-adv-x="398" 
d="M110 902l203 -120q-8 -39 -31 -54l-218 90q3 24 17 48.5t29 35.5z" />
    <glyph glyph-name="acute.cap" horiz-adv-x="398" 
d="M98 782l203 120q15 -11 29 -35.5t17 -48.5l-218 -90q-11 7 -20 23t-11 31z" />
    <glyph glyph-name="circumflex.cap" horiz-adv-x="398" 
d="M311 737l-113 75l-115 -83q-13 5 -27 18.5t-18 27.5l114 113q47 9 92 0l112 -106q-5 -16 -18.5 -28.5t-26.5 -16.5z" />
    <glyph glyph-name="dieresis.cap" horiz-adv-x="398" 
d="M256 830q18 12 47 12q28 0 43.5 -8t15.5 -45q0 -33 -11 -43t-48 -10q-35 0 -46 11.5t-11 41.5q0 11 2.5 22t7.5 19zM45 830q9 6 21.5 9t26.5 3q27 0 43 -8.5t16 -44.5q0 -33 -12 -43t-47 -10q-38 0 -47.5 13.5t-9.5 39.5q0 23 9 41z" />
    <glyph glyph-name="caron.cap" horiz-adv-x="398" 
d="M85 892l112 -74l115 82q14 -5 28 -18t18 -27l-115 -113q-48 -10 -92 -1l-112 106q12 34 46 45z" />
    <glyph glyph-name="ring.cap" horiz-adv-x="398" 
d="M199 667q-54 0 -87.5 32.5t-33.5 80.5q0 24 9 45t25.5 36t38.5 24t48 9t48.5 -9t38.5 -24t25 -36t9 -45q0 -48 -33.5 -80.5t-87.5 -32.5zM199 835q-25 0 -38 -17t-13 -38q0 -20 13 -37t38 -17t37 17t12 37q0 21 -11.5 38t-37.5 17z" />
    <glyph glyph-name="tilde.cap" horiz-adv-x="398" 
d="M210 756l-56 27q-9 4 -17 6.5t-16 2.5q-11 1 -19.5 -5.5t-19.5 -19.5l-12 -14q-15 0 -30.5 9t-21.5 22l9 20q16 35 44 54t60 19q29 0 57 -16l56 -26q7 -4 14.5 -6.5t15.5 -2.5q20 -1 42 25l12 14q37 -1 52 -32l-9 -19q-34 -73 -102 -73q-25 0 -59 15z" />
    <glyph glyph-name="dotaccent.cap" horiz-adv-x="398" 
d="M144 845q21 12 56 12q38 0 50.5 -9.5t12.5 -47.5q0 -33 -9 -45t-54 -12q-39 0 -52 9.5t-13 47.5q0 12 2 24t7 21z" />
    <glyph glyph-name="caron.alt" horiz-adv-x="424" 
d="M201 566l12 214q20 5 49 1t46 -16l-47 -204q-14 -5 -32 -3.5t-28 8.5z" />
    <glyph glyph-name="commaaccent.cap" horiz-adv-x="398" 
d="M254 -58q10 -24 10 -52q0 -50 -33 -90.5t-91 -62.5q-27 8 -34 44q60 39 60 96q0 28 -13 52q20 13 49 17t52 -4z" />
    <glyph glyph-name="a.smcp" horiz-adv-x="544" 
d="M380 122l-49 -1h-124l-53 1l-43 -123q-17 -4 -46 -4t-48 7l-4 6l199 538q24 4 60.5 4t60.5 -4l198 -541q-24 -12 -53.5 -12t-44 9.5t-24.5 38.5zM183 206l45 1h84q32 -1 39 -1l-33 95q-20 57 -48 158h-5q-25 -90 -41 -138z" />
    <glyph glyph-name="b.smcp" horiz-adv-x="548" 
d="M89 546q177 3 186 3q200 0 200 -143q0 -37 -22 -68t-59 -44q23 -6 43 -19.5t35 -32t23.5 -41t8.5 -46.5q0 -76 -54.5 -117t-154.5 -41t-206 3l-5 5v536zM280 248h-93v-175q30 0 66.5 -0.5t68.5 4t53.5 25.5t21.5 58q0 17 -7 33t-21 28t-36 19.5t-53 7.5zM187 473v-147h84
q99 0 99 73q0 31 -15 46.5t-40 21.5t-58.5 5.5t-69.5 0.5z" />
    <glyph glyph-name="c.smcp" horiz-adv-x="536" 
d="M404 332q0 142 -118 142q-72 0 -104.5 -53t-32.5 -160q0 -90 39.5 -137.5t103.5 -47.5q35 0 74 14.5t81 45.5q16 -10 31 -30t20 -38q-92 -81 -222 -81q-54 0 -97.5 19t-74 55t-47.5 89t-17 121q0 72 19 126t52.5 90t78.5 54t97 18q53 0 93.5 -15t68 -39t41.5 -54t14 -61
q0 -63 -60 -63q-15 0 -40 5z" />
    <glyph glyph-name="d.smcp" horiz-adv-x="584" 
d="M89 0l-5 5v536l5 5q117 3 208 3q71 0 118 -22.5t75 -60.5t39.5 -88.5t11.5 -105.5q0 -56 -11.5 -106t-39 -87.5t-75 -59.5t-119.5 -22q-92 0 -207 3zM189 78l94 1q75 1 112.5 48t37.5 145t-37.5 145.5t-112.5 48.5l-94 1v-389z" />
    <glyph glyph-name="e.smcp" horiz-adv-x="511" 
d="M188 129l-1 -45q36 2 60 2h221q0 -25 -2 -37q-9 -50 -65 -50h-256q-28 0 -44.5 17t-16.5 46v478l5 6h363q3 -15 3 -40.5t-8 -46.5h-260l1 -51v-90l57 1h157q5 -16 5 -42t-5 -43h-214v-105z" />
    <glyph glyph-name="f.smcp" horiz-adv-x="468" 
d="M189 311l35 1h171q5 -16 5 -42t-5 -42h-206v-228q-23 -4 -53.5 -4t-51.5 4v541l5 5h355q6 -18 6 -41q0 -47 -55 -47h-207l1 -79v-68z" />
    <glyph glyph-name="g.smcp" horiz-adv-x="564" 
d="M296 294q23 1 56 1.5t78 0.5t62 -15t17 -46v-214q-101 -34 -218 -34q-66 0 -113.5 20.5t-77 60t-44 91t-14.5 111.5q0 74 20.5 128.5t56 90t83.5 53t103 17.5q114 0 200 -55q-4 -22 -17.5 -44.5t-29.5 -33.5q-71 45 -147 45q-78 0 -119.5 -49.5t-41.5 -152.5
q0 -200 160 -200q52 0 99 12v78q0 23 3 49h-74q-48 0 -48 45q0 24 6 41z" />
    <glyph glyph-name="h.smcp" horiz-adv-x="615" 
d="M427 326l-1 59v161q21 4 52.5 4t52.5 -4v-546q-23 -4 -53.5 -4t-51.5 4v181l1 60l-50 -1h-139l-50 1l1 -60v-181q-21 -4 -52.5 -4t-52.5 4v546q21 4 52.5 4t52.5 -4v-161l-1 -59l50 1h139z" />
    <glyph glyph-name="i.smcp" horiz-adv-x="280" 
d="M87 0v546q21 4 52 4t54 -4v-546q-23 -4 -54 -4t-52 4z" />
    <glyph glyph-name="j.smcp" horiz-adv-x="399" 
d="M39 102q47 -29 95 -29t68.5 29t20.5 90v354q11 2 24.5 3t27.5 1q15 0 28.5 -1t24.5 -3v-352q0 -104 -43 -155t-134 -51q-90 0 -148 39q7 46 36 75z" />
    <glyph glyph-name="k.smcp" horiz-adv-x="547" 
d="M527 28q-25 -34 -68 -34q-26 0 -40 12.5t-28 43.5l-56 122q-17 37 -36 51.5t-54 14.5t-56 -2v-236q-21 -4 -52.5 -4t-52.5 4v546q21 4 52.5 4t52.5 -4v-222l40 1q15 0 21 4t16 19l104 162q14 21 26.5 30t41.5 9t56 -3l8 -8l-129 -196q-21 -32 -38 -45q37 -8 59 -30
t40 -62l49 -108q23 -52 44 -69z" />
    <glyph glyph-name="l.smcp" horiz-adv-x="466" 
d="M272 88h170q0 -15 -3 -39q-9 -50 -67 -50h-228q-28 0 -44.5 16.5t-16.5 46.5v482l6 5h41q32 0 45.5 -15.5t13.5 -50.5v-399q58 4 83 4z" />
    <glyph glyph-name="m.smcp" horiz-adv-x="733" 
d="M67 1l53 545q30 6 69.5 6t66.5 -6l77 -253q27 -86 32 -118h5q5 37 30 118l77 253q27 6 68 6t68 -6l53 -545q-30 -6 -51.5 -6t-51.5 4l-22 268q-5 60 -5 171h-5l-112 -356q-20 -4 -53 -4t-53 4l-111 356h-5q0 -99 -6 -171l-21 -268q-30 -4 -52.5 -4t-50.5 6z" />
    <glyph glyph-name="n.smcp" horiz-adv-x="621" 
d="M532 550l5 -6v-543q-28 -5 -64.5 -5t-57.5 4l-176 310q-13 20 -59 112l-3 -1q6 -120 6 -191v-230q-24 -4 -50 -4t-49 4v544q25 6 61.5 6t59.5 -4l177 -311q7 -12 60 -118l5 1q-10 135 -10 195v176q0 34 13 47.5t45 13.5h37z" />
    <glyph glyph-name="o.smcp" horiz-adv-x="590" 
d="M414 137q26 60 26 135q0 100 -36 153t-110 53q-46 0 -74 -20t-43.5 -50t-21 -66.5t-6.5 -69.5q1 -32 6 -68t20.5 -66t44 -50t75.5 -20q43 0 73.5 18.5t45.5 50.5zM138 511q63 48 157 48q65 0 114.5 -23t79.5 -62.5t45.5 -91.5t15.5 -110q0 -59 -15.5 -110.5t-47 -91
t-80 -61.5t-112.5 -22q-65 0 -112.5 22.5t-79.5 61.5t-47.5 90.5t-15.5 110.5q0 70 24 134.5t74 104.5z" />
    <glyph glyph-name="p.smcp" horiz-adv-x="510" 
d="M274 190h-85v-190q-11 -2 -24.5 -3t-28.5 -1q-14 0 -27.5 1t-24.5 3v541l5 5q180 3 185 3q95 0 152 -45t57 -134q0 -88 -56.5 -134t-152.5 -46zM189 469v-199q15 1 36 1h48q54 0 77.5 28.5t23.5 70.5q0 19 -5.5 37t-17.5 31.5t-31.5 21.5t-47.5 8h-48t-35 1z" />
    <glyph glyph-name="q.smcp" horiz-adv-x="591" 
d="M138 511q63 48 157 48q66 0 115 -23t79.5 -62.5t45.5 -91.5t15 -110q0 -84 -30.5 -149.5t-93.5 -98.5l7 -4q63 -47 123 -48q-1 -34 -23.5 -55.5t-54.5 -21.5q-17 0 -35 7t-36 23l-84 65q-12 -3 -25 -3q-66 0 -115 22.5t-80.5 61.5t-47 90.5t-15.5 110.5q0 70 24 134.5
t74 104.5zM414 137q26 60 26 135q0 100 -36 153t-110 53q-46 0 -74 -20t-43.5 -50t-21.5 -65t-6 -71q0 -32 6 -68t21 -66t43.5 -50t75.5 -20q43 0 73.5 18.5t45.5 50.5z" />
    <glyph glyph-name="r.smcp" horiz-adv-x="547" 
d="M492 386q0 -26 -9 -49.5t-24.5 -42t-37 -32t-45.5 -19.5q43 -15 67 -69l37 -84q10 -23 20.5 -38.5t20.5 -25.5q-24 -33 -70 -33q-26 0 -39.5 12.5t-26.5 41.5l-49 111q-14 30 -32.5 43t-53.5 13h-61v-214q-12 -2 -26 -3t-28 -1t-27 1t-24 3v541l5 5q106 3 200 3
t148.5 -41t54.5 -122zM281 469h-92v-174q34 1 56.5 1.5t33.5 0.5q57 0 81 25.5t24 61.5t-24 60.5t-79 24.5z" />
    <glyph glyph-name="s.smcp" horiz-adv-x="495" 
d="M28 45q0 21 12 44.5t29 34.5q93 -53 181 -53q43 0 72.5 20t29.5 52q0 50 -75 76l-102 35q-132 45 -132 143q0 72 55.5 116.5t155.5 44.5q94 0 187 -41q0 -52 -36 -80q-44 19 -84 27.5t-80 8.5t-64 -18.5t-24 -44.5t16 -38t54 -26l100 -35q64 -23 102.5 -62t38.5 -96
q0 -39 -15.5 -69.5t-44.5 -52t-69.5 -33t-89.5 -11.5q-125 0 -217 58z" />
    <glyph glyph-name="t.smcp" horiz-adv-x="438" 
d="M274 460l1 -60v-400q-19 -4 -52.5 -4t-53.5 4v400l1 60l-53 -1h-105q-4 20 -4 43.5t4 43.5h416q6 -18 6 -41t-12.5 -34.5t-43.5 -11.5h-53z" />
    <glyph glyph-name="u.smcp" horiz-adv-x="605" 
d="M530 545v-350q0 -100 -59.5 -154t-167.5 -54t-168 54t-60 154v349l5 6h40q32 0 46 -16t14 -52v-287q0 -124 122 -124q123 0 123 124v351q11 2 24.5 3t28.5 1q29 0 52 -5z" />
    <glyph glyph-name="v.smcp" horiz-adv-x="513" 
d="M267 86l139 460q20 4 46 4t46 -7l5 -6l-177 -538q-29 -4 -69 -4t-57.5 9.5t-25.5 38.5l-160 496q31 13 58 13t40 -11t22 -39l83 -256q22 -69 42 -152q2 -8 8 -8z" />
    <glyph glyph-name="w.smcp" horiz-adv-x="770" 
d="M137 44l-109 496q29 12 57 12t39.5 -12.5t17.5 -44.5l52 -255q9 -41 27 -146q2 -10 8 -10l94 454q32 5 67 5t65 -5l86 -444q2 -10 8 -10q17 102 29 157l65 304q16 4 46.5 4t51.5 -7l6 -5l-127 -536q-32 -7 -74 -7t-58 10.5t-22 38.5l-41 201q-14 77 -34 197h-6
q-21 -117 -38 -197l-53 -244q-30 -5 -73.5 -5t-60 10t-23.5 39z" />
    <glyph glyph-name="x.smcp" horiz-adv-x="519" 
d="M385 546q16 4 47 4t52 -7l2 -7l-165 -245l188 -274q-32 -24 -71 -24t-68 42l-118 173l-137 -208q-20 -5 -48.5 -5t-51.5 9l-4 6l187 278l-163 242q34 22 71 22t66 -42l95 -140z" />
    <glyph glyph-name="y.smcp" horiz-adv-x="444" 
d="M267 371l74 174q19 5 43 5t50 -6l4 -7l-163 -372v-165q-23 -4 -53.5 -4t-50.5 4v167l-163 370q34 16 63 16q40 0 57 -42l63 -148q23 -59 34 -103h5q25 82 37 111z" />
    <glyph glyph-name="z.smcp" horiz-adv-x="502" 
d="M55 105l216 277q25 32 74 81l-3 3q-38 -6 -142 -6h-136q-4 16 -4 37.5t7 48.5h374q15 -57 15 -72t-14 -32l-215 -276q-31 -37 -71 -81l2 -4q37 3 112 6l79 1q73 0 107 15q7 -26 7 -46q0 -57 -73 -57h-337q-12 49 -12 68t14 37z" />
    <glyph glyph-name="ampersand.smcp" horiz-adv-x="558" 
d="M454 246l1 -140q0 -12 1.5 -39t5.5 -69q-9 -4 -22 -5.5t-27 -1.5q-12 0 -24.5 1t-23.5 3l-6 36q-62 -44 -144 -44q-40 0 -71.5 11.5t-53.5 32t-33.5 47.5t-11.5 58q0 61 34 101.5t83 53.5q-40 13 -65 46t-25 76q0 65 51 105.5t138 40.5q89 0 168 -25v-12q0 -40 -27 -67
q-76 22 -125 22t-71.5 -20t-23.5 -52q0 -74 105 -74h163q49 0 83 14q13 -19 13 -47q0 -52 -71 -52h-21zM354 192v31.5t1 22.5h-78q-63 0 -93 -26.5t-30 -68.5t23.5 -62.5t65.5 -20.5q64 0 111 35v89z" />
    <glyph glyph-name="zero.smcp" horiz-adv-x="482" 
d="M108 510q52 49 133 49q85 1 140.5 -59t56.5 -227q0 -153 -48 -219t-149 -67q-95 2 -146 64t-51 222q0 85 13 143t51 94zM181 92q21 -26 59 -26q23 0 40.5 8t29 30.5t17.5 63t6 105.5q0 64 -5.5 104.5t-17 63t-28.5 31t-41 8.5t-41.5 -9t-28.5 -32.5t-16.5 -63.5
t-5.5 -102q0 -143 32 -181z" />
    <glyph glyph-name="one.smcp" horiz-adv-x="482" 
d="M215 82l-1 58v201q0 6 5 69q-46 -52 -123 -83q-35 18 -42 61q123 70 165 158q16 3 48 3t49 -3v-464l55 2h56q4 -17 4 -42t-4 -42h-343q-5 23 -5 42.5t5 41.5h78z" />
    <glyph glyph-name="two.smcp" horiz-adv-x="482" 
d="M431 88q0 -45 -13.5 -67t-54.5 -22h-274q-14 11 -27 29.5t-13 32.5q0 18 8 37.5t23 40t35.5 41.5t44.5 41l88 73q61 51 61 101q0 33 -22 55t-56 22q-65 0 -101 -77q-50 2 -74 36q20 55 68 91.5t120 36.5q36 0 67 -12.5t54.5 -34.5t36.5 -52.5t13 -65.5q0 -52 -29 -92.5
t-79 -80.5l-71 -57q-69 -55 -79 -84q30 4 60 6t59 2h155z" />
    <glyph glyph-name="three.smcp" horiz-adv-x="482" 
d="M387 440l-80 -79q-12 -12 -36 -30q33 -1 62.5 -12.5t51 -32.5t34 -52t12.5 -70q0 -40 -17 -72.5t-46 -56t-66.5 -36t-77.5 -12.5q-106 0 -179 56q11 47 44 69q32 -23 62.5 -32.5t58.5 -9.5q50 0 82 26.5t32 66.5q0 51 -26.5 76t-67.5 25q-31 0 -59 -13q-14 7 -26.5 23.5
t-16.5 32.5l111 108q15 15 29.5 26t27.5 22l-3 4q-29 -7 -105 -7h-121q-6 18 -6 39q0 24 9 47h316q21 -42 21 -66q0 -23 -20 -40z" />
    <glyph glyph-name="four.smcp" horiz-adv-x="482" 
d="M361 111l1 -51v-60q-23 -4 -49 -4t-47 4v60l1 51l-53 -2h-154q-23 37 -23 57t17 58l155 327q23 4 51 -2t44 -19l-102 -211q-39 -81 -66 -127l2 -3q58 5 105 5h24q-1 10 -1 30v53q0 34 18.5 55t47.5 21h26l4 -4v-94l-1 -61l39 1h46q3 -13 3 -37.5t-8 -47.5h-43z" />
    <glyph glyph-name="five.smcp" horiz-adv-x="482" 
d="M51 42q3 16 15.5 36t27.5 31q55 -39 112 -39t88 28.5t31 79.5q0 49 -28.5 77t-70.5 28q-23 0 -49 -8.5t-54 -28.5q-27 6 -50 35l14 259l6 6h309q7 -18 7 -42q0 -44 -47 -44h-182l-7 -114q39 14 79 14q38 0 70.5 -12.5t56.5 -36.5t37.5 -58t13.5 -77q0 -42 -16 -77
t-44.5 -60t-68 -38.5t-87.5 -13.5q-96 0 -163 55z" />
    <glyph glyph-name="six.smcp" horiz-adv-x="482" 
d="M115 37q-68 70 -68 244q0 130 60.5 204t173.5 74q79 0 131 -28q-6 -42 -35 -68q-48 16 -91 16q-129 0 -133 -165q56 41 129 41q75 0 116.5 -46.5t41.5 -131.5q0 -42 -14 -77t-39.5 -60t-60.5 -39t-78 -14q-85 0 -133 50zM252 274q-49 0 -99 -38v-13q0 -78 23.5 -118.5
t72.5 -40.5q42 0 65 28t23 77q0 105 -85 105z" />
    <glyph glyph-name="seven.smcp" horiz-adv-x="482" 
d="M62 546h360q21 -40 21 -61t-16 -41l-42 -59q-66 -90 -101 -174t-41 -193l-1 -18q-16 -5 -51 -5t-54 5l1 17q17 210 161 392l13 16q27 30 34 37l-3 3q-36 -7 -138 -7h-148q-5 17 -5 39t10 49z" />
    <glyph glyph-name="eight.smcp" horiz-adv-x="482" 
d="M41 131q0 48 31 87t77 60q-92 51 -92 130q0 32 14 59.5t38.5 48t58.5 32t73 11.5q40 0 74 -10.5t58 -29t37.5 -45t13.5 -57.5q0 -83 -83 -124q100 -55 100 -145q0 -39 -15.5 -69t-43.5 -50.5t-65.5 -31t-80.5 -10.5q-44 0 -80 10t-61.5 29t-39.5 45.5t-14 59.5zM232 244
l-4 1q-85 -37 -85 -106q0 -37 26.5 -58.5t69.5 -21.5q45 0 71 22t26 60q0 67 -104 103zM255 331l10 -4q59 32 59 87q0 32 -23 52t-60 20q-36 0 -60 -19.5t-24 -50.5q0 -29 23.5 -48t74.5 -37z" />
    <glyph glyph-name="nine.smcp" horiz-adv-x="482" 
d="M374 509q67 -68 67 -244q0 -132 -59.5 -205t-173.5 -73q-81 0 -132 27q6 43 36 69q42 -16 91 -16q129 0 133 166q-56 -42 -130 -42q-75 0 -116 46t-41 131q0 43 14 78t39.5 60t60.5 39t77 14q84 0 134 -50zM237 271q48 0 99 39v12q0 76 -24 118t-75 42q-39 0 -62.5 -28
t-23.5 -77q0 -106 86 -106z" />
    <glyph glyph-name="currency.smcp" horiz-adv-x="466" 
d="M76 170q-27 43 -27 96q0 26 6 50.5t20 46.5l-57 64q16 31 55 55l65 -59q20 11 44.5 17t49.5 6q52 0 95 -23l66 61q33 -19 56 -55l-59 -67q26 -44 26 -96t-27 -97l58 -63q-8 -16 -22 -29.5t-33 -26.5l-66 61q-21 -11 -45 -16.5t-49 -5.5q-24 0 -48 5.5t-45 16.5l-66 -59
q-33 17 -55 54zM170 342q-22 -29 -22 -75q0 -44 21 -74t63 -30t64 30t22 74q0 45 -23 75.5t-63 30.5t-62 -31z" />
    <glyph glyph-name="dollar.smcp" horiz-adv-x="442" 
d="M29 79q1 20 12.5 43t26.5 33q83 -44 158 -44q77 0 77 48q0 38 -58 59l-87 31q-110 42 -110 128q0 54 35 89.5t96 46.5v67q15 3 39 3q23 0 38 -3v-64q72 -8 138 -37q-1 -52 -37 -78q-75 35 -135 35q-33 0 -52 -13.5t-19 -34.5q0 -20 13.5 -31t43.5 -22l77 -27
q63 -22 93.5 -58t30.5 -84q0 -58 -41.5 -94t-113.5 -44v-60q-8 -2 -18 -2.5t-21 -0.5q-24 0 -39 3v61q-85 10 -147 50z" />
    <glyph glyph-name="cent.smcp" horiz-adv-x="421" 
d="M181 -29v79q-75 15 -109 77t-34 152q0 91 41 147t105 70v81q6 2 17 3t22 1t21.5 -1t17.5 -3v-79q60 -9 92.5 -45t32.5 -82q0 -59 -54 -59q-4 0 -10.5 0.5t-12.5 1t-10.5 2.5t-4.5 5q0 101 -73 101q-44 0 -63.5 -40t-19.5 -121q0 -66 27 -99.5t72 -33.5q23 0 49 9t55 29
q31 -19 43 -57q-50 -50 -125 -60v-78q-7 -2 -17.5 -3t-22.5 -1q-11 0 -22 1t-17 3z" />
    <glyph glyph-name="sterling.smcp" horiz-adv-x="470" 
d="M197 300l160 1q6 -18 6 -36q0 -19 -6 -37h-84t-59 1q0 -70 -57 -146l3 -2q29 2 61 3t67 1h148q0 -45 -14 -65.5t-56 -20.5h-301q-13 48 -13 67q0 20 13 39l14 21q20 30 29 56t11 46h-65q-6 18 -6 36q0 17 6 37q7 0 22.5 -0.5t22.5 -0.5q-30 69 -30 106q0 30 12 57.5
t34.5 49t55.5 34t74 12.5q108 0 179 -63q-5 -20 -19.5 -39t-33.5 -26q-58 43 -119 43q-35 0 -58.5 -20.5t-23.5 -50.5t27 -103z" />
    <glyph glyph-name="Euro.smcp" horiz-adv-x="501" 
d="M436 434q-65 41 -126 41q-92 0 -115 -105h169q5 -16 5 -33t-5 -33h-178v-62h178q5 -16 5 -32.5t-5 -32.5h-170q24 -106 116 -106q64 0 126 40q18 -9 30.5 -26t15.5 -35q-83 -63 -185 -63q-170 0 -204 190h-70q-4 13 -4 32.5t4 32.5h63q-1 10 -1 30.5t1 31.5h-63
q-4 13 -4 33t4 33h70q34 189 204 189q102 0 185 -63q-3 -18 -16 -35.5t-30 -26.5z" />
    <glyph glyph-name="yen.smcp" horiz-adv-x="463" 
d="M416 137h-136v-137q-21 -4 -50 -4t-49 4v137h-137q-4 17 -4 33t4 33h131l-29 63h-102q-4 17 -4 33t4 33h71l-95 203q40 19 69.5 19t45.5 -36l64 -147q15 -35 33 -93h4q15 51 34 92l77 176q22 6 46 6t47 -6l4 -6l-98 -208h70q4 -19 4 -34t-4 -32h-101l-30 -63h131
q4 -17 4 -33t-4 -33z" />
    <glyph glyph-name="ae.smcp" horiz-adv-x="782" 
d="M458 129l-1 -46q34 2 60 2h222q0 -24 -2 -36q-9 -50 -65 -50h-254q-28 0 -44 17t-16 46v63q-15 -1 -45 -1h-84l-53 1l-67 -126q-21 -4 -48.5 -4t-47.5 7l-3 7l290 527q20 10 64 10h359q3 -15 3 -40.5t-8 -45.5h-261l1 -52v-91l56 1h159q5 -16 5 -41.5t-5 -41.5h-215v-106
zM312 206l46 -1v261h-5q-30 -65 -78 -158l-56 -103l39 1h54z" />
    <glyph glyph-name="agrave.smcp" horiz-adv-x="544" 
d="M380 122l-49 -1h-124l-53 1l-43 -123q-17 -4 -46 -4t-48 7l-4 6l199 538q24 4 60.5 4t60.5 -4l198 -541q-24 -12 -53.5 -12t-44 9.5t-24.5 38.5zM183 206l45 1h84q32 -1 39 -1l-33 95q-20 57 -48 158h-5q-25 -90 -41 -138zM214 792l144 -159q-14 -33 -45 -42l-171 133
q8 22 28.5 41t43.5 27z" />
    <glyph glyph-name="aacute.smcp" horiz-adv-x="544" 
d="M380 122l-49 -1h-124l-53 1l-43 -123q-17 -4 -46 -4t-48 7l-4 6l199 538q24 4 60.5 4t60.5 -4l198 -541q-24 -12 -53.5 -12t-44 9.5t-24.5 38.5zM183 206l45 1h84q32 -1 39 -1l-33 95q-20 57 -48 158h-5q-25 -90 -41 -138zM199 633l144 159q23 -8 44 -27t29 -41
l-171 -133q-14 4 -27 16t-19 26z" />
    <glyph glyph-name="acircumflex.smcp" horiz-adv-x="544" 
d="M380 122l-49 -1h-124l-53 1l-43 -123q-17 -4 -46 -4t-48 7l-4 6l199 538q24 4 60.5 4t60.5 -4l198 -541q-24 -12 -53.5 -12t-44 9.5t-24.5 38.5zM183 206l45 1h84q32 -1 39 -1l-33 95q-20 57 -48 158h-5q-25 -90 -41 -138zM369 599l-93 91l-100 -96q-31 12 -48 43
l106 133q38 13 87 1l98 -126q-15 -33 -50 -46z" />
    <glyph glyph-name="atilde.smcp" horiz-adv-x="544" 
d="M380 122l-49 -1h-124l-53 1l-43 -123q-17 -4 -46 -4t-48 7l-4 6l199 538q24 4 60.5 4t60.5 -4l198 -541q-24 -12 -53.5 -12t-44 9.5t-24.5 38.5zM183 206l45 1h84q32 -1 39 -1l-33 95q-20 57 -48 158h-5q-25 -90 -41 -138zM286 624l-55 27q-7 4 -14.5 6.5t-15.5 2.5
q-23 1 -41 -25l-11 -14q-15 0 -30 9t-21 23l9 20q33 73 100 73q27 0 57 -15l55 -28q7 -4 14 -6.5t15 -2.5q10 0 20.5 5.5t21.5 20.5l11 14q15 0 30 -9.5t21 -22.5l-9 -20q-33 -73 -100 -73q-26 0 -57 15z" />
    <glyph glyph-name="adieresis.smcp" horiz-adv-x="544" 
d="M380 122l-49 -1h-124l-53 1l-43 -123q-17 -4 -46 -4t-48 7l-4 6l199 538q24 4 60.5 4t60.5 -4l198 -541q-24 -12 -53.5 -12t-44 9.5t-24.5 38.5zM183 206l45 1h84q32 -1 39 -1l-33 95q-20 57 -48 158h-5q-25 -90 -41 -138zM319 626q-5 9 -6.5 19t-1.5 20q0 32 12 42
t44 10q29 0 42.5 -8t13.5 -44q0 -33 -11.5 -42t-43.5 -9q-30 0 -49 12zM133 626q-5 8 -6.5 18t-1.5 21q0 33 15 42.5t41 9.5q31 0 43.5 -10t12.5 -42t-12.5 -41.5t-44.5 -9.5q-31 0 -47 12z" />
    <glyph glyph-name="aring.smcp" horiz-adv-x="544" 
d="M380 122l-49 -1h-124l-53 1l-43 -123q-17 -4 -46 -4t-48 7l-4 6l199 538q24 4 60.5 4t60.5 -4l198 -541q-24 -12 -53.5 -12t-44 9.5t-24.5 38.5zM183 206l45 1h84q32 -1 39 -1l-33 95q-20 57 -48 158h-5q-25 -90 -41 -138zM274 592q-26 0 -48.5 9t-38.5 24.5t-25 36
t-9 43.5q0 24 9 45t25 36t38 24t49 9t49 -9t38 -24t25 -36t9 -45q0 -23 -9 -43.5t-25.5 -36t-38.5 -24.5t-48 -9zM238 744q-8 -8 -11 -18t-3 -21q0 -23 13.5 -38.5t36.5 -15.5q22 0 36 15.5t14 38.5t-14 39t-36 16t-36 -16z" />
    <glyph glyph-name="ccedilla.smcp" horiz-adv-x="536" 
d="M231 -74q6 20 11 35.5t10 26.5q-57 4 -97 28.5t-65.5 63t-37.5 88t-12 103.5q0 72 19 126t52.5 90t78.5 54t97 18q53 0 93.5 -15t68 -39t41.5 -54t14 -61q0 -63 -60 -63q-15 0 -40 5q0 142 -118 142q-72 0 -104.5 -53t-32.5 -160q0 -90 39.5 -137.5t103.5 -47.5
q35 0 74 14.5t81 45.5q16 -10 31 -30t20 -38q-74 -65 -182 -79q-10 -19 -11 -26q42 -2 67.5 -26t25.5 -64q0 -21 -9.5 -38.5t-25.5 -30t-37.5 -20t-45.5 -7.5q-49 0 -81 20q1 26 21 52q22 -14 46 -14q26 0 37.5 11t11.5 28q0 20 -14 29.5t-30 9.5q-12 0 -22 -5q-12 4 -18 18
z" />
    <glyph glyph-name="egrave.smcp" horiz-adv-x="511" 
d="M188 129l-1 -45q36 2 60 2h221q0 -25 -2 -37q-9 -50 -65 -50h-256q-28 0 -44.5 17t-16.5 46v478l5 6h363q3 -15 3 -40.5t-8 -46.5h-260l1 -51v-90l57 1h157q5 -16 5 -42t-5 -43h-214v-105zM212 792l144 -159q-14 -33 -45 -42l-171 133q8 22 28.5 41t43.5 27z" />
    <glyph glyph-name="eacute.smcp" horiz-adv-x="511" 
d="M188 129l-1 -45q36 2 60 2h221q0 -25 -2 -37q-9 -50 -65 -50h-256q-28 0 -44.5 17t-16.5 46v478l5 6h363q3 -15 3 -40.5t-8 -46.5h-260l1 -51v-90l57 1h157q5 -16 5 -42t-5 -43h-214v-105zM198 633l144 159q23 -8 44 -27t29 -41l-171 -133q-14 4 -27 16t-19 26z" />
    <glyph glyph-name="ecircumflex.smcp" horiz-adv-x="511" 
d="M188 129l-1 -45q36 2 60 2h221q0 -25 -2 -37q-9 -50 -65 -50h-256q-28 0 -44.5 17t-16.5 46v478l5 6h363q3 -15 3 -40.5t-8 -46.5h-260l1 -51v-90l57 1h157q5 -16 5 -42t-5 -43h-214v-105zM368 599l-93 91l-100 -96q-31 12 -48 43l106 133q38 13 87 1l98 -126
q-15 -33 -50 -46z" />
    <glyph glyph-name="edieresis.smcp" horiz-adv-x="511" 
d="M188 129l-1 -45q36 2 60 2h221q0 -25 -2 -37q-9 -50 -65 -50h-256q-28 0 -44.5 17t-16.5 46v478l5 6h363q3 -15 3 -40.5t-8 -46.5h-260l1 -51v-90l57 1h157q5 -16 5 -42t-5 -43h-214v-105zM318 626q-5 9 -6.5 19t-1.5 20q0 32 12 42t44 10q29 0 42.5 -8t13.5 -44
q0 -33 -11.5 -42t-43.5 -9q-30 0 -49 12zM132 626q-5 8 -6.5 18t-1.5 21q0 33 15 42.5t41 9.5q31 0 43.5 -10t12.5 -42t-12.5 -41.5t-44.5 -9.5q-31 0 -47 12z" />
    <glyph glyph-name="hbar.smcp" horiz-adv-x="623" 
d="M192 239l1 -59v-180q-21 -4 -52.5 -4t-52.5 4v395h-62q-4 16 -4 36t4 36h62v79q21 4 52.5 4t52.5 -4v-79h237v79q21 4 52.5 4t52.5 -4v-79h62q4 -16 4 -36t-4 -36h-62v-395q-23 -4 -53.5 -4t-51.5 4v180l1 59l-50 -1h-139zM192 324l50 1h139l50 -1l-1 60v11h-237v-11z
" />
    <glyph glyph-name="igrave.smcp" horiz-adv-x="280" 
d="M87 0v546q21 4 52 4t54 -4v-546q-23 -4 -54 -4t-52 4zM81 792l144 -159q-14 -33 -45 -42l-171 133q8 22 28.5 41t43.5 27z" />
    <glyph glyph-name="iacute.smcp" horiz-adv-x="280" 
d="M87 0v546q21 4 52 4t54 -4v-546q-23 -4 -54 -4t-52 4zM67 633l144 159q23 -8 44 -27t29 -41l-171 -133q-14 4 -27 16t-19 26z" />
    <glyph glyph-name="icircumflex.smcp" horiz-adv-x="280" 
d="M87 0v546q21 4 52 4t54 -4v-546q-23 -4 -54 -4t-52 4zM236 599l-93 91l-100 -96q-31 12 -48 43l106 133q38 13 87 1l98 -126q-15 -33 -50 -46z" />
    <glyph glyph-name="itilde.smcp" horiz-adv-x="280" 
d="M87 0v546q21 4 52 4t54 -4v-546q-23 -4 -54 -4t-52 4zM152 624l-55 27q-7 4 -14.5 6.5t-15.5 2.5q-23 1 -41 -25l-11 -14q-15 0 -30 9t-21 23l9 20q33 73 100 73q27 0 57 -15l55 -28q7 -4 14 -6.5t15 -2.5q10 0 20.5 5.5t21.5 20.5l11 14q15 0 30 -9.5t21 -22.5l-9 -20
q-33 -73 -100 -73q-26 0 -57 15z" />
    <glyph glyph-name="idieresis.smcp" horiz-adv-x="280" 
d="M87 0v546q21 4 52 4t54 -4v-546q-23 -4 -54 -4t-52 4zM185 626q-5 9 -6.5 19t-1.5 20q0 32 12 42t44 10q29 0 42.5 -8t13.5 -44q0 -33 -11.5 -42t-43.5 -9q-30 0 -49 12zM-1 626q-5 8 -6.5 18t-1.5 21q0 33 15 42.5t41 9.5q31 0 43.5 -10t12.5 -42t-12.5 -41.5
t-44.5 -9.5q-31 0 -47 12z" />
    <glyph glyph-name="ij.smcp" horiz-adv-x="679" 
d="M87 0v546q21 4 52 4t54 -4v-546q-23 -4 -54 -4t-52 4zM319 102q47 -29 95 -29t68.5 29t20.5 90v354q11 2 24.5 3t27.5 1q15 0 28.5 -1t24.5 -3v-352q0 -104 -43 -155t-134 -51q-90 0 -148 39q7 46 36 75z" />
    <glyph glyph-name="jcircumflex.smcp" horiz-adv-x="399" 
d="M39 102q47 -29 95 -29t68.5 29t20.5 90v354q11 2 24.5 3t27.5 1q15 0 28.5 -1t24.5 -3v-352q0 -104 -43 -155t-134 -51q-90 0 -148 39q7 46 36 75zM370 599l-93 91l-100 -96q-31 12 -48 43l106 133q38 13 87 1l98 -126q-15 -33 -50 -46z" />
    <glyph glyph-name="kcommaaccent.smcp" horiz-adv-x="540" 
d="M527 28q-25 -34 -68 -34q-26 0 -40 12.5t-28 43.5l-56 122q-17 37 -36 51.5t-54 14.5t-56 -2v-236q-21 -4 -52.5 -4t-52.5 4v546q21 4 52.5 4t52.5 -4v-222l40 1q15 0 21 4t16 19l104 162q14 21 26.5 30t41.5 9t56 -3l8 -8l-129 -196q-21 -32 -38 -45q37 -8 59 -30
t40 -62l49 -108q23 -52 44 -69zM335 -58q10 -24 10 -52q0 -50 -33 -90.5t-91 -62.5q-27 8 -34 44q60 39 60 96q0 28 -13 52q20 13 49 17t52 -4z" />
    <glyph glyph-name="kgreenlandic.smcp" horiz-adv-x="547" 
d="M527 28q-25 -34 -68 -34q-26 0 -40 12.5t-28 43.5l-56 122q-17 37 -36 51.5t-54 14.5t-56 -2v-236q-21 -4 -52.5 -4t-52.5 4v546q21 4 52.5 4t52.5 -4v-222l40 1q15 0 21 4t16 19l104 162q14 21 26.5 30t41.5 9t56 -3l8 -8l-129 -196q-21 -32 -38 -45q37 -8 59 -30
t40 -62l49 -108q23 -52 44 -69z" />
    <glyph glyph-name="ldot.smcp" horiz-adv-x="470" 
d="M272 88h170q0 -15 -3 -39q-9 -50 -67 -50h-228q-28 0 -44.5 16.5t-16.5 46.5v482l6 5h41q32 0 45.5 -15.5t13.5 -50.5v-399q58 4 83 4zM310 356q19 13 53 13q15 0 26 -2t19.5 -6.5t11 -17t2.5 -33.5t-2.5 -34t-9.5 -16.5t-19 -6.5t-28 -3q-18 0 -31.5 4t-18.5 7t-7.5 16
t-2.5 33q0 33 7 46z" />
    <glyph glyph-name="lslash.smcp" horiz-adv-x="478" 
d="M200 483v-151l149 47l8 -3q12 -32 1 -77l-158 -49v-166q60 4 84 4h169q0 -26 -3 -39q-9 -50 -67 -50h-227q-28 0 -44.5 16.5t-16.5 46.5v159l-58 -18l-7 4q-11 31 -2 78l67 19v240l5 5h41q32 0 45.5 -15.5t13.5 -50.5z" />
    <glyph glyph-name="nacute.smcp" horiz-adv-x="621" 
d="M532 550l5 -6v-543q-28 -5 -64.5 -5t-57.5 4l-176 310q-13 20 -59 112l-3 -1q6 -120 6 -191v-230q-24 -4 -50 -4t-49 4v544q25 6 61.5 6t59.5 -4l177 -311q7 -12 60 -118l5 1q-10 135 -10 195v176q0 34 13 47.5t45 13.5h37zM236 633l144 159q23 -8 44 -27t29 -41
l-171 -133q-14 4 -27 16t-19 26z" />
    <glyph glyph-name="ntilde.smcp" horiz-adv-x="621" 
d="M532 550l5 -6v-543q-28 -5 -64.5 -5t-57.5 4l-176 310q-13 20 -59 112l-3 -1q6 -120 6 -191v-230q-24 -4 -50 -4t-49 4v544q25 6 61.5 6t59.5 -4l177 -311q7 -12 60 -118l5 1q-10 135 -10 195v176q0 34 13 47.5t45 13.5h37zM324 624l-55 27q-7 4 -14.5 6.5t-15.5 2.5
q-23 1 -41 -25l-11 -14q-15 0 -30 9t-21 23l9 20q33 73 100 73q27 0 57 -15l55 -28q7 -4 14 -6.5t15 -2.5q10 0 20.5 5.5t21.5 20.5l11 14q15 0 30 -9.5t21 -22.5l-9 -20q-33 -73 -100 -73q-26 0 -57 15z" />
    <glyph glyph-name="oe.smcp" horiz-adv-x="809" 
d="M484 138l-1 -54q18 1 33 1.5t28 0.5h222q0 -45 -14.5 -66t-52.5 -21h-285q-72 -12 -117 -12q-61 0 -109 19.5t-81 56.5t-50 90t-17 119t17 119.5t50 90.5t80.5 57t109.5 20q19 0 48.5 -3t69.5 -10h335q3 -14 3 -36q0 -13 -1.5 -26.5t-6.5 -24.5h-204h-32.5t-25.5 1
l1 -142l57 1h159q5 -18 5 -43t-5 -42h-216v-96zM297 69q43 0 85 13v382q-51 13 -85 13q-146 0 -146 -204t146 -204z" />
    <glyph glyph-name="ograve.smcp" horiz-adv-x="590" 
d="M414 137q26 60 26 135q0 100 -36 153t-110 53q-46 0 -74 -20t-43.5 -50t-21 -66.5t-6.5 -69.5q1 -32 6 -68t20.5 -66t44 -50t75.5 -20q43 0 73.5 18.5t45.5 50.5zM138 511q63 48 157 48q65 0 114.5 -23t79.5 -62.5t45.5 -91.5t15.5 -110q0 -59 -15.5 -110.5t-47 -91
t-80 -61.5t-112.5 -22q-65 0 -112.5 22.5t-79.5 61.5t-47.5 90.5t-15.5 110.5q0 70 24 134.5t74 104.5zM234 792l144 -159q-14 -33 -45 -42l-171 133q8 22 28.5 41t43.5 27z" />
    <glyph glyph-name="oacute.smcp" horiz-adv-x="590" 
d="M414 137q26 60 26 135q0 100 -36 153t-110 53q-46 0 -74 -20t-43.5 -50t-21 -66.5t-6.5 -69.5q1 -32 6 -68t20.5 -66t44 -50t75.5 -20q43 0 73.5 18.5t45.5 50.5zM138 511q63 48 157 48q65 0 114.5 -23t79.5 -62.5t45.5 -91.5t15.5 -110q0 -59 -15.5 -110.5t-47 -91
t-80 -61.5t-112.5 -22q-65 0 -112.5 22.5t-79.5 61.5t-47.5 90.5t-15.5 110.5q0 70 24 134.5t74 104.5zM218 633l144 159q23 -8 44 -27t29 -41l-171 -133q-14 4 -27 16t-19 26z" />
    <glyph glyph-name="ocircumflex.smcp" horiz-adv-x="590" 
d="M414 137q26 60 26 135q0 100 -36 153t-110 53q-46 0 -74 -20t-43.5 -50t-21 -66.5t-6.5 -69.5q1 -32 6 -68t20.5 -66t44 -50t75.5 -20q43 0 73.5 18.5t45.5 50.5zM138 511q63 48 157 48q65 0 114.5 -23t79.5 -62.5t45.5 -91.5t15.5 -110q0 -59 -15.5 -110.5t-47 -91
t-80 -61.5t-112.5 -22q-65 0 -112.5 22.5t-79.5 61.5t-47.5 90.5t-15.5 110.5q0 70 24 134.5t74 104.5zM389 599l-93 91l-100 -96q-31 12 -48 43l106 133q38 13 87 1l98 -126q-15 -33 -50 -46z" />
    <glyph glyph-name="otilde.smcp" horiz-adv-x="590" 
d="M414 137q26 60 26 135q0 100 -36 153t-110 53q-46 0 -74 -20t-43.5 -50t-21 -66.5t-6.5 -69.5q1 -32 6 -68t20.5 -66t44 -50t75.5 -20q43 0 73.5 18.5t45.5 50.5zM138 511q63 48 157 48q65 0 114.5 -23t79.5 -62.5t45.5 -91.5t15.5 -110q0 -59 -15.5 -110.5t-47 -91
t-80 -61.5t-112.5 -22q-65 0 -112.5 22.5t-79.5 61.5t-47.5 90.5t-15.5 110.5q0 70 24 134.5t74 104.5zM306 624l-55 27q-7 4 -14.5 6.5t-15.5 2.5q-23 1 -41 -25l-11 -14q-15 0 -30 9t-21 23l9 20q33 73 100 73q27 0 57 -15l55 -28q7 -4 14 -6.5t15 -2.5q10 0 20.5 5.5
t21.5 20.5l11 14q15 0 30 -9.5t21 -22.5l-9 -20q-33 -73 -100 -73q-26 0 -57 15z" />
    <glyph glyph-name="odieresis.smcp" horiz-adv-x="590" 
d="M414 137q26 60 26 135q0 100 -36 153t-110 53q-46 0 -74 -20t-43.5 -50t-21 -66.5t-6.5 -69.5q1 -32 6 -68t20.5 -66t44 -50t75.5 -20q43 0 73.5 18.5t45.5 50.5zM138 511q63 48 157 48q65 0 114.5 -23t79.5 -62.5t45.5 -91.5t15.5 -110q0 -59 -15.5 -110.5t-47 -91
t-80 -61.5t-112.5 -22q-65 0 -112.5 22.5t-79.5 61.5t-47.5 90.5t-15.5 110.5q0 70 24 134.5t74 104.5zM339 626q-5 9 -6.5 19t-1.5 20q0 32 12 42t44 10q29 0 42.5 -8t13.5 -44q0 -33 -11.5 -42t-43.5 -9q-30 0 -49 12zM153 626q-5 8 -6.5 18t-1.5 21q0 33 15 42.5t41 9.5
q31 0 43.5 -10t12.5 -42t-12.5 -41.5t-44.5 -9.5q-31 0 -47 12z" />
    <glyph glyph-name="oslash.smcp" horiz-adv-x="590" 
d="M40 272q0 58 15.5 110t46.5 91.5t77 62.5t108 23q86 0 141 -32l42 59q40 -13 59 -43l-45 -64q66 -80 66 -207q0 -58 -15.5 -109.5t-47 -90.5t-78 -62t-107.5 -23q-87 0 -142 33l-43 -59q-16 5 -33.5 17.5t-25.5 25.5l46 64q-64 77 -64 204zM424 395l-214 -306
q35 -26 81 -26q50 0 80 20t46.5 52t22 72.5t5.5 81.5q0 56 -21 106zM164 153l214 304q-35 26 -81 26t-75.5 -18t-46.5 -49t-23.5 -72t-6.5 -87q0 -56 19 -104z" />
    <glyph glyph-name="racute.smcp" horiz-adv-x="547" 
d="M492 386q0 -26 -9 -49.5t-24.5 -42t-37 -32t-45.5 -19.5q43 -15 67 -69l37 -84q10 -23 20.5 -38.5t20.5 -25.5q-24 -33 -70 -33q-26 0 -39.5 12.5t-26.5 41.5l-49 111q-14 30 -32.5 43t-53.5 13h-61v-214q-12 -2 -26 -3t-28 -1t-27 1t-24 3v541l5 5q106 3 200 3
t148.5 -41t54.5 -122zM281 469h-92v-174q34 1 56.5 1.5t33.5 0.5q57 0 81 25.5t24 61.5t-24 60.5t-79 24.5zM196 633l144 159q23 -8 44 -27t29 -41l-171 -133q-14 4 -27 16t-19 26z" />
    <glyph glyph-name="rcaron.smcp" horiz-adv-x="547" 
d="M492 386q0 -26 -9 -49.5t-24.5 -42t-37 -32t-45.5 -19.5q43 -15 67 -69l37 -84q10 -23 20.5 -38.5t20.5 -25.5q-24 -33 -70 -33q-26 0 -39.5 12.5t-26.5 41.5l-49 111q-14 30 -32.5 43t-53.5 13h-61v-214q-12 -2 -26 -3t-28 -1t-27 1t-24 3v541l5 5q106 3 200 3
t148.5 -41t54.5 -122zM281 469h-92v-174q34 1 56.5 1.5t33.5 0.5q57 0 81 25.5t24 61.5t-24 60.5t-79 24.5zM177 780l93 -91l101 97q30 -10 48 -43l-107 -134q-35 -14 -87 -1l-98 126q17 34 50 46z" />
    <glyph glyph-name="rcommaaccent.smcp" horiz-adv-x="547" 
d="M492 386q0 -26 -9 -49.5t-24.5 -42t-37 -32t-45.5 -19.5q43 -15 67 -69l37 -84q10 -23 20.5 -38.5t20.5 -25.5q-24 -33 -70 -33q-26 0 -39.5 12.5t-26.5 41.5l-49 111q-14 30 -32.5 43t-53.5 13h-61v-214q-12 -2 -26 -3t-28 -1t-27 1t-24 3v541l5 5q106 3 200 3
t148.5 -41t54.5 -122zM281 469h-92v-174q34 1 56.5 1.5t33.5 0.5q57 0 81 25.5t24 61.5t-24 60.5t-79 24.5zM333 -58q10 -24 10 -52q0 -50 -33 -90.5t-91 -62.5q-27 8 -34 44q60 39 60 96q0 28 -13 52q20 13 49 17t52 -4z" />
    <glyph glyph-name="germandbls.smcp" horiz-adv-x="990" 
d="M28 45q0 21 12 44.5t29 34.5q93 -53 181 -53q43 0 72.5 20t29.5 52q0 50 -75 76l-102 35q-132 45 -132 143q0 72 55.5 116.5t155.5 44.5q94 0 187 -41q0 -52 -36 -80q-44 19 -84 27.5t-80 8.5t-64 -18.5t-24 -44.5t16 -38t54 -26l100 -35q64 -23 102.5 -62t38.5 -96
q0 -39 -15.5 -69.5t-44.5 -52t-69.5 -33t-89.5 -11.5q-125 0 -217 58zM523 45q0 21 12 44.5t29 34.5q93 -53 181 -53q43 0 72.5 20t29.5 52q0 50 -75 76l-102 35q-132 45 -132 143q0 72 55.5 116.5t155.5 44.5q94 0 187 -41q0 -52 -36 -80q-44 19 -84 27.5t-80 8.5
t-64 -18.5t-24 -44.5t16 -38t54 -26l100 -35q64 -23 102.5 -62t38.5 -96q0 -39 -15.5 -69.5t-44.5 -52t-69.5 -33t-89.5 -11.5q-125 0 -217 58z" />
    <glyph glyph-name="germandbls.cap_smcp" horiz-adv-x="570" 
d="M395 371l1 16q0 42 -25.5 68.5t-73.5 26.5q-100 0 -100 -101v-381q-12 -2 -26 -3t-28 -1t-27.5 1t-23.5 3v264l-77 -1q-3 10 -4 20t-1 21t1 20.5t4 20.5l77 -1v49q0 82 55.5 124t148.5 42q45 0 82.5 -12.5t64.5 -34.5t42 -52.5t15 -67.5q0 -30 -8 -59q-31 -8 -50 -22.5
t-19 -32.5q0 -22 29 -45l31 -24q30 -23 45 -50t15 -53q0 -27 -12 -48.5t-33 -36.5t-49.5 -23.5t-61.5 -8.5q-69 0 -117 22q1 17 10 39t21 34q19 -9 36.5 -13t33.5 -4q28 0 45.5 11t17.5 28q0 16 -7.5 26t-24.5 24l-34 27q-28 22 -42 42.5t-14 43.5q0 33 23 60.5t60 41.5z
" />
    <glyph glyph-name="ugrave.smcp" horiz-adv-x="605" 
d="M530 545v-350q0 -100 -59.5 -154t-167.5 -54t-168 54t-60 154v349l5 6h40q32 0 46 -16t14 -52v-287q0 -124 122 -124q123 0 123 124v351q11 2 24.5 3t28.5 1q29 0 52 -5zM239 792l144 -159q-14 -33 -45 -42l-171 133q8 22 28.5 41t43.5 27z" />
    <glyph glyph-name="uacute.smcp" horiz-adv-x="605" 
d="M530 545v-350q0 -100 -59.5 -154t-167.5 -54t-168 54t-60 154v349l5 6h40q32 0 46 -16t14 -52v-287q0 -124 122 -124q123 0 123 124v351q11 2 24.5 3t28.5 1q29 0 52 -5zM224 633l144 159q23 -8 44 -27t29 -41l-171 -133q-14 4 -27 16t-19 26z" />
    <glyph glyph-name="ucircumflex.smcp" horiz-adv-x="605" 
d="M530 545v-350q0 -100 -59.5 -154t-167.5 -54t-168 54t-60 154v349l5 6h40q32 0 46 -16t14 -52v-287q0 -124 122 -124q123 0 123 124v351q11 2 24.5 3t28.5 1q29 0 52 -5zM395 599l-93 91l-100 -96q-31 12 -48 43l106 133q38 13 87 1l98 -126q-15 -33 -50 -46z" />
    <glyph glyph-name="udieresis.smcp" horiz-adv-x="605" 
d="M530 545v-350q0 -100 -59.5 -154t-167.5 -54t-168 54t-60 154v349l5 6h40q32 0 46 -16t14 -52v-287q0 -124 122 -124q123 0 123 124v351q11 2 24.5 3t28.5 1q29 0 52 -5zM344 626q-5 9 -6.5 19t-1.5 20q0 32 12 42t44 10q29 0 42.5 -8t13.5 -44q0 -33 -11.5 -42t-43.5 -9
q-30 0 -49 12zM158 626q-5 8 -6.5 18t-1.5 21q0 33 15 42.5t41 9.5q31 0 43.5 -10t12.5 -42t-12.5 -41.5t-44.5 -9.5q-31 0 -47 12z" />
    <glyph glyph-name="yacute.smcp" horiz-adv-x="444" 
d="M267 371l74 174q19 5 43 5t50 -6l4 -7l-163 -372v-165q-23 -4 -53.5 -4t-50.5 4v167l-163 370q34 16 63 16q40 0 57 -42l63 -148q23 -59 34 -103h5q25 82 37 111zM149 633l144 159q23 -8 44 -27t29 -41l-171 -133q-14 4 -27 16t-19 26z" />
    <glyph glyph-name="ydieresis.smcp" horiz-adv-x="444" 
d="M267 371l74 174q19 5 43 5t50 -6l4 -7l-163 -372v-165q-23 -4 -53.5 -4t-50.5 4v167l-163 370q34 16 63 16q40 0 57 -42l63 -148q23 -59 34 -103h5q25 82 37 111zM270 626q-5 9 -6.5 19t-1.5 20q0 32 12 42t44 10q29 0 42.5 -8t13.5 -44q0 -33 -11.5 -42t-43.5 -9
q-30 0 -49 12zM84 626q-5 8 -6.5 18t-1.5 21q0 33 15 42.5t41 9.5q31 0 43.5 -10t12.5 -42t-12.5 -41.5t-44.5 -9.5q-31 0 -47 12z" />
    <glyph glyph-name="eth.smcp" horiz-adv-x="591" 
d="M96 0l-5 5v226h-65q-2 8 -3 19t-1 22t1 22t3 21h65v226l5 5q115 3 207 3q71 0 118.5 -22.5t75.5 -61t39.5 -88.5t11.5 -105q0 -56 -11.5 -106t-39 -87.5t-75 -59.5t-119.5 -22q-92 0 -207 3zM194 76l96 1q150 1 150 195q0 196 -150 196l-96 1v-154h126q2 -10 3 -21t1 -22
t-1 -22t-3 -19h-126v-155z" />
    <glyph glyph-name="thorn.smcp" horiz-adv-x="514" 
d="M189 461l85 1q96 1 152.5 -45t56.5 -134t-56.5 -134t-152.5 -46h-85v-103q-12 -2 -26 -3t-28 -1t-27.5 1t-23.5 3v546q10 2 23.5 3t27.5 1t28 -1t26 -3v-85zM189 183l80 1q58 1 81.5 29t23.5 70q0 19 -5.5 37t-17.5 32.5t-31.5 21.5t-46.5 7h-48t-36 1v-199z" />
    <glyph glyph-name="aogonek.smcp" horiz-adv-x="544" 
d="M207 121l-53 1l-43 -123q-17 -4 -46 -4t-48 7l-4 6l199 538q24 4 60.5 4t60.5 -4l198 -541q-88 -52 -88 -108q0 -22 13 -33t24 -11.5t25.5 0t44.5 15.5q23 -19 23 -50q-40 -35 -97 -35t-86.5 25t-29.5 68q0 68 73 126q-16 11 -24 39l-29 81l-49 -1h-124zM183 206l45 1h84
q32 -1 39 -1l-33 95q-20 57 -48 158h-5q-25 -90 -41 -138z" />
    <glyph glyph-name="cacute.smcp" horiz-adv-x="536" 
d="M404 332q0 142 -118 142q-72 0 -104.5 -53t-32.5 -160q0 -90 39.5 -137.5t103.5 -47.5q35 0 74 14.5t81 45.5q16 -10 31 -30t20 -38q-92 -81 -222 -81q-54 0 -97.5 19t-74 55t-47.5 89t-17 121q0 72 19 126t52.5 90t78.5 54t97 18q53 0 93.5 -15t68 -39t41.5 -54t14 -61
q0 -63 -60 -63q-15 0 -40 5zM214 633l144 159q23 -8 44 -27t29 -41l-171 -133q-14 4 -27 16t-19 26z" />
    <glyph glyph-name="ccaron.smcp" horiz-adv-x="536" 
d="M404 332q0 142 -118 142q-72 0 -104.5 -53t-32.5 -160q0 -90 39.5 -137.5t103.5 -47.5q35 0 74 14.5t81 45.5q16 -10 31 -30t20 -38q-92 -81 -222 -81q-54 0 -97.5 19t-74 55t-47.5 89t-17 121q0 72 19 126t52.5 90t78.5 54t97 18q53 0 93.5 -15t68 -39t41.5 -54t14 -61
q0 -63 -60 -63q-15 0 -40 5zM195 780l93 -91l101 97q30 -10 48 -43l-107 -134q-35 -14 -87 -1l-98 126q17 34 50 46z" />
    <glyph glyph-name="dcaron.smcp" horiz-adv-x="584" 
d="M89 0l-5 5v536l5 5q117 3 208 3q71 0 118 -22.5t75 -60.5t39.5 -88.5t11.5 -105.5q0 -56 -11.5 -106t-39 -87.5t-75 -59.5t-119.5 -22q-92 0 -207 3zM189 78l94 1q75 1 112.5 48t37.5 145t-37.5 145.5t-112.5 48.5l-94 1v-389zM184 780l93 -91l101 97q30 -10 48 -43
l-107 -134q-35 -14 -87 -1l-98 126q17 34 50 46z" />
    <glyph glyph-name="ecaron.smcp" horiz-adv-x="511" 
d="M188 129l-1 -45q36 2 60 2h221q0 -25 -2 -37q-9 -50 -65 -50h-256q-28 0 -44.5 17t-16.5 46v478l5 6h363q3 -15 3 -40.5t-8 -46.5h-260l1 -51v-90l57 1h157q5 -16 5 -42t-5 -43h-214v-105zM179 780l93 -91l101 97q30 -10 48 -43l-107 -134q-35 -14 -87 -1l-98 126
q17 34 50 46z" />
    <glyph glyph-name="eogonek.smcp" horiz-adv-x="511" 
d="M188 129l-1 -45q27 3 60 3h221q0 -16 -1.5 -31t-6 -27t-31.5 -26q-43 -17 -67.5 -46.5t-24.5 -55.5q0 -24 12.5 -37t35.5 -13q25 0 59 17q23 -20 24 -50q-43 -35 -98 -35q-57 0 -86.5 24.5t-29.5 69.5q0 69 71 122h-180q-28 0 -44.5 17t-16.5 46v478l5 6h363q3 -14 3 -36
q0 -13 -1.5 -26.5t-6.5 -24.5h-260v-141l50 1h165q5 -18 5 -43t-5 -42h-214v-105z" />
    <glyph glyph-name="ncaron.smcp" horiz-adv-x="621" 
d="M532 550l5 -6v-543q-28 -5 -64.5 -5t-57.5 4l-176 310q-13 20 -59 112l-3 -1q6 -120 6 -191v-230q-24 -4 -50 -4t-49 4v544q25 6 61.5 6t59.5 -4l177 -311q7 -12 60 -118l5 1q-10 135 -10 195v176q0 34 13 47.5t45 13.5h37zM218 780l93 -91l101 97q30 -10 48 -43
l-107 -134q-35 -14 -87 -1l-98 126q17 34 50 46z" />
    <glyph glyph-name="sacute.smcp" horiz-adv-x="495" 
d="M28 45q0 21 12 44.5t29 34.5q93 -53 181 -53q43 0 72.5 20t29.5 52q0 50 -75 76l-102 35q-132 45 -132 143q0 72 55.5 116.5t155.5 44.5q94 0 187 -41q0 -52 -36 -80q-44 19 -84 27.5t-80 8.5t-64 -18.5t-24 -44.5t16 -38t54 -26l100 -35q64 -23 102.5 -62t38.5 -96
q0 -39 -15.5 -69.5t-44.5 -52t-69.5 -33t-89.5 -11.5q-125 0 -217 58zM170 633l144 159q23 -8 44 -27t29 -41l-171 -133q-14 4 -27 16t-19 26z" />
    <glyph glyph-name="scaron.smcp" horiz-adv-x="495" 
d="M28 45q0 21 12 44.5t29 34.5q93 -53 181 -53q43 0 72.5 20t29.5 52q0 50 -75 76l-102 35q-132 45 -132 143q0 72 55.5 116.5t155.5 44.5q94 0 187 -41q0 -52 -36 -80q-44 19 -84 27.5t-80 8.5t-64 -18.5t-24 -44.5t16 -38t54 -26l100 -35q64 -23 102.5 -62t38.5 -96
q0 -39 -15.5 -69.5t-44.5 -52t-69.5 -33t-89.5 -11.5q-125 0 -217 58zM151 780l93 -91l101 97q30 -10 48 -43l-107 -134q-35 -14 -87 -1l-98 126q17 34 50 46z" />
    <glyph glyph-name="tcaron.smcp" horiz-adv-x="438" 
d="M274 460l1 -60v-400q-19 -4 -52.5 -4t-53.5 4v400l1 60l-53 -1h-105q-4 20 -4 43.5t4 43.5h416q6 -18 6 -41t-12.5 -34.5t-43.5 -11.5h-53zM128 780l93 -91l101 97q30 -10 48 -43l-107 -134q-35 -14 -87 -1l-98 126q17 34 50 46z" />
    <glyph glyph-name="uring.smcp" horiz-adv-x="605" 
d="M530 545v-350q0 -100 -59.5 -154t-167.5 -54t-168 54t-60 154v349l5 6h40q32 0 46 -16t14 -52v-287q0 -124 122 -124q123 0 123 124v351q11 2 24.5 3t28.5 1q29 0 52 -5zM301 592q-26 0 -48.5 9t-38.5 24.5t-25 36t-9 43.5q0 24 9 45t25 36t38 24t49 9t49 -9t38 -24
t25 -36t9 -45q0 -23 -9 -43.5t-25.5 -36t-38.5 -24.5t-48 -9zM265 744q-8 -8 -11 -18t-3 -21q0 -23 13.5 -38.5t36.5 -15.5q22 0 36 15.5t14 38.5t-14 39t-36 16t-36 -16z" />
    <glyph glyph-name="zacute.smcp" horiz-adv-x="502" 
d="M55 105l216 277q25 32 74 81l-3 3q-38 -6 -142 -6h-136q-4 16 -4 37.5t7 48.5h374q15 -57 15 -72t-14 -32l-215 -276q-31 -37 -71 -81l2 -4q37 3 112 6l79 1q73 0 107 15q7 -26 7 -46q0 -57 -73 -57h-337q-12 49 -12 68t14 37zM182 633l144 159q23 -8 44 -27t29 -41
l-171 -133q-14 4 -27 16t-19 26z" />
    <glyph glyph-name="zdotaccent.smcp" horiz-adv-x="502" 
d="M55 105l216 277q25 32 74 81l-3 3q-38 -6 -142 -6h-136q-4 16 -4 37.5t7 48.5h374q15 -57 15 -72t-14 -32l-215 -276q-31 -37 -71 -81l2 -4q37 3 112 6l79 1q73 0 107 15q7 -26 7 -46q0 -57 -73 -57h-337q-12 49 -12 68t14 37zM202 640q-9 18 -9 44q0 41 15 48.5t50 8.5
q40 -1 51 -10t12 -47q-1 -36 -12 -46t-51 -11q-39 0 -56 13z" />
    <glyph glyph-name="zcaron.smcp" horiz-adv-x="502" 
d="M55 105l216 277q25 32 74 81l-3 3q-38 -6 -142 -6h-136q-4 16 -4 37.5t7 48.5h374q15 -57 15 -72t-14 -32l-215 -276q-31 -37 -71 -81l2 -4q37 3 112 6l79 1q73 0 107 15q7 -26 7 -46q0 -57 -73 -57h-337q-12 49 -12 68t14 37zM163 780l93 -91l101 97q30 -10 48 -43
l-107 -134q-35 -14 -87 -1l-98 126q17 34 50 46z" />
    <glyph glyph-name="dotaccent.alt" horiz-adv-x="398" 
d="M146 400q19 13 53 13q15 0 26 -2t19.5 -6.5t11 -17t2.5 -33.5t-2.5 -34t-9.5 -16.5t-19 -6.5t-28 -3q-18 0 -31.5 4t-18.5 7t-7.5 16t-2.5 33q0 33 7 46z" />
    </font>
</defs>
</svg>
